<svg width="209" height="72" fill="none" xmlns="http://www.w3.org/2000/svg"><path fill-rule="evenodd" clip-rule="evenodd" d="M138.506 14.9c-.344 0-.663-.036-.971-.114a3.633 3.633 0 0 1-.753-.258v-1.221h.121c.072.054.15.108.235.174.09.06.21.127.367.199.139.06.289.114.458.162.169.048.356.066.555.066.199 0 .385-.03.542-.096.157-.066.235-.168.235-.3a.299.299 0 0 0-.108-.247c-.073-.054-.211-.108-.422-.157a4.702 4.702 0 0 0-.416-.09 3.212 3.212 0 0 1-.446-.108c-.368-.114-.639-.277-.826-.5-.181-.222-.277-.51-.277-.871 0-.21.048-.403.145-.583.096-.18.235-.35.422-.487.186-.139.415-.253.687-.337.271-.084.578-.127.922-.127a3.708 3.708 0 0 1 1.591.331v1.173h-.115a1.88 1.88 0 0 0-.235-.157 2.344 2.344 0 0 0-.723-.307 1.96 1.96 0 0 0-.464-.053 1.17 1.17 0 0 0-.53.108c-.145.072-.217.168-.217.283 0 .108.036.186.108.246.072.06.229.12.47.18.127.03.265.06.428.09.163.03.314.067.464.115.338.108.585.265.76.475.174.21.259.481.259.83a1.376 1.376 0 0 1-.585 1.118 2.256 2.256 0 0 1-.705.337c-.271.079-.591.12-.97.12l-.006.007Zm-3.55-.619c-.103.084-.187.156-.265.223a1.652 1.652 0 0 1-.32.198c-.126.06-.253.114-.379.145-.121.03-.296.048-.513.048-.41 0-.753-.139-1.018-.415-.271-.277-.41-.626-.41-1.047 0-.342.066-.625.205-.836a1.41 1.41 0 0 1 .596-.505c.266-.126.573-.216.941-.264.361-.048.753-.09 1.175-.115v-.024c0-.258-.097-.433-.283-.529-.187-.096-.471-.144-.85-.144-.169 0-.368.03-.597.09-.229.06-.452.138-.669.235h-.12v-1.125a6.69 6.69 0 0 1 .693-.144c.319-.06.645-.085.97-.085.802 0 1.38.133 1.748.397.368.265.548.674.548 1.221v3.163h-1.452v-.493.006Zm0-.722v-.968c-.241.024-.44.048-.591.067a1.93 1.93 0 0 0-.446.108.659.659 0 0 0-.295.198.598.598 0 0 0-.103.361c0 .216.061.367.175.451.115.084.289.12.512.12.127 0 .254-.03.386-.09.133-.06.253-.138.356-.246h.006Zm-4.424-1.136c0-.451-.072-.782-.211-.986-.138-.205-.361-.307-.657-.307a1.377 1.377 0 0 0-.765.247v2.333c.078.036.163.06.253.072.09.012.205.018.331.018.356 0 .621-.114.79-.343.175-.228.259-.577.259-1.04v.006Zm1.483-.03c0 .74-.187 1.34-.567 1.792-.379.457-.844.68-1.398.68-.235 0-.434-.025-.609-.079a3.02 3.02 0 0 1-.548-.24v1.93h-1.453v-6.338h1.453v.487c.211-.18.434-.33.651-.44.223-.113.476-.168.765-.168.543 0 .958.211 1.254.644.295.427.446 1.004.446 1.744l.006-.012Zm-5.286 2.381h-1.452v-.51c-.253.21-.482.366-.693.474a1.612 1.612 0 0 1-.748.163c-.464 0-.819-.145-1.079-.433-.259-.29-.385-.728-.385-1.311v-3.02h1.452v2.298c0 .24 0 .433.018.59.012.15.043.276.091.384a.485.485 0 0 0 .205.223c.09.048.223.072.385.072a1.436 1.436 0 0 0 .76-.277v-3.29h1.452v4.637h-.006Zm-6.183-2.309c0-.277-.024-.5-.067-.685a1.359 1.359 0 0 0-.186-.44.679.679 0 0 0-.29-.24.889.889 0 0 0-.367-.066.984.984 0 0 0-.356.06.693.693 0 0 0-.295.228 1.178 1.178 0 0 0-.199.44 2.882 2.882 0 0 0-.072.703c0 .283.024.511.072.686.048.174.108.312.181.415a.672.672 0 0 0 .289.234 1 1 0 0 0 .741 0 .63.63 0 0 0 .29-.222c.084-.12.15-.259.198-.427.043-.169.067-.397.067-.692l-.006.006Zm1.482-.006c0 .764-.211 1.365-.627 1.804-.421.44-1.012.662-1.777.662-.766 0-1.35-.223-1.772-.662-.422-.439-.633-1.04-.633-1.804s.211-1.371.633-1.81c.422-.433 1.012-.656 1.772-.656.759 0 1.356.223 1.777.662.422.439.633 1.04.633 1.804h-.006Zm-6.949-1.954a.808.808 0 0 0-.09-.397.573.573 0 0 0-.295-.259 1.086 1.086 0 0 0-.32-.078 4.493 4.493 0 0 0-.44-.018h-.518v1.66h.44c.217 0 .398-.012.548-.042a.783.783 0 0 0 .38-.169.759.759 0 0 0 .223-.277 1.04 1.04 0 0 0 .072-.42Zm2.495 4.275h-1.892l-1.718-2.26h-.548v2.26h-1.543V8.628h2.483c.344 0 .639.024.892.066.253.043.488.133.705.265.223.138.398.319.525.535.132.217.198.493.198.824 0 .47-.108.854-.319 1.143-.211.294-.5.523-.856.697l2.073 2.622Zm-6.394-2.153h-2.748v-1.142h2.748v1.142Zm-4.779 1.66c-.097.084-.187.156-.265.223a1.485 1.485 0 0 1-.32.198c-.126.06-.253.114-.38.144-.12.03-.289.049-.512.049-.41 0-.747-.139-1.018-.415-.272-.277-.41-.626-.41-1.047 0-.342.072-.625.205-.836a1.41 1.41 0 0 1 .596-.505c.26-.126.573-.216.935-.264.361-.048.753-.09 1.169-.115v-.024c0-.258-.097-.433-.284-.529-.186-.096-.47-.144-.843-.144-.169 0-.368.03-.597.09-.229.06-.452.138-.669.235h-.12v-1.125c.144-.042.373-.09.693-.144.319-.06.645-.085.97-.085.802 0 1.38.133 1.748.397.367.265.548.674.548 1.221v3.163h-1.452v-.493l.006.006Zm0-.722v-.968c-.241.024-.44.049-.591.067a1.93 1.93 0 0 0-.446.108.659.659 0 0 0-.295.198c-.073.09-.103.21-.103.361 0 .216.061.367.175.451.115.084.289.12.512.12.127 0 .254-.03.386-.09.133-.06.247-.138.356-.246h.006Zm-2.718-3.427-1.67 4.636h-1.585l-1.657-4.636h1.525l.958 3.073.946-3.073h1.489-.006Zm-6.485 4.143c-.097.084-.187.156-.265.223a1.962 1.962 0 0 1-.693.343c-.121.03-.29.048-.513.048-.41 0-.747-.139-1.018-.415-.272-.277-.41-.626-.41-1.047 0-.342.072-.625.205-.836.138-.21.337-.384.596-.505.26-.126.573-.216.935-.264.361-.048.753-.09 1.175-.115v-.024c0-.258-.097-.433-.283-.529-.187-.096-.47-.144-.844-.144-.169 0-.368.03-.597.09-.229.06-.452.138-.669.235h-.12v-1.125a6.77 6.77 0 0 1 .693-.144c.32-.06.645-.085.97-.085.802 0 1.38.133 1.748.397.367.265.548.674.548 1.221v3.163h-1.452v-.493l-.006.006Zm0-.722v-.968c-.241.024-.44.048-.59.067a1.93 1.93 0 0 0-.447.108.658.658 0 0 0-.295.198c-.073.09-.103.21-.103.361 0 .216.06.367.175.451.115.084.29.12.513.12.126 0 .253-.03.385-.09a1.18 1.18 0 0 0 .356-.246h.006Zm-2.827 1.215h-4.116V8.622h1.549v4.98h2.561v1.178l.006-.006Z" fill="#091A65"/><mask id="path-2-outside-1_254_17844" maskUnits="userSpaceOnUse" x=".35" y=".656" width="209" height="72" fill="#000"><path fill="#fff" d="M.35.656h209v72H.35z"/><path d="M119.497 58.175v6.76h-5.358c-1.066 0-4.912-.121-4.912-2.076l-.488.29c-3.326 1.887-6.985 2.838-10.987 2.838-5.888 0-10.914-2.093-15.073-6.273-4.164-4.18-6.25-9.255-6.25-15.232 0-6.405 2.357-11.739 7.058-16.009 4.122-3.716 8.865-5.58 14.223-5.58 3.875 0 7.522.974 10.939 2.904 3.399 1.93 6.069 4.565 7.973 7.866a21.42 21.42 0 0 1 1.778 3.915c-1.332 2.802-1.995 5.905-1.995 9.31 0 4.203 1.031 7.961 3.092 11.275v.012ZM97.867 32.58c-3.194 0-5.864 1.118-7.986 3.343-2.127 2.225-3.182 5.064-3.182 8.522s1.043 6.452 3.158 8.665c2.098 2.213 4.755 3.314 7.974 3.314 3.218 0 5.9-1.119 8.04-3.356 2.139-2.237 3.206-5.105 3.206-8.63 0-3.523-1.043-6.362-3.146-8.563-2.11-2.2-4.791-3.301-8.064-3.301v.006Zm52.307-24.44h4.701c4.411 0 5.568 1.87 5.568 5.31v24.566c-1.199 2.688-1.802 5.653-1.802 8.882 0 1.714.169 3.35.513 4.92a22.52 22.52 0 0 1-1.597 3.44c-1.935 3.367-4.551 5.989-7.871 7.895-3.327 1.888-6.986 2.839-10.987 2.839-5.889 0-10.915-2.093-15.073-6.273-4.165-4.18-6.25-9.255-6.25-15.232 0-6.405 2.356-11.739 7.057-16.009 4.122-3.716 8.866-5.58 14.223-5.58 3.882 0 7.522.974 10.939 2.904.199.108.392.223.579.343V8.141Zm-11.361 24.44c-3.194 0-5.864 1.118-7.985 3.343-2.128 2.225-3.183 5.064-3.183 8.522s1.043 6.452 3.159 8.665c2.097 2.213 4.755 3.314 7.973 3.314s5.9-1.119 8.04-3.356c2.139-2.237 3.206-5.105 3.206-8.63 0-3.523-1.043-6.362-3.146-8.563-2.109-2.2-4.791-3.301-8.064-3.301v.006Zm42.079-9.682c3.876 0 7.522.974 10.939 2.904 3.399 1.93 6.069 4.565 7.974 7.866 1.922 3.32 2.874 6.892 2.874 10.735 0 3.842-.964 7.48-2.886 10.848-1.935 3.368-4.551 5.99-7.872 7.896-3.32 1.888-6.985 2.839-10.986 2.839-5.889 0-10.915-2.093-15.073-6.273-4.165-4.18-6.25-9.255-6.25-15.232 0-6.405 2.356-11.739 7.063-16.009 4.123-3.716 8.866-5.58 14.223-5.58l-.006.006Zm.157 9.682c-3.194 0-5.864 1.118-7.985 3.343-2.128 2.225-3.183 5.064-3.183 8.522s1.043 6.452 3.158 8.665c2.098 2.213 4.756 3.314 7.974 3.314s5.9-1.119 8.04-3.356c2.139-2.237 3.206-5.105 3.206-8.63 0-3.523-1.043-6.362-3.146-8.563-2.115-2.2-4.791-3.301-8.064-3.301v.006ZM72.144 6.656c2.092 0 3.906.763 5.419 2.267 1.494 1.521 2.242 3.361 2.242 5.508s-.736 3.957-2.23 5.449c-1.495 1.51-3.279 2.255-5.34 2.255s-3.966-.764-5.46-2.297c-1.513-1.522-2.26-3.392-2.26-5.569 0-.33.018-.655.054-.974-.537 1.028-.808 2.159-.808 3.41 0 1.563.398 2.958 1.187 4.18V64.94H54.215c-3.966 0-5.617-.65-7.052-4.408L44.5 53.526h-9.39c-4.905 0-5.894-1.172-5.851-6.086l-.049-4.197h11.337l-7.359-19.015L17.325 64.94H6.35L28.335 8.07h4.032c4.87 0 6.564 2.417 8.336 7.006l11.914 31.067 2.02 18.798V8.147h4.815c2.869 0 5.087.794 5.442 3.662.362-1.076.977-2.05 1.844-2.922 1.495-1.48 3.291-2.225 5.4-2.225l.006-.006Zm5.171 16.056V37.91c-1.235 2.718-1.856 5.719-1.856 8.996 0 3.278.62 6.242 1.856 8.96v9.081H66.968V22.628c1.543 1.034 3.31 1.552 5.286 1.552 1.868 0 3.556-.488 5.063-1.462v-.006Z"/></mask><g filter="url('#filter0_i_254_17844')"><path d="M119.497 58.175v6.76h-5.358c-1.066 0-4.912-.121-4.912-2.076l-.488.29c-3.326 1.887-6.985 2.838-10.987 2.838-5.888 0-10.914-2.093-15.073-6.273-4.164-4.18-6.25-9.255-6.25-15.232 0-6.405 2.357-11.739 7.058-16.009 4.122-3.716 8.865-5.58 14.223-5.58 3.875 0 7.522.974 10.939 2.904 3.399 1.93 6.069 4.565 7.973 7.866a21.42 21.42 0 0 1 1.778 3.915c-1.332 2.802-1.995 5.905-1.995 9.31 0 4.203 1.031 7.961 3.092 11.275v.012ZM97.867 32.58c-3.194 0-5.864 1.118-7.986 3.343-2.127 2.225-3.182 5.064-3.182 8.522s1.043 6.452 3.158 8.665c2.098 2.213 4.755 3.314 7.974 3.314 3.218 0 5.9-1.119 8.04-3.356 2.139-2.237 3.206-5.105 3.206-8.63 0-3.523-1.043-6.362-3.146-8.563-2.11-2.2-4.791-3.301-8.064-3.301v.006Zm52.307-24.44h4.701c4.411 0 5.568 1.87 5.568 5.31v24.566c-1.199 2.688-1.802 5.653-1.802 8.882 0 1.714.169 3.35.513 4.92a22.52 22.52 0 0 1-1.597 3.44c-1.935 3.367-4.551 5.989-7.871 7.895-3.327 1.888-6.986 2.839-10.987 2.839-5.889 0-10.915-2.093-15.073-6.273-4.165-4.18-6.25-9.255-6.25-15.232 0-6.405 2.356-11.739 7.057-16.009 4.122-3.716 8.866-5.58 14.223-5.58 3.882 0 7.522.974 10.939 2.904.199.108.392.223.579.343V8.141Zm-11.361 24.44c-3.194 0-5.864 1.118-7.985 3.343-2.128 2.225-3.183 5.064-3.183 8.522s1.043 6.452 3.159 8.665c2.097 2.213 4.755 3.314 7.973 3.314s5.9-1.119 8.04-3.356c2.139-2.237 3.206-5.105 3.206-8.63 0-3.523-1.043-6.362-3.146-8.563-2.109-2.2-4.791-3.301-8.064-3.301v.006Zm42.079-9.682c3.876 0 7.522.974 10.939 2.904 3.399 1.93 6.069 4.565 7.974 7.866 1.922 3.32 2.874 6.892 2.874 10.735 0 3.842-.964 7.48-2.886 10.848-1.935 3.368-4.551 5.99-7.872 7.896-3.32 1.888-6.985 2.839-10.986 2.839-5.889 0-10.915-2.093-15.073-6.273-4.165-4.18-6.25-9.255-6.25-15.232 0-6.405 2.356-11.739 7.063-16.009 4.123-3.716 8.866-5.58 14.223-5.58l-.006.006Zm.157 9.682c-3.194 0-5.864 1.118-7.985 3.343-2.128 2.225-3.183 5.064-3.183 8.522s1.043 6.452 3.158 8.665c2.098 2.213 4.756 3.314 7.974 3.314s5.9-1.119 8.04-3.356c2.139-2.237 3.206-5.105 3.206-8.63 0-3.523-1.043-6.362-3.146-8.563-2.115-2.2-4.791-3.301-8.064-3.301v.006ZM72.144 6.656c2.092 0 3.906.763 5.419 2.267 1.494 1.521 2.242 3.361 2.242 5.508s-.736 3.957-2.23 5.449c-1.495 1.51-3.279 2.255-5.34 2.255s-3.966-.764-5.46-2.297c-1.513-1.522-2.26-3.392-2.26-5.569 0-.33.018-.655.054-.974-.537 1.028-.808 2.159-.808 3.41 0 1.563.398 2.958 1.187 4.18V64.94H54.215c-3.966 0-5.617-.65-7.052-4.408L44.5 53.526h-9.39c-4.905 0-5.894-1.172-5.851-6.086l-.049-4.197h11.337l-7.359-19.015L17.325 64.94H6.35L28.335 8.07h4.032c4.87 0 6.564 2.417 8.336 7.006l11.914 31.067 2.02 18.798V8.147h4.815c2.869 0 5.087.794 5.442 3.662.362-1.076.977-2.05 1.844-2.922 1.495-1.48 3.291-2.225 5.4-2.225l.006-.006Zm5.171 16.056V37.91c-1.235 2.718-1.856 5.719-1.856 8.996 0 3.278.62 6.242 1.856 8.96v9.081H66.968V22.628c1.543 1.034 3.31 1.552 5.286 1.552 1.868 0 3.556-.488 5.063-1.462v-.006Z" fill="url('#paint0_linear_254_17844')"/></g><path d="M119.497 58.175v6.76h-5.358c-1.066 0-4.912-.121-4.912-2.076l-.488.29c-3.326 1.887-6.985 2.838-10.987 2.838-5.888 0-10.914-2.093-15.073-6.273-4.164-4.18-6.25-9.255-6.25-15.232 0-6.405 2.357-11.739 7.058-16.009 4.122-3.716 8.865-5.58 14.223-5.58 3.875 0 7.522.974 10.939 2.904 3.399 1.93 6.069 4.565 7.973 7.866a21.42 21.42 0 0 1 1.778 3.915c-1.332 2.802-1.995 5.905-1.995 9.31 0 4.203 1.031 7.961 3.092 11.275v.012ZM97.867 32.58c-3.194 0-5.864 1.118-7.986 3.343-2.127 2.225-3.182 5.064-3.182 8.522s1.043 6.452 3.158 8.665c2.098 2.213 4.755 3.314 7.974 3.314 3.218 0 5.9-1.119 8.04-3.356 2.139-2.237 3.206-5.105 3.206-8.63 0-3.523-1.043-6.362-3.146-8.563-2.11-2.2-4.791-3.301-8.064-3.301v.006Zm52.307-24.44h4.701c4.411 0 5.568 1.87 5.568 5.31v24.566c-1.199 2.688-1.802 5.653-1.802 8.882 0 1.714.169 3.35.513 4.92a22.52 22.52 0 0 1-1.597 3.44c-1.935 3.367-4.551 5.989-7.871 7.895-3.327 1.888-6.986 2.839-10.987 2.839-5.889 0-10.915-2.093-15.073-6.273-4.165-4.18-6.25-9.255-6.25-15.232 0-6.405 2.356-11.739 7.057-16.009 4.122-3.716 8.866-5.58 14.223-5.58 3.882 0 7.522.974 10.939 2.904.199.108.392.223.579.343V8.141Zm-11.361 24.44c-3.194 0-5.864 1.118-7.985 3.343-2.128 2.225-3.183 5.064-3.183 8.522s1.043 6.452 3.159 8.665c2.097 2.213 4.755 3.314 7.973 3.314s5.9-1.119 8.04-3.356c2.139-2.237 3.206-5.105 3.206-8.63 0-3.523-1.043-6.362-3.146-8.563-2.109-2.2-4.791-3.301-8.064-3.301v.006Zm42.079-9.682c3.876 0 7.522.974 10.939 2.904 3.399 1.93 6.069 4.565 7.974 7.866 1.922 3.32 2.874 6.892 2.874 10.735 0 3.842-.964 7.48-2.886 10.848-1.935 3.368-4.551 5.99-7.872 7.896-3.32 1.888-6.985 2.839-10.986 2.839-5.889 0-10.915-2.093-15.073-6.273-4.165-4.18-6.25-9.255-6.25-15.232 0-6.405 2.356-11.739 7.063-16.009 4.123-3.716 8.866-5.58 14.223-5.58l-.006.006Zm.157 9.682c-3.194 0-5.864 1.118-7.985 3.343-2.128 2.225-3.183 5.064-3.183 8.522s1.043 6.452 3.158 8.665c2.098 2.213 4.756 3.314 7.974 3.314s5.9-1.119 8.04-3.356c2.139-2.237 3.206-5.105 3.206-8.63 0-3.523-1.043-6.362-3.146-8.563-2.115-2.2-4.791-3.301-8.064-3.301v.006ZM72.144 6.656c2.092 0 3.906.763 5.419 2.267 1.494 1.521 2.242 3.361 2.242 5.508s-.736 3.957-2.23 5.449c-1.495 1.51-3.279 2.255-5.34 2.255s-3.966-.764-5.46-2.297c-1.513-1.522-2.26-3.392-2.26-5.569 0-.33.018-.655.054-.974-.537 1.028-.808 2.159-.808 3.41 0 1.563.398 2.958 1.187 4.18V64.94H54.215c-3.966 0-5.617-.65-7.052-4.408L44.5 53.526h-9.39c-4.905 0-5.894-1.172-5.851-6.086l-.049-4.197h11.337l-7.359-19.015L17.325 64.94H6.35L28.335 8.07h4.032c4.87 0 6.564 2.417 8.336 7.006l11.914 31.067 2.02 18.798V8.147h4.815c2.869 0 5.087.794 5.442 3.662.362-1.076.977-2.05 1.844-2.922 1.495-1.48 3.291-2.225 5.4-2.225l.006-.006Zm5.171 16.056V37.91c-1.235 2.718-1.856 5.719-1.856 8.996 0 3.278.62 6.242 1.856 8.96v9.081H66.968V22.628c1.543 1.034 3.31 1.552 5.286 1.552 1.868 0 3.556-.488 5.063-1.462v-.006Z" stroke="#fff" stroke-width="12" stroke-linejoin="round" mask="url('#path-2-outside-1_254_17844')"/><defs><linearGradient id="paint0_linear_254_17844" x1="112.548" y1="6.908" x2="112.548" y2="65.842" gradientUnits="userSpaceOnUse"><stop stop-color="#D11637"/><stop offset="1" stop-color="#D31B35"/></linearGradient><filter id="filter0_i_254_17844" x=".35" y="-2.844" width="208.33" height="74.837" filterUnits="userSpaceOnUse" color-interpolation-filters="sRGB"><feFlood flood-opacity="0" result="BackgroundImageFix"/><feBlend in="SourceGraphic" in2="BackgroundImageFix" result="shape"/><feColorMatrix in="SourceAlpha" values="0 0 0 0 0 0 0 0 0 0 0 0 0 0 0 0 0 0 127 0" result="hardAlpha"/><feOffset dy="-8"/><feGaussianBlur stdDeviation="1.75"/><feComposite in2="hardAlpha" operator="arithmetic" k2="-1" k3="1"/><feColorMatrix values="0 0 0 0 0.611765 0 0 0 0 0.12549 0 0 0 0 0.188235 0 0 0 1 0"/><feBlend in2="shape" result="effect1_innerShadow_254_17844"/></filter></defs></svg>