<svg width="514" height="514" fill="none" xmlns="http://www.w3.org/2000/svg"><circle cx="257" cy="257" r="257" fill="url('#paint0_linear_392_12555')"/><path d="M257 466a209.006 209.006 0 0 0 147.785-61.215A208.983 208.983 0 0 0 466 257H257v209Z" fill="url('#paint1_linear_392_12555')"/><path d="M48 257a209.002 209.002 0 0 0 209 209V257H48Z" fill="#0E39A1"/><path d="M48 257A209.002 209.002 0 0 1 257 48v209H48Z" fill="url('#paint2_linear_392_12555')"/><path d="M466 257a209.006 209.006 0 0 0-61.215-147.785A208.988 208.988 0 0 0 257 48v209h209Z" fill="url('#paint3_linear_392_12555')"/><path d="M156.1 129.294h18.495v112.797H156.1V129.294Z" fill="url('#paint4_linear_392_12555')"/><path d="M225 129.563h-.199c-32.483 0-58.856 26.409-58.856 58.937v.703h.2c32.482 0 58.855-26.409 58.855-58.937v-.703Z" fill="url('#paint5_linear_392_12555')"/><path d="M166.855 189.203h.2v-.703c0-32.528-26.373-58.937-58.856-58.937H108v.703c0 32.528 26.373 58.937 58.855 58.937Z" fill="url('#paint6_linear_392_12555')"/><path d="M225 75h-.199c-32.483 0-58.856 26.409-58.856 58.937v.703h.2c32.482 0 58.855-26.409 58.855-58.937V75Z" fill="url('#paint7_linear_392_12555')"/><path d="M166.855 134.649h.2v-.703c0-32.528-26.373-58.937-58.856-58.937H108v.703c0 32.527 26.373 58.937 58.855 58.937Z" fill="url('#paint8_linear_392_12555')"/><path d="M225 187.085h-.199c-32.483 0-58.856 26.409-58.856 58.937v.703h.2c32.482 0 58.855-26.409 58.855-58.937v-.703Z" fill="url('#paint9_linear_392_12555')"/><path d="M166.855 246.725h.2v-.703c0-32.528-26.373-58.937-58.856-58.937H108v.703c0 32.528 26.373 58.937 58.855 58.937Z" fill="url('#paint10_linear_392_12555')"/><path d="M411 217.162h-9.829C342.02 217.162 294 169.075 294 109.843V100h9.829C362.98 100 411 148.087 411 207.319v9.843Z" fill="url('#paint11_linear_392_12555')"/><defs><linearGradient id="paint0_linear_392_12555" x1="117.5" y1="0" x2="371.5" y2="514" gradientUnits="userSpaceOnUse"><stop stop-color="#FFE323"/><stop offset="1" stop-color="#FAA61B"/></linearGradient><linearGradient id="paint1_linear_392_12555" x1="466" y1="244" x2="257" y2="466" gradientUnits="userSpaceOnUse"><stop stop-color="#178D48"/><stop offset="1" stop-color="#6FB741"/></linearGradient><linearGradient id="paint2_linear_392_12555" x1="257" y1="48" x2="122.5" y2="292.5" gradientUnits="userSpaceOnUse"><stop stop-color="#FEF100"/><stop offset="1" stop-color="#1D9045"/></linearGradient><linearGradient id="paint3_linear_392_12555" x1="227" y1="76" x2="523.5" y2="257" gradientUnits="userSpaceOnUse"><stop stop-color="#1555A2"/><stop offset="1" stop-color="#014380"/></linearGradient><linearGradient id="paint4_linear_392_12555" x1="174.647" y1="191.267" x2="156.152" y2="191.267" gradientUnits="userSpaceOnUse"><stop stop-color="#F9A51A"/><stop offset=".99" stop-color="#FFF100"/></linearGradient><linearGradient id="paint5_linear_392_12555" x1="225.035" y1="159.4" x2="165.98" y2="159.4" gradientUnits="userSpaceOnUse"><stop stop-color="#008349"/><stop offset="1" stop-color="#8CC53F"/></linearGradient><linearGradient id="paint6_linear_392_12555" x1="107.991" y1="159.383" x2="167.055" y2="159.383" gradientUnits="userSpaceOnUse"><stop stop-color="#008349"/><stop offset="1" stop-color="#8CC53F"/></linearGradient><linearGradient id="paint7_linear_392_12555" x1="225.035" y1="104.855" x2="165.98" y2="104.855" gradientUnits="userSpaceOnUse"><stop stop-color="#008349"/><stop offset="1" stop-color="#8CC53F"/></linearGradient><linearGradient id="paint8_linear_392_12555" x1="107.991" y1="104.829" x2="167.055" y2="104.829" gradientUnits="userSpaceOnUse"><stop stop-color="#008349"/><stop offset="1" stop-color="#8CC53F"/></linearGradient><linearGradient id="paint9_linear_392_12555" x1="225.043" y1="216.931" x2="165.98" y2="216.931" gradientUnits="userSpaceOnUse"><stop stop-color="#008349"/><stop offset="1" stop-color="#8CC53F"/></linearGradient><linearGradient id="paint10_linear_392_12555" x1="107.991" y1="216.905" x2="167.055" y2="216.905" gradientUnits="userSpaceOnUse"><stop stop-color="#008349"/><stop offset="1" stop-color="#8CC53F"/></linearGradient><linearGradient id="paint11_linear_392_12555" x1="410.766" y1="158.789" x2="293.749" y2="158.789" gradientUnits="userSpaceOnUse"><stop stop-color="#008349"/><stop offset="1" stop-color="#8CC53F"/></linearGradient></defs></svg>