<svg width="372" height="17" fill="none" xmlns="http://www.w3.org/2000/svg"><path d="M270.257 7.554c-8.315.098-16.669-.12-24.918-.38-8.925-.282-17.824-.651-26.682-1.056-16.63-.76-33.181-1.675-49.678-2.63-9.495-.55-18.924-1.158-28.513-1.578a829.682 829.682 0 0 0-28.751-.785 583.984 583.984 0 0 0-47.343 1.447C44.479 4.002 25.622 6.364 7.85 9.164 5.21 9.58 2.586 10.007 0 10.44c40.54-2.124 81.903-1.364 122.338.54 33.883 1.595 67.263 3.96 101.292 5.339 23.565.955 47.781 1.035 70.976-.611 21.218-1.505 40.951-4.429 56.825-8.564 7.758-2.019 15.065-4.348 20.171-6.939.133-.069.279-.137.398-.206-3.886 1.064-8.872 1.881-13.659 2.598-14.084 2.112-29.852 3.353-45.633 4.088-14.005.655-28.248.9-42.451.868Z" fill="url('#paint0_linear_324_10710')"/><defs><linearGradient id="paint0_linear_324_10710" x1="0" y1="8.498" x2="371.987" y2="8.498" gradientUnits="userSpaceOnUse"><stop stop-color="#85BB40"/><stop offset=".15" stop-color="#FBDE00"/><stop offset=".6" stop-color="#FBD900"/><stop offset=".64" stop-color="#F7D803"/><stop offset=".67" stop-color="#ECD60F"/><stop offset=".71" stop-color="#DAD422"/><stop offset=".74" stop-color="#C0D03E"/><stop offset=".78" stop-color="#9FCB61"/><stop offset=".81" stop-color="#77C58C"/><stop offset=".84" stop-color="#48BEBE"/><stop offset=".87" stop-color="#1EB8EB"/><stop offset=".89" stop-color="#1EADE2"/><stop offset=".92" stop-color="#1E93CC"/><stop offset=".96" stop-color="#1E67A9"/><stop offset="1" stop-color="#1E458D"/></linearGradient></defs></svg>