<svg width="131" height="97" fill="none" xmlns="http://www.w3.org/2000/svg"><g clip-path="url('#clip0_506_26326')"><path d="M32.425 22.626a.412.412 0 0 1-.326-.157 28.076 28.076 0 0 0-.81-.955.428.428 0 0 1 .033-.602.415.415 0 0 1 .593.032c.28.315.56.644.836.983a.428.428 0 0 1-.326.695v.004ZM6.282 39.669a.419.419 0 0 1-.354-.195 21.403 21.403 0 0 1-1.222-2.178.43.43 0 0 1 .197-.57.427.427 0 0 1 .565.195c.34.7.731 1.404 1.172 2.085.124.2.07.459-.124.588a.428.428 0 0 1-.23.07l-.004.005Zm-2.11-4.402a.414.414 0 0 1-.4-.292 16.383 16.383 0 0 1-.597-2.438.428.428 0 0 1 .345-.49.423.423 0 0 1 .487.347c.129.774.322 1.552.57 2.312a.429.429 0 0 1-.4.56h-.004Zm-.799-4.815a.423.423 0 0 1-.423-.426v-.125c0-.797.065-1.599.184-2.382a.414.414 0 0 1 .483-.352c.23.037.386.255.349.487A14.672 14.672 0 0 0 3.79 29.9v.125a.423.423 0 0 1-.423.426h.005Zm.754-4.814a.426.426 0 0 1-.4-.56c.257-.788.588-1.567.979-2.313a.425.425 0 0 1 .57-.18.425.425 0 0 1 .174.574 14.42 14.42 0 0 0-.924 2.187.418.418 0 0 1-.4.292Zm2.247-4.319a.424.424 0 0 1-.34-.676 15.582 15.582 0 0 1 1.65-1.886.418.418 0 0 1 .592.01c.161.166.161.435-.009.602a14.727 14.727 0 0 0-1.558 1.788.417.417 0 0 1-.335.172v-.01Zm23.519-1.399a.426.426 0 0 1-.285-.111 20.61 20.61 0 0 0-1.847-1.51.426.426 0 0 1-.097-.594c.133-.19.4-.236.588-.097.653.473 1.3 1 1.926 1.575.17.158.183.427.027.603a.417.417 0 0 1-.312.139v-.005ZM9.848 17.923a.412.412 0 0 1-.345-.18.43.43 0 0 1 .101-.594 15.96 15.96 0 0 1 2.146-1.283.418.418 0 0 1 .566.194.433.433 0 0 1-.194.57 14.81 14.81 0 0 0-2.03 1.214.435.435 0 0 1-.244.079Zm16.102-.843a.37.37 0 0 1-.198-.051 15.514 15.514 0 0 0-2.16-.978.427.427 0 0 1 .29-.802c.767.283 1.53.626 2.27 1.03.202.11.28.37.17.574a.42.42 0 0 1-.372.222v.005Zm-11.76-1.302a.423.423 0 0 1-.124-.83c.8-.245 1.623-.426 2.44-.533a.424.424 0 0 1 .11.844 14.14 14.14 0 0 0-2.306.505.384.384 0 0 1-.124.018l.005-.004Zm7.21-.362c-.027 0-.055 0-.082-.009a14.306 14.306 0 0 0-2.344-.269.427.427 0 0 1-.409-.44.436.436 0 0 1 .437-.412c.827.027 1.663.125 2.481.287.23.046.377.269.331.5a.423.423 0 0 1-.413.343ZM7.752 43.635a.43.43 0 0 1-.335-.69c.188-.241.377-.482.57-.723a16.739 16.739 0 0 1-.593-.714.428.428 0 0 1 .06-.598.42.42 0 0 1 .593.06c.257.32.523.64.808.955a.431.431 0 0 1 .01.556c-.272.33-.534.658-.786.987a.419.419 0 0 1-.331.162l.004.005ZM22.274 83.549a.425.425 0 0 1-.005-.853c.837-.009 1.687-.07 2.518-.18a.416.416 0 0 1 .474.366.43.43 0 0 1-.363.477c-.864.111-1.747.176-2.615.185l-.01.005Zm-2.57-.12h-.045a23.165 23.165 0 0 1-2.587-.427.42.42 0 0 1-.317-.505.42.42 0 0 1 .5-.32c.819.186 1.66.325 2.491.413a.426.426 0 0 1-.041.848v-.01Zm7.67-.543a.423.423 0 0 1-.1-.834 21.705 21.705 0 0 0 2.412-.76.416.416 0 0 1 .542.25.425.425 0 0 1-.248.547c-.822.31-1.663.575-2.504.788a.383.383 0 0 1-.101.014v-.005Zm-12.683-.588a.478.478 0 0 1-.138-.023 23.648 23.648 0 0 1-2.421-1.015.432.432 0 0 1-.198-.57.427.427 0 0 1 .565-.2c.754.372 1.54.7 2.335.979a.424.424 0 0 1-.138.824l-.005.005Zm17.5-1.228a.425.425 0 0 1-.193-.802c.744-.38 1.48-.81 2.187-1.278a.425.425 0 0 1 .46.713c-.736.482-1.499.927-2.266 1.32a.395.395 0 0 1-.193.047h.005Zm-22.123-1.038a.437.437 0 0 1-.225-.065A21.978 21.978 0 0 1 7.72 78.41a.428.428 0 0 1-.06-.597.42.42 0 0 1 .593-.06 21.688 21.688 0 0 0 2.045 1.496.425.425 0 0 1-.225.783h-.005Zm26.433-1.788a.419.419 0 0 1-.326-.158.428.428 0 0 1 .064-.598 28.298 28.298 0 0 0 1.898-1.696.423.423 0 1 1 .588.612 28.954 28.954 0 0 1-1.958 1.751.407.407 0 0 1-.266.093v-.005ZM6.093 76.742a.43.43 0 0 1-.303-.13 21.855 21.855 0 0 1-1.69-2.024.425.425 0 0 1 .086-.594.417.417 0 0 1 .589.088c.496.677 1.043 1.33 1.626 1.947.161.171.152.44-.013.602a.42.42 0 0 1-.29.116l-.005-.005Zm-3.06-4.16a.422.422 0 0 1-.368-.219 20.323 20.323 0 0 1-1.14-2.39.425.425 0 0 1 .235-.552.417.417 0 0 1 .547.236 19.69 19.69 0 0 0 1.094 2.29.428.428 0 0 1-.368.634Zm-1.93-4.806a.423.423 0 0 1-.41-.315c-.22-.848-.39-1.719-.505-2.6a.421.421 0 1 1 .836-.111c.111.844.276 1.682.488 2.493a.424.424 0 0 1-.405.533h-.004Zm-.68-5.134A.424.424 0 0 1 0 62.225v-.255c0-.783.041-1.584.12-2.386a.409.409 0 0 1 .464-.38c.23.023.4.232.376.468-.078.774-.119 1.548-.119 2.298v.246a.426.426 0 0 1-.414.43H.423v-.004Zm.519-5.157c-.028 0-.06 0-.087-.01a.43.43 0 0 1-.327-.504c.18-.844.4-1.701.667-2.554a.423.423 0 0 1 .528-.278c.22.07.345.31.276.533a27.676 27.676 0 0 0-.648 2.475.423.423 0 0 1-.414.338h.005Zm1.54-4.953a.428.428 0 0 1-.39-.588c.325-.798.693-1.6 1.097-2.387a.42.42 0 0 1 .565-.186c.207.107.29.362.184.57a31.73 31.73 0 0 0-1.066 2.326.429.429 0 0 1-.39.265Zm2.334-4.625a.401.401 0 0 1-.216-.06.43.43 0 0 1-.143-.584c.442-.737.92-1.478 1.416-2.2a.419.419 0 0 1 .588-.107.427.427 0 0 1 .106.593 39.635 39.635 0 0 0-1.388 2.154.416.416 0 0 1-.363.204ZM40.223 74.592a.423.423 0 0 1-.322-.7c.272-.315.534-.64.796-.973a.42.42 0 0 1 .592-.07.429.429 0 0 1 .07.598 30.18 30.18 0 0 1-.819.997.42.42 0 0 1-.317.148ZM117.205 43.357a.404.404 0 0 1-.244-.08.422.422 0 0 1-.101-.592c.244-.348.469-.695.685-1.047a.414.414 0 0 1 .579-.14.426.426 0 0 1 .138.585c-.221.366-.46.727-.713 1.088a.422.422 0 0 1-.344.181v.005ZM119.052 40.127a.46.46 0 0 1-.175-.037.427.427 0 0 1-.206-.565 17.92 17.92 0 0 0 .841-2.238.422.422 0 0 1 .523-.283c.221.07.35.306.281.528a18.972 18.972 0 0 1-.883 2.345.418.418 0 0 1-.381.25Zm1.397-4.68h-.064a.423.423 0 0 1-.354-.482c.119-.788.179-1.59.179-2.377a.424.424 0 1 1 .846 0c0 .834-.065 1.673-.189 2.507a.425.425 0 0 1-.418.361v-.009Zm0-4.884a.42.42 0 0 1-.418-.361 16.197 16.197 0 0 0-.529-2.326.428.428 0 0 1 .276-.533c.221-.07.46.055.529.278.248.797.436 1.622.56 2.451a.427.427 0 0 1-.354.487h-.064v.004Zm-1.434-4.666a.423.423 0 0 1-.381-.24 17.035 17.035 0 0 0-1.177-2.077.427.427 0 0 1 .115-.588.42.42 0 0 1 .584.116c.459.695.878 1.432 1.232 2.178a.427.427 0 0 1-.382.607l.009.004Zm-2.688-4.063a.404.404 0 0 1-.312-.144 16.727 16.727 0 0 0-1.696-1.673.423.423 0 0 1-.046-.598c.152-.18.418-.199.593-.046a18.194 18.194 0 0 1 1.773 1.752.426.426 0 0 1-.032.597.407.407 0 0 1-.28.107v.005Zm-3.685-3.174a.425.425 0 0 1-.23-.07 17.62 17.62 0 0 0-2.077-1.154.423.423 0 0 1-.203-.565.417.417 0 0 1 .561-.204c.745.352 1.48.755 2.174 1.21.197.125.252.389.124.588a.425.425 0 0 1-.354.195h.005Zm-16.314-1.59a.42.42 0 0 1-.395-.273.426.426 0 0 1 .243-.547 20.992 20.992 0 0 1 2.372-.746.422.422 0 0 1 .51.31.426.426 0 0 1-.308.515c-.763.19-1.526.426-2.27.713a.438.438 0 0 1-.152.028Zm11.92-.477a.388.388 0 0 1-.124-.019 17.185 17.185 0 0 0-2.307-.546.424.424 0 0 1-.349-.487.414.414 0 0 1 .483-.352c.813.134 1.631.329 2.421.575.221.069.35.305.281.532a.424.424 0 0 1-.405.302v-.005Zm-7.21-.681a.426.426 0 0 1-.046-.848 18.87 18.87 0 0 1 2.036-.111h.45c.235.009.419.204.409.44 0 .236-.183.44-.432.417h-.427a17.082 17.082 0 0 0-1.939.102h-.051ZM92.992 18.692a.401.401 0 0 1-.216-.06.415.415 0 0 1-.202-.38c.018-.427.023-.844.014-1.256 0-.236.179-.426.413-.431h.01c.23 0 .418.185.422.417v.547c.16-.088.317-.172.478-.255a.42.42 0 0 1 .57.18.432.432 0 0 1-.184.575c-.363.19-.726.394-1.09.607a.43.43 0 0 1-.21.06l-.005-.004ZM92.794 14.902a.421.421 0 0 1-.418-.362 17.909 17.909 0 0 0-.533-2.395.423.423 0 0 1 .28-.528c.22-.07.46.06.524.282.244.811.432 1.659.56 2.516a.42.42 0 0 1-.353.482h-.064l.004.005ZM58.03 13.498a.485.485 0 0 1-.115-.014.428.428 0 0 1-.294-.524c.235-.839.52-1.654.855-2.428a.424.424 0 0 1 .556-.218.428.428 0 0 1 .216.561 17.89 17.89 0 0 0-.818 2.317.423.423 0 0 1-.404.31l.004-.004Zm33.303-3.392a.429.429 0 0 1-.382-.241 15.253 15.253 0 0 0-1.236-2.104.43.43 0 0 1 .097-.593.42.42 0 0 1 .588.102c.492.7.933 1.446 1.31 2.224a.433.433 0 0 1-.193.57.442.442 0 0 1-.184.042Zm-31.3-1.2a.425.425 0 0 1-.358-.649 16.35 16.35 0 0 1 1.526-2.076.419.419 0 0 1 .593-.041.423.423 0 0 1 .041.597 16.4 16.4 0 0 0-1.447 1.97.415.415 0 0 1-.359.199h.005Zm28.419-2.887a.415.415 0 0 1-.3-.125 14.968 14.968 0 0 0-1.842-1.599.43.43 0 0 1-.092-.593c.138-.19.4-.227.588-.092.694.514 1.347 1.08 1.944 1.686a.432.432 0 0 1 0 .603.413.413 0 0 1-.294.125l-.004-.005ZM63.297 5.12a.422.422 0 0 1-.272-.746 17.23 17.23 0 0 1 2.068-1.515.415.415 0 0 1 .58.139c.119.2.06.463-.139.584-.693.435-1.355.917-1.966 1.44a.404.404 0 0 1-.271.103V5.12Zm21.147-2.076a.382.382 0 0 1-.197-.05 17.19 17.19 0 0 0-2.229-.992.431.431 0 0 1-.253-.547.423.423 0 0 1 .543-.255c.804.297 1.59.644 2.334 1.043a.425.425 0 0 1 .175.574.418.418 0 0 1-.373.227Zm-16.92-.57a.427.427 0 0 1-.17-.816 19.517 19.517 0 0 1 2.404-.875.42.42 0 0 1 .523.292.422.422 0 0 1-.289.524c-.79.227-1.562.51-2.298.834a.432.432 0 0 1-.17.037v.004Zm12.238-1.149c-.028 0-.06 0-.092-.01a20.044 20.044 0 0 0-2.417-.384.428.428 0 0 1-.382-.463.416.416 0 0 1 .46-.385c.845.08 1.69.214 2.518.399a.427.427 0 0 1 .322.505.418.418 0 0 1-.41.334v.004Zm-7.45-.245a.427.427 0 0 1-.064-.848C73.08.102 73.935.023 74.79 0c.27.01.427.18.431.412a.426.426 0 0 1-.409.436c-.817.023-1.635.097-2.435.222-.023 0-.046.005-.064.005v.005ZM57.355 17.26h-.037a.425.425 0 0 1-.381-.463c.041-.44.092-.872.151-1.293a.408.408 0 0 1 .478-.357c.23.033.39.25.354.482a21 21 0 0 0-.147 1.246.418.418 0 0 1-.418.385Z" fill="#fff"/><path d="M35.747 28.692c2.178 4.318 5.639 4.272 6.903 4.03 1.544-.291 5.44-1.241 1.645-11.81-1.623-4.514-3.171-9.207-7.652-9.314-3.648-.088-4.37 2.29-2.56 5.148 2.551 4.017 4.803 3.522 4.546 4.578-.258 1.056-5.359 2.47-2.886 7.372l.004-.005Zm2.404-10.871c-.772-.894-.846-2.4-.083-2.734.763-.333 1.264.644 1.829 1.552 1.084 1.729 1.218 2.512.597 2.744-.62.231-1.571-.668-2.343-1.562Zm.845 8.493c-.1-3.243 1.383-3.049 2.036-2.872.565.152.818 1.719 1.117 3.368.63 3.47-.184 3.517-.547 3.568-.363.051-2.518-1.098-2.61-4.068l.004.004ZM116.093 48.292c-.86.45-1.508.95-1.512 3.521-.005 2.572-.63 12.817 3.042 13.558 3.672.742 5.321-1.279 5.666-1.552.345-.273 1.696-1.552 2.017.463.506 3.156.414 15.588-4.935 17.469-2.284.802-5.22.51-6.103-1.288-1.608-3.271-6.672-1.024-4.724 2.613 2.1 3.92 9.719 4.365 13.979 2.03 5.79-3.174 6.466-11.014 6.939-19.855.359-6.687.529-14.805.542-15.384.083-3.415-4.31-2.58-5.505.862-1.388 3.999-2.569 6.89-3.345 8.215-1.301 2.22-2.114 1.265-2.261-1.089-.055-.884-.005-7.237-.069-8.233-.064-.997-.97-2.762-3.727-1.326l-.004-.004ZM68.292 75.584c-1.333-1.427 2.853-2.502 3.685-10.824.588-5.917-2.647-9.013-8.667-5.89-7.394 3.832-5.974 12.386-4.825 20.717C61.17 99.095 68.494 97.38 71.32 96.57c2.316-.668 8.134-3.425 8.083-11.909-.055-9.633-9.774-7.645-11.107-9.073l-.004-.004ZM63.526 74.1c-1.231.148-1.672-1.177-1.342-4.75.175-1.871.175-3.804 1.733-3.906 1.558-.101 2.72 2.29 2.192 4.31-.529 2.02-1.351 4.193-2.583 4.341v.005Zm7.541 17.974c-.648.218-2.045.815-3.96-5.088-.91-2.813-1.825-5.444-1.012-6.144.942-.81 3.254-2.33 5.855 2.785 2.385 4.684-.24 8.23-.887 8.447h.004Z" fill="#8F70A9"/><path d="M106.948 59.945c-.823-1.084 2.408-3.17 3.607-9.346 1.03-5.31-1.695-8.498-6.663-6.186-5.597 2.604-5.404 10.57-4.922 18.076 1.131 17.57 7.064 16.602 9.361 16.093 1.884-.417 6.645-2.178 7.063-9.736.52-9.41-7.421-7.557-8.446-8.9Zm-3.667-1.955c-.988.037-1.278-1.172-.823-4.328.235-1.65.336-3.373 1.581-3.346 1.25.028 2.054 2.243 1.526 4.004-.529 1.76-1.296 3.633-2.284 3.67Zm5.082 16.574c-.528.144-1.677.57-2.895-4.833-.579-2.571-1.07-4.907-.298-5.333.772-.43 3.042-1.052 4.494 2.715 1.53 3.967-.777 7.308-1.301 7.451ZM94.494 59.765c1.25-.538 2.799.218 2.707 3.248-.198 6.505.97 13.52 1.645 16.444.253 1.094 1.962 4.532-1.659 5.621-3.295.987-4.016-3.656-4.071-4.786-.074-1.493-1.475-1.539-1.953-.695-.483.843-1.802 2.265-3.81 3.132-2.716 1.172-9.816 1.849-8.032-10.17C81.066 60.802 89.38 61.39 91.493 61.043c1.452-.237 2.127-.904 3-1.28Zm-5.326 4.772c-2.624-.199-4.466 3.87-4.558 8.007-.092 4.138.413 5.885 1.429 6.126 1.273.306 1.797-.408 3.704-7.752 1.287-4.94 1.346-6.237-.575-6.385v.004Z" fill="#8F70A9"/><path d="M77.703 23.552c-.772.58-1.328 1.177-.914 3.684.413 2.507 1.484 12.594 5.224 12.71 3.741.111 5.037-2.136 5.331-2.456.294-.324 1.416-1.793 2.064.116 1.02 2.993 2.968 15.124-2 17.849-2.118 1.163-5.064 1.367-6.23-.241-2.124-2.924-6.751.111-4.233 3.336 2.711 3.47 10.298 2.637 14.121-.347 5.188-4.06 4.568-11.812 3.585-20.509-.745-6.575-1.912-14.522-1.995-15.082-.478-3.346-4.673-1.798-5.284 1.756-.713 4.128-1.402 7.14-1.949 8.567-.919 2.382-1.88 1.585-2.408-.685-.197-.853-1.195-7.053-1.42-8.017-.225-.963-1.41-2.53-3.892-.671v-.01ZM29.833 48.31c-1.438-1.673 3.102-2.873 4.03-12.53.662-6.862-2.826-10.495-9.356-6.931-8.019 4.374-6.516 14.313-5.308 24.002 2.822 22.681 10.758 20.768 13.819 19.855 2.509-.746 8.818-3.888 8.8-13.739-.018-11.185-10.551-8.984-11.985-10.657Zm-5.151-1.77c-1.333.157-1.806-1.381-1.434-5.528.198-2.169.202-4.416 1.889-4.518 1.686-.102 2.936 2.688 2.357 5.028-.579 2.344-1.48 4.856-2.812 5.013v.005Zm8.083 20.953c-.698.246-2.22.922-4.264-5.954-.975-3.276-1.954-6.339-1.067-7.145 1.025-.932 3.53-2.67 6.324 3.299 2.56 5.468-.294 9.554-.993 9.8ZM51.675 18.34c-.63-.88 1.645-1.27 2.523-5.96.625-3.33-.928-5.263-4.283-3.808-4.117 1.789-3.814 6.724-3.649 11.524.395 11.236 4.366 10.648 5.905 10.337 1.264-.254 4.49-1.515 4.908-6.338.478-5.477-4.775-4.87-5.409-5.75l.005-.005Zm-2.445-1.098c-.661.018-.827-.756-.46-2.771.194-1.052.295-2.155 1.122-2.127.832.023 1.319 1.446.933 2.567-.386 1.121-.938 2.312-1.595 2.33Zm3.047 10.62c-.354.088-1.126.352-1.829-3.105-.335-1.645-.68-3.192-.211-3.549.542-.412 1.847-1.15 2.954 1.895 1.016 2.79-.56 4.666-.914 4.759Z" fill="#502866"/><path d="M69.647 35.702c-.928-1.089 2.353-3.475 3.258-10.046.777-5.648-2.274-8.84-7.37-6.116-5.74 3.067-5.074 11.44-4.132 19.308 2.21 18.423 8.396 17.052 10.781 16.38 1.958-.547 6.87-2.683 6.87-10.657 0-9.935-8.249-7.516-9.402-8.87h-.005Zm-3.975-1.84c-1.038.098-1.41-1.158-1.116-4.508.151-1.752.156-3.568 1.47-3.614 1.315-.047 2.289 2.242 1.838 4.123-.45 1.882-1.153 3.897-2.192 3.995v.004Zm6.31 17.14c-.547.185-1.728.7-3.327-4.912-.763-2.673-1.411-5.097-.625-5.597.786-.496 3.143-1.288 4.89 2.595 1.837 4.082-.391 7.733-.938 7.919v-.005ZM56.647 31.852c1.26-.524 2.799.245 2.675 3.275-.262 6.501.84 13.526 1.488 16.46.244 1.097 1.921 4.55-1.709 5.601-3.304.955-3.98-3.693-4.026-4.828-.06-1.492-1.456-1.552-1.948-.714-.492.839-1.824 2.248-3.842 3.096-2.73 1.149-9.83 1.751-7.931-10.25 1.856-11.737 10.165-11.07 12.283-11.394 1.452-.222 2.137-.885 3.01-1.251v.005Zm-5.372 4.721c-2.624-.227-4.503 3.823-4.637 7.96-.128 4.139.359 5.89 1.37 6.14 1.273.32 1.801-.389 3.777-7.715 1.333-4.925 1.406-6.223-.514-6.39l.004.005ZM54.359 69.958c-.308-.185-.501-.31-.942-.542-.11-.056-.248-.125-.161-.505s.349-1.89.027-3.313c-.321-1.423-1.387-1.219-1.705-1.061-.317.157-1.236.648-1.08 1.487.083.436.212 1.196.212 1.196s-1.719-1.678-1.944-1.96c-.225-.283-.436-.278-.115-1.01.326-.733 1.02-2.345 1.03-3.41.004-1.145-.455-2.99-2.537-2.526-2.256.505-2.886 2.108-2.992 3.475-.114 1.506.662 2.743.85 3.082.189.338.442.63.102 1.385-.34.76-2.523 5.083-.023 6.751 2.5 1.668 5.804-.417 6.318-.885.52-.468.506-.575.892-.38.386.2 2.164 1.098 2.932.056.767-1.043-.556-1.664-.864-1.844v.004Zm-4.403.667c-.165.27-1.14 1.608-2.706.612-1.053-.667-.106-3.503-.106-3.503.85.75 2.486 2.192 2.624 2.294.142.106.354.329.193.597h-.005Z" fill="#502866"/></g><defs><clipPath id="clip0_506_26326"><path fill="#fff" d="M0 0h131v97H0z"/></clipPath></defs></svg>