<svg width="1921" height="78" fill="none" xmlns="http://www.w3.org/2000/svg"><g clip-path="url('#clip0_405_9962')"><mask id="mask0_405_9962" style="mask-type:alpha" maskUnits="userSpaceOnUse" x="-150" y="12" width="2165" height="67"><path fill-rule="evenodd" clip-rule="evenodd" d="M-150 19.81v58.5h2165V33.833S1512 61.6 937.5 29.309s-1087.5-9.5-1087.5-9.5Z" fill="#D9D9D9"/></mask><g mask="url('#mask0_405_9962')"><path d="M-142.95-55.69 2010.59 23.64l-1.63 44.368S1505.27 77.24 932.352 23.82C359.43-29.598-144.251-20.367-144.251-20.367l1.301-35.324Z" fill="url('#paint0_linear_405_9962')"/><path d="m-145 23.024 2153.58-78.1 1.61 44.37S1508.53 35.27 933.237 23.82C357.944 12.371-143.719 58.35-143.719 58.35L-145 23.024Z" fill="url('#paint1_linear_405_9962')"/></g></g><defs><linearGradient id="paint0_linear_405_9962" x1="-143.972" y1="-27.966" x2="2009.49" y2="51.364" gradientUnits="userSpaceOnUse"><stop stop-color="#85BB40"/><stop offset=".15" stop-color="#FBDE00"/><stop offset=".6" stop-color="#FBD900"/><stop offset=".64" stop-color="#F7D803"/><stop offset=".67" stop-color="#ECD60F"/><stop offset=".71" stop-color="#DAD422"/><stop offset=".74" stop-color="#C0D03E"/><stop offset=".78" stop-color="#9FCB61"/><stop offset=".81" stop-color="#77C58C"/><stop offset=".84" stop-color="#48BEBE"/><stop offset=".87" stop-color="#1EB8EB"/><stop offset=".89" stop-color="#1EADE2"/><stop offset=".92" stop-color="#1E93CC"/><stop offset=".96" stop-color="#1E67A9"/><stop offset="1" stop-color="#1E458D"/></linearGradient><linearGradient id="paint1_linear_405_9962" x1="-143.995" y1="50.75" x2="2009.51" y2="-27.347" gradientUnits="userSpaceOnUse"><stop stop-color="#85BB40"/><stop offset=".15" stop-color="#FBDE00"/><stop offset=".6" stop-color="#FBD900"/><stop offset=".64" stop-color="#F7D803"/><stop offset=".67" stop-color="#ECD60F"/><stop offset=".71" stop-color="#DAD422"/><stop offset=".74" stop-color="#C0D03E"/><stop offset=".78" stop-color="#9FCB61"/><stop offset=".81" stop-color="#77C58C"/><stop offset=".84" stop-color="#48BEBE"/><stop offset=".87" stop-color="#1EB8EB"/><stop offset=".89" stop-color="#1EADE2"/><stop offset=".92" stop-color="#1E93CC"/><stop offset=".96" stop-color="#1E67A9"/><stop offset="1" stop-color="#1E458D"/></linearGradient><clipPath id="clip0_405_9962"><path fill="#fff" d="M0 0h1921v78H0z"/></clipPath></defs></svg>