<svg width="166" height="81" fill="none" xmlns="http://www.w3.org/2000/svg"><g clip-path="url('#clip0_506_26319')" fill="#B3CA00"><path d="M136.282 16.881c.252.147.638.217 1.135.217.435 0 .778-.063 1.052-.189.266-.126.399-.287.399-.49 0-.09-.028-.16-.077-.202-.049-.042-.133-.063-.238-.063-.056 0-.119 0-.182.007-.063 0-.127.007-.183.007-.056 0-.119 0-.182.007-.063 0-.126.007-.182.007-.07 0-.14 0-.203-.007-.063 0-.133-.007-.204-.007-.091-.014-.189-.021-.287-.035a3.622 3.622 0 0 1-.287-.035 3.547 3.547 0 0 0-.449-.077c-.147-.014-.273-.028-.378-.028-.035 0-.063.021-.084.056a.343.343 0 0 0-.036.175c0 .287.127.51.386.657ZM146.459 10.902c.175 0 .343-.112.498-.329.161-.223.28-.461.378-.734.056-.16.105-.322.14-.468.035-.147.049-.28.049-.385v-.014a.844.844 0 0 0-.084-.413.27.27 0 0 0-.245-.146c-.175 0-.337.118-.47.356-.14.238-.252.497-.329.776-.049.175-.084.35-.112.518a2.636 2.636 0 0 0-.042.412c0 .14.021.245.049.322a.175.175 0 0 0 .175.112l-.007-.007ZM79.18 31.517c-.105-.937-.448-1.629-1.01-2.07-.574-.433-1.338-.6-2.312-.489-1.409.16-2.776 1.049-4.114 2.657-1.346 1.609-2.909 4.273-4.69 7.993 3.926-.496 6.989-1.49 9.175-2.95 2.194-1.462 3.183-3.175 2.958-5.134l-.007-.007ZM138.224 11.357c.266 0 .497-.245.679-.742.19-.496.281-1.105.281-1.839v-.105s0-.028-.007-.042c0-.014-.007-.035-.007-.042v-.014a.542.542 0 0 0-.119-.314c-.071-.07-.169-.105-.302-.105-.266 0-.49.252-.673.748-.182.497-.273 1.112-.273 1.832 0 .224.035.385.098.483.063.098.175.147.323.147v-.007Z"/><path d="M156.223 0H9.777C3.26 0 0 3.378 0 10.126V70.88c0 6.748 3.26 10.126 9.777 10.126h146.439c6.518 0 9.777-3.378 9.777-10.126V10.126c0-6.748-3.259-10.126-9.777-10.126h.007Zm-5.026 4.594c.154-.181.435-.35.827-.517.021-.014.049-.021.077-.035.028-.014.056-.021.077-.035.098-.035.19-.07.281-.105.091-.035.189-.07.294-.105.315-.09.631-.168.946-.23.316-.057.589-.084.82-.084.288 0 .498.055.61.174.119.112.175.322.175.609 0 .189-.007.377-.028.566-.021.196-.035.385-.063.588v-.014l-.399 4.153-.042.434c-.021.14-.035.28-.042.42-.014.09-.021.181-.035.272a2.886 2.886 0 0 0-.035.273c-.029.217-.043.448-.064.671-.014.224-.028.455-.028.693 0 .196.021.35.063.447.043.098.106.147.183.147h.07s.049 0 .07-.014h.035s.021 0 .035-.02c.035 0 .07 0 .105-.008.035 0 .07-.007.105-.007.091 0 .168.042.225.126.056.084.084.203.084.364 0 .44-.19.818-.568 1.126a4.187 4.187 0 0 1-1.269.706c-.259.09-.511.16-.764.21-.252.049-.462.07-.637.07-.386 0-.673-.091-.87-.28-.196-.189-.287-.476-.287-.874 0-.266.007-.532.028-.797.021-.26.042-.525.077-.798l.042-.482c.021-.154.035-.315.063-.483.021-.189.049-.377.07-.573.028-.196.049-.392.07-.574l.33-2.916c.014-.077.021-.168.035-.251.014-.084.028-.175.035-.252 0-.05 0-.091.007-.14 0-.049.014-.091.028-.14.014-.126.021-.259.035-.392a3.77 3.77 0 0 0 .021-.391c0-.126-.021-.217-.063-.273-.042-.049-.105-.077-.203-.077h-.035s-.021 0-.035.021h-.176s-.042.014-.063.014h-.063c-.14 0-.245-.042-.315-.133-.07-.09-.105-.21-.105-.377 0-.294.077-.525.238-.707h.028Zm-8.369 7.93c0-1.51.547-2.853 1.633-4.014 1.094-1.16 2.363-1.748 3.806-1.748.687 0 1.206.175 1.549.525.344.35.519.874.519 1.573 0 .804-.28 1.51-.834 2.133-.554.615-1.164 1.028-1.829 1.238-.141.049-.281.077-.421.105-.14.02-.28.035-.42.035-.267 0-.428.02-.484.063-.049.042-.077.132-.077.272 0 .175.063.322.182.448.126.126.259.21.414.252.049.007.091.02.133.028.042 0 .084.007.133.007.056 0 .119 0 .175-.007.056 0 .112-.021.175-.042.162-.035.323-.091.484-.175.154-.077.315-.168.463-.259.196-.133.378-.245.539-.343.161-.098.288-.146.386-.146.161 0 .301.077.42.23a.844.844 0 0 1 .176.539c0 .44-.225.832-.666 1.16a5.982 5.982 0 0 1-1.472.798c-.337.119-.666.21-.981.273a4.125 4.125 0 0 1-.771.097c-.828 0-1.577-.216-2.236-.664-.666-.44-.996-1.224-.996-2.336v-.041Zm-8.663 1.539s0-.07.014-.105c.035-.259.141-.497.309-.734.168-.231.371-.399.603-.504.091-.049.189-.09.294-.14a.241.241 0 0 0 .119-.21v-.034c0-.056-.049-.14-.14-.238a3.749 3.749 0 0 1-.316-.413 3.11 3.11 0 0 1-.315-.594c-.091-.23-.14-.51-.14-.84 0-.978.385-1.796 1.142-2.46.764-.665 1.704-.994 2.825-.994.126 0 .252 0 .364.021.113.014.232.028.351.05.133.013.252.027.364.041.119.014.232.028.351.028a.647.647 0 0 0 .273-.063.997.997 0 0 0 .252-.182c.05-.049.099-.105.148-.175.049-.07.105-.146.147-.223.049-.084.091-.154.133-.21.042-.056.077-.105.112-.14a.297.297 0 0 1 .119-.07.562.562 0 0 1 .161-.02h.05c.175.02.343.125.497.293.154.175.267.363.323.573a.58.58 0 0 1 .042.147c.007.05.007.105.007.147a.914.914 0 0 1-.042.287 1.733 1.733 0 0 1-.099.237c-.021.035-.042.07-.063.098a.245.245 0 0 0-.042.098.615.615 0 0 0-.035.105.338.338 0 0 0-.021.126c0 .014.021.063.063.147.042.09.084.196.134.322.035.125.07.272.112.426.042.154.063.315.063.483v.049c0 1.014-.372 1.832-1.108 2.454-.743.623-1.717.937-2.929.937a1.6 1.6 0 0 1-.316-.028 2.493 2.493 0 0 0-.294-.042 2.533 2.533 0 0 0-.309-.049 4.335 4.335 0 0 0-.308-.014.323.323 0 0 0-.252.105.4.4 0 0 0-.098.28c0 .182.084.322.259.399.175.077.498.118.96.118.161 0 .33 0 .498-.006.168 0 .336-.014.497-.028.162-.014.33-.022.498-.029.168 0 .336-.007.498-.007.546 0 .981.168 1.303.497.323.329.484.77.484 1.315 0 .88-.386 1.608-1.142 2.168-.764.559-1.767.839-3.021.839-.989 0-1.788-.168-2.376-.497-.596-.328-.891-.769-.891-1.314 0-.154.022-.28.064-.378.042-.098.084-.182.133-.252a7.05 7.05 0 0 1 .098-.154c.028-.049.056-.084.077-.119 0-.02 0-.041.007-.048 0-.014.007-.028.007-.056 0-.035-.028-.091-.077-.168-.049-.077-.112-.168-.182-.273a2.024 2.024 0 0 1-.183-.392 1.343 1.343 0 0 1-.077-.482v-.105h.021Zm-22.891 36.664c.14-1.028.386-2.188.736-3.482l5.572-21.336-6.091.692.778-3.195 6.147-.7 2.047-7.874 5.53-1.28-2.208 8.546 5.047-.573-.821 3.195-5.046.574-5.334 20.664c-.189.755-.294 1.266-.35 1.525-.056.265-.07.468-.056.6.042.386.182.68.427.917.246.23.512.329.778.3.743-.083 1.83-.755 3.238-2 1.416-1.251 3.253-3.174 5.523-5.775l1.388 1.02c-2.887 3.896-5.586 6.972-8.109 9.238-2.516 2.266-4.619 3.49-6.287 3.678-.841.098-1.528-.062-2.068-.496-.539-.427-.855-1.063-.953-1.902-.063-.538-.028-1.315.119-2.336h-.007ZM89.953 27.175c1.353-1.469 2.6-2.273 3.757-2.406.89-.105 1.584.105 2.081.602.491.496.8 1.328.933 2.49.084.754.084 1.65.007 2.72-.092 1.055-.288 2.377-.596 3.964l-1.304 7.58.42.113c2.286-6.224 4.367-10.895 6.239-14 1.864-3.112 3.595-4.762 5.186-4.944.911-.105 1.661.154 2.257.769.582.615.946 1.503 1.087 2.692.154 1.322.042 2.378-.33 3.182-.378.804-.967 1.252-1.773 1.343-.841.098-1.626-.308-2.369-1.196-.743-.895-1.255-1.329-1.521-1.3-1.346.153-3.21 3.013-5.593 8.566-2.37 5.552-4.64 12.56-6.77 21.028l-5.3.601c1.886-6.853 3.316-12.776 4.283-17.762.967-4.986 1.366-8.28 1.184-9.888-.063-.539-.154-.91-.294-1.12-.126-.202-.33-.286-.596-.258-.673.077-1.38.503-2.11 1.287-.728.776-1.955 2.566-3.68 5.377l-1.135-.979c2.608-4.154 4.591-6.972 5.93-8.454l.007-.007ZM69.1 30.119c2.622-1.944 5.264-3.07 7.927-3.37 1.844-.21 3.393.09 4.675.922 1.276.819 2.005 1.98 2.18 3.483.302 2.63-.84 4.832-3.42 6.58-2.587 1.748-6.392 2.916-11.432 3.49-.757.084-1.318.14-1.689.175-.364.028-.715.049-1.072.056-1.087 1.95-1.865 3.818-2.341 5.622-.477 1.797-.624 3.49-.442 5.077.19 1.63.827 2.895 1.907 3.776 1.079.895 2.446 1.238 4.093 1.049 1.528-.175 3.077-.77 4.647-1.776 1.563-1.014 3.154-2.455 4.808-4.336l1.044.944c-1.766 2.867-3.792 5.147-6.049 6.84-2.257 1.692-4.597 2.664-6.987 2.936-2.566.294-4.704-.265-6.42-1.67-1.725-1.413-2.734-3.456-3.036-6.113-.28-2.447-.042-5.014.736-7.692.771-2.692 2.061-5.462 3.862-8.3 2.068-3.183 4.402-5.742 7.023-7.693h-.014ZM27.615 41.147c1.739-4.336 4.402-8.385 7.997-12.175 2.916-3.028 5.916-5.44 8.972-7.245 3.07-1.804 5.936-2.853 8.607-3.16 2.516-.287 4.682.118 6.47 1.21 1.8 1.09 2.803 2.538 3.006 4.356.112.95-.077 1.734-.54 2.35-.462.622-1.128.985-2.004 1.083-1.157.133-2.657-.706-4.493-2.524h-.056c-1.444-1.42-2.53-2.336-3.245-2.727-.73-.392-1.43-.56-2.13-.483-1.445.168-3.05 1.161-4.802 3-1.766 1.84-3.7 4.518-5.817 8.056-2.377 3.811-4.108 7.399-5.194 10.748-1.087 3.35-1.493 6.26-1.213 8.7.26 2.272 1.073 3.993 2.432 5.14 1.36 1.167 3.091 1.622 5.194 1.384 2.06-.238 4.121-1.07 6.154-2.482 2.047-1.42 4.135-3.455 6.287-6.112l1.787 1.175c-2.551 3.804-5.27 6.797-8.172 8.965-2.888 2.167-5.804 3.426-8.712 3.755-3.435.391-6.266-.364-8.488-2.273-2.222-1.909-3.554-4.7-3.974-8.384-.449-3.924.196-8.042 1.941-12.364l-.007.007ZM82.103 70.53c-24.3 5.903-49.806 12.65-76.65-13 24.854 20.126 48.852 15.658 74.022 8.763 18.91-5.58 61.012-14.546 76.509-10.693-16.555-.986-56.33 9.679-73.881 14.93Zm78.087-33.51c-.806 2.671-2.166 5.238-4.101 7.664a20.557 20.557 0 0 1-5.789 5.007c-2.243 1.301-4.521 2.084-6.834 2.35-3.392.385-6.259-.406-8.607-2.385-2.341-1.979-3.722-4.769-4.135-8.377a20.794 20.794 0 0 1 .75-8.44c.827-2.75 2.201-5.337 4.114-7.756a19.697 19.697 0 0 1 5.691-4.944c2.229-1.287 4.563-2.07 6.981-2.343 3.365-.384 6.21.399 8.516 2.357 2.313 1.965 3.68 4.77 4.1 8.42.337 2.964.106 5.783-.686 8.454v-.007Z"/><path d="M153.237 21.189c-1.094-1.196-2.404-1.7-3.939-1.525-1.886.217-3.645 1.035-5.264 2.44-1.633 1.413-3.133 3.42-4.486 6.022a30.424 30.424 0 0 0-2.775 7.81c-.554 2.686-.687 5.288-.4 7.784.252 2.21.925 3.888 2.033 5.035 1.1 1.16 2.453 1.643 4.079 1.462 1.668-.19 3.35-1.042 5.046-2.539 1.704-1.503 3.217-3.49 4.535-5.986a28.738 28.738 0 0 0 2.755-7.77c.553-2.747.701-5.328.42-7.74-.245-2.126-.918-3.784-2.004-4.986v-.007Z"/></g><defs><clipPath id="clip0_506_26319"><path fill="#fff" d="M0 0h166v81H0z"/></clipPath></defs></svg>