<svg width="99" height="99" fill="none" xmlns="http://www.w3.org/2000/svg"><path d="M52.775 17.454c12.6 0 22.73 10.134 22.73 22.591 0 9.037-5.292 16.75-12.988 20.364v15.137h-22.73v-9.682h-3.248c-3.605 0-6.495-2.873-6.495-6.455v-9.682h-4.87c-1.364 0-2.143-1.613-1.364-2.614l6.235-8.165a22.54 22.54 0 0 1 7.038-15.267 22.817 22.817 0 0 1 15.692-6.227Zm0-6.454c-14.872 0-27.244 11.07-29.03 25.528l-5.066 6.745c-1.883 2.323-2.208 5.55-.844 8.358 1.169 2.324 3.247 3.905 5.715 4.39v3.388c0 6.003 4.156 11.07 9.742 12.49V82h35.72V64.153C77.128 58.86 82 49.921 82 40.045 82 24.038 68.881 11 52.775 11Zm-1.721 38.727L39.786 38.432l4.546-4.55 6.722 6.712 13.411-13.458 4.546 4.55-17.957 18.041Z" fill="#674506"/></svg>