<svg width="288" height="199" fill="none" xmlns="http://www.w3.org/2000/svg"><g filter="url('#filter0_d_254_17770')"><path d="m154.39 98.062 13.961-.928c3.646-.195 7.981-.11 11.253.643.643.474-.03 2.015-2.479 3.596-.22.14-18.091 12.151-18.301 12.31-1.965 1.517-3.925 3.038-5.895 4.549-2.1 1.611-4.21 3.217-6.31 4.829-3.88 2.972-7.756 5.95-11.631 8.933-.325.249-.629.518-.943.778.15.02.249-.02.339-.08.534-.344 1.068-.693 1.601-1.032 2.699-1.711 5.397-3.417 8.09-5.128 4.09-2.599 8.175-5.202 12.265-7.806 1.617-1.027 4.579-2.619 6.19-3.646 2.395-1.132 13.083-7.477 16.066-9.168 1.043-.613 1.671-1.037 2.479-.538.469.289 0 1.042-.539 3.127l-1.042 2.554c-.035.154-1.721 3.546-1.791 3.686a383.697 383.697 0 0 1-1.601 3.292c-.913 1.875-1.83 3.746-2.738 5.621-1.102 2.26-2.195 4.524-3.297 6.784-1.257 2.583-2.519 5.162-3.776 7.746-1.237 2.553-2.464 5.107-3.701 7.661-1.337 2.753-2.683 5.506-4.025 8.26-.045.094-.07.199-.105.294.409-.524.739-1.082 1.078-1.636 2.045-3.397 4.095-6.793 6.145-10.19 1.506-2.494 3.012-4.983 4.519-7.477 1.501-2.494 2.997-4.993 4.494-7.492 1.531-2.543 3.042-5.097 4.598-7.626a503.64 503.64 0 0 1 5.263-8.414c.618-.963 1.361-1.841 2.08-2.734a3.37 3.37 0 0 1 .798-.708c.573-.359.927-.15 1.147.329.109.235.199.494.239.748.115.764.245 1.527.289 2.29.075 1.262.1 2.524.12 3.786.045 2.693.085 5.391.1 8.085.01 2.933.11 5.865.339 8.788.19 2.464.314 4.938.464 7.407.115 1.841.229 3.681.339 5.527.095 1.596.175 3.197.26 4.793.049.883.089 1.766.144 2.654.135 2.139.274 4.284.409 6.424.095 1.501.175 3.008.27 4.514.029.514.079 1.027.124 1.646.1-1.097.195-2.095.28-3.088.054-.618.089-1.237.144-1.855.175-2.005.364-4.01.539-6.015.09-1.053.154-2.105.244-3.153.14-1.631.295-3.262.434-4.888.085-.992.16-1.99.245-2.982.139-1.632.289-3.263.429-4.894.079-.937.159-1.875.244-2.813.105-1.217.214-2.434.319-3.656.065-.713.13-1.421.19-2.135.084-.992.189-1.985.244-2.982.055-.883.06-1.771.085-2.654.045-1.656.09-3.317.13-4.973.054-2.214.084-4.429.154-6.643.04-1.217.145-2.434.344-3.637.085-.503.2-1.002.449-1.456a.845.845 0 0 1 1.197-.334c.374.214.744.479 1.038.793.668.708 1.347 1.426 1.92 2.215a563.358 563.358 0 0 1 5.716 7.975c2.105 2.983 4.175 5.985 6.265 8.973 1.736 2.484 3.476 4.958 5.212 7.437 2.519 3.606 5.038 7.217 7.557 10.829h.199c-.07-.17-.124-.35-.214-.514-.903-1.666-1.811-3.332-2.714-5.003-1.192-2.195-2.374-4.399-3.566-6.594-1.691-3.122-3.387-6.24-5.078-9.357-1.531-2.818-3.052-5.641-4.583-8.459-1.532-2.819-3.088-5.627-4.599-8.46-.663-1.237-1.267-2.514-1.422-3.945l1.292-1.162c1.566-.02 3.048.419 4.514.878 1.556.483 3.088 1.042 4.624 1.596a330.51 330.51 0 0 1 5.322 1.985c2.469.938 4.938 1.89 7.407 2.833 2.155.823 4.309 1.651 6.464 2.474 2.294.878 4.584 1.761 6.878 2.638 2.539.973 5.078 1.941 7.617 2.908.698.265 1.396.524 2.095.788.109-.03.219-.064.329-.094-.27-.15-.539-.305-.813-.449l-2.799-1.452-9.551-4.928c-3.217-1.656-6.444-3.307-9.662-4.968-3.282-1.695-6.569-3.391-9.836-5.117a249.364 249.364 0 0 1-6.11-3.357c-1.142-.643-2.244-1.357-3.097-2.394l.279-1.237a6.07 6.07 0 0 1 1.975-.793c1.212-.24 2.425-.499 3.647-.698 2.149-.355 4.309-.669 6.464-.998 1.356-.21 2.718-.364 4.065-.628 1.711-.335 3.411-.744 5.107-1.143 1.936-.448 3.871-.927 5.806-1.381 2.23-.524 4.459-1.038 6.689-1.561 1.935-.454 3.87-.923 5.811-1.377 2.244-.529 4.494-1.047 6.743-1.571A6688.1 6688.1 0 0 1 259 82.544c-.22-.05-.439-.06-.659-.05-.583.04-1.162.08-1.745.13-1.951.175-3.896.36-5.846.529-1.387.12-2.773.23-4.165.344-1.95.16-3.9.314-5.856.469-.598.05-1.202.09-1.8.145-1.088.094-2.17.204-3.257.294-1.162.1-2.33.174-3.492.27-1.182.099-2.359.214-3.541.314-.993.084-1.99.154-2.983.239-1.556.135-3.112.28-4.663.419-.659.06-1.312.1-1.971.16-1.067.094-2.134.209-3.202.294-.883.07-1.765.13-2.648.16-1.222.04-2.449.064-3.671.07-.549 0-1.078-.12-1.581-.355l-.255-.558c.085-.42.294-.774.584-1.078.464-.494.922-.993 1.421-1.446 1.99-1.781 4.115-3.402 6.23-5.033l11.223-8.634c3.411-2.624 6.823-5.252 10.24-7.876l11.94-9.172c.07-.055.115-.14.17-.21l-.229-.045c-1.113.703-2.225 1.402-3.337 2.105-3.222 2.04-6.444 4.08-9.662 6.12-3.731 2.364-7.451 4.744-11.182 7.103a3033.099 3033.099 0 0 1-13.787 8.669c-1.77 1.102-3.571 2.154-5.511 2.942a6.825 6.825 0 0 1-1.621.45c-.674.094-1.013-.24-.978-.908.025-.484.115-.973.255-1.432.443-1.476 1.102-2.873 1.765-4.26 1.247-2.583 2.524-5.157 3.786-7.736l4.743-9.716c1.332-2.733 2.664-5.467 3.996-8.205 1.142-2.35 2.279-4.698 3.416-7.043 1.118-2.299 2.24-4.593 3.352-6.893.269-.553.504-1.122.758-1.686-.01-.035 0-.06.035-.08.03-.044.065-.084.095-.13l-.135-.239c-.094.155-.194.315-.289.47a11365.7 11365.7 0 0 1-3.95 6.563c-1.891 3.138-3.796 6.265-5.686 9.402-1.756 2.913-3.497 5.831-5.248 8.744-1.691 2.818-3.371 5.646-5.077 8.454a583.014 583.014 0 0 1-4.774 7.721c-.638 1.018-1.331 2.01-2.174 2.873-.27.28-.609.49-.933.719-.239.17-.479.094-.658-.1a1.412 1.412 0 0 1-.305-.464c-.129-.37-.279-.748-.314-1.137a84.654 84.654 0 0 1-.334-4.22c-.07-1.431-.08-2.863-.1-4.294-.05-3.168-.085-6.335-.14-9.502a34.204 34.204 0 0 0-.104-2.145c-.145-2.01-.3-4.015-.449-6.025l-.344-4.614c-.12-1.616-.235-3.227-.35-4.843l-.374-5.237c-.039-.564-.069-1.128-.114-1.691-.095-1.182-.205-2.36-.29-3.542-.069-.977-.114-1.955-.174-2.933 0-.044-.03-.09-.065-.184-.045.1-.075.14-.08.19-.124 1.177-.249 2.359-.369 3.536-.09.878-.16 1.76-.254 2.639-.095.897-.215 1.79-.31 2.688-.134 1.272-.249 2.544-.384 3.816-.169 1.59-.354 3.177-.518 4.768-.095.918-.17 1.835-.265 2.753-.089.858-.209 1.716-.299 2.574-.135 1.292-.229 2.584-.389 3.876a68.654 68.654 0 0 0-.504 6.06c-.075 2.264-.134 4.529-.214 6.793-.085 2.499-.17 4.998-.3 7.497a22.27 22.27 0 0 1-.214 2.01c-.12.833-.185 1.716-.623 2.479a.955.955 0 0 1-1.312.369 2.501 2.501 0 0 1-.544-.4c-.424-.423-.873-.837-1.242-1.31-.997-1.298-1.99-2.6-2.923-3.936-2.244-3.222-4.444-6.475-6.678-9.707-2.439-3.521-4.893-7.032-7.343-10.549-2.214-3.177-4.429-6.35-6.638-9.527-.793-1.137-1.581-2.274-2.375-3.406-.084-.12-.139-.305-.354-.3.23.454.429.888.659 1.312 1.117 2.045 2.249 4.08 3.362 6.125 1.167 2.145 2.319 4.3 3.486 6.445 1.691 3.117 3.392 6.234 5.088 9.352 1.271 2.344 2.548 4.683 3.82 7.028 1.522 2.808 3.053 5.61 4.554 8.429.574 1.077 1.636 2.39 1.975 3.566.175.599 1.581 2.953.753 3.417-.433.244-1.117-.33-1.581-.504-1.81-.673-2.693-.843-2.833-.878-2.663-.658-5.222-1.646-7.781-2.608-1.686-.634-3.352-1.302-5.032-1.956-2.045-.793-4.09-1.576-6.135-2.369-2.464-.957-4.923-1.915-7.387-2.873-2.15-.838-4.3-1.67-6.45-2.509-2.374-.927-4.748-1.855-7.122-2.778-1.028-.399-2.06-.773-3.088-1.162-.035.06-.07.12-.099.18 1.71.892 3.426 1.78 5.137 2.673a7344.7 7344.7 0 0 1 10.42 5.472l6.03 3.157c2.798 1.456 5.596 2.903 8.394 4.36.714.368 1.417.762 2.12 1.141l12.534 6.654-.034.649c-3.093 1.007-6.953 1.79-10.32 2.424l-14.619 2.27c-2.509.343-11.348 1.665-13.243 1.87-2.07.224-4.105.718-6.17.992-1.267.17-2.609.275-3.661.993.588.184 1.212.244 1.83.28 2.01.109 4.031-.06 6.036-.235 1.252-.105 12.514-.584 14.898-.763l-.005-.005Z" fill="#8BD6F6" opacity=".5"/><path d="M206.892 87.148c-.334-1.272-.903-2.414-1.82-3.372-.065-.07-.12-.154-.205-.209-.045-.03-.085-.075-.125-.11-.04-.04-.084-.075-.124-.114-.035-.03-.07-.065-.105-.09a.342.342 0 0 0-.055-.035c-.01-.005-.055-.015-.06-.025.07.095.175.264.25.364l.239.544c.274.134.369.414.489.653a8.71 8.71 0 0 1 .853 3.342c.04.708.05 1.416.02 2.13-.04 1.037-.2 2.055-.419 3.052-.434 1.985-1.177 3.856-2.35 5.532-.558.798-1.172 1.561-1.885 2.224a13.398 13.398 0 0 1-3.886 2.544c-.842.364-1.705.668-2.608.843-.843.165-1.691.294-2.549.379-1.766.17-3.471.035-5.122-.653-.105-.045-.225-.045-.459-.085.159.174.214.279.304.334a7.716 7.716 0 0 0 3.626 1.242c1.711.13 3.417.04 5.093-.364 1.93-.464 3.736-1.212 5.322-2.429 1.042-.798 2.035-1.651 2.708-2.813.279-.48.564-.963.923-1.382.499-.588.758-1.292 1.032-1.98.724-1.82 1.113-3.721 1.232-5.671.08-1.297.02-2.589-.314-3.856l-.005.005ZM75.498 89.124c-.763 1.496-3.193 1.825-4.345 1.192.025-.21.05-.43.08-.649.025-.2.055-.394.095-.658.204.115.344.194.484.27.568.313 1.167.403 1.79.204a1.15 1.15 0 0 0 .474-.285c.265-.274.155-.638-.214-.733-.235-.06-.484-.07-.718-.125-.29-.065-.584-.124-.863-.224-.494-.175-.679-.599-.669-1.067.01-.43.14-.843.454-1.183.559-.613 1.242-.942 2.06-1.037a3.943 3.943 0 0 1 1.79.19l-.189 1.271c-.953-.469-1.885-.853-2.688.17.085.479.454.459.748.524.29.065.598.07.883.144.538.135.972.394 1.022 1.033 0 .05.04.1.075.19.33-.385.693-.684 1.177-.799.469-.11.933-.24 1.397-.364.055-.324-.115-.424-.374-.454a2.518 2.518 0 0 0-1.212.18c-.185.075-.37.135-.599.22.025-.16.045-.245.05-.33.05-.878.184-.703.758-.898.554-.184 1.147-.2 1.73-.154.644.05 1.048.504.978 1.127-.1.873-.224 1.746-.349 2.618-.015.09-.06.175-.094.28-.36.165-.754.16-1.148.12-.055-.005-.094-.135-.124-.175-.374.15-.724.33-1.098.429-.713.19-1.157-.105-1.311-.813-.01-.055-.025-.105-.055-.23l.005.016Zm2.693-1.078c-.204.03-.379.025-.529.09-.234.1-.464.23-.658.389-.18.14-.18.374-.09.569.085.18.275.174.444.16.11-.01.22-.03.324-.07.444-.175.54-.385.51-1.133v-.005ZM87.803 88.879c-.404.19-.803.15-1.192.14-.055 0-.105-.13-.135-.17-.384.155-.748.35-1.137.454-.718.19-1.217-.23-1.222-.973v-.513c-.2.329-.374.663-.589.962-.514.714-1.227.953-2.075.788-.16-.03-.25 0-.394.045-.369.11-.758.14-1.192.21L80.62 84l1.212-.1c.115.639-.14 1.262-.17 1.925.29-.164.554-.359.849-.478.928-.38 1.62.055 1.7 1.102.026.33-.05.668-.08 1.002-.004.07 0 .145 0 .335.62-1.158 1.722-1.222 2.71-1.472.054-.29-.05-.429-.305-.459a2.394 2.394 0 0 0-1.267.175c-.165.075-.33.145-.594.26.055-.415.095-.719.135-1.033a4.873 4.873 0 0 1 2.44-.39c.663.06.977.415.927 1.093-.055.748-.175 1.487-.27 2.23-.03.22-.064.444-.104.698v-.01Zm-6.53-.22c.67.135 1.118-.044 1.387-.593.21-.429.26-.898.2-1.367-.03-.244-.22-.379-.469-.399-.34-.025-.609.13-.838.305-.095.698-.184 1.361-.28 2.05v.004Zm5.433-1.53c-.16.034-.29.06-.41.094-.144.035-.289.07-.424.12-.199.075-.344.2-.409.414-.06.21-.09.399.095.558.928.095 1.192-.164 1.152-1.187h-.004ZM111.56 84.604c-.943.105-1.846.21-2.749.315.03.628.21.813.724.853.468.04.887-.09 1.287-.325.174-.104.349-.204.563-.324.08.344-.015.663-.08.973-.05.24-.284.27-.474.344-.708.27-1.426.409-2.194.254-.873-.18-1.132-.768-1.142-1.55 0-.33.089-.664.149-1.028-.364-.17-.668-.484-1.152-.424-.384.045-.668.184-.898.488-.314.42-.379.893-.329 1.392.04.38.244.549.638.574.434.03.819-.08 1.148-.36.094-.08.189-.164.374-.319v.574c0 .469-.195.748-.669.903a3.797 3.797 0 0 1-1.666.154c-.663-.075-1.102-.578-1.162-1.247-.084-.957.18-1.795.913-2.434.688-.598 1.516-.773 2.414-.653.165.02.319.085.499.135v.882c.15-.174.249-.289.344-.404.664-.818 1.541-1.097 2.559-1.007.534.05.853.399.978.933.109.458-.01.877-.065 1.311l-.01-.01Zm-1.118-.713c-.074-.559-.194-.713-.543-.723-.484-.02-.863.334-.938.908.504-.035 1.008.035 1.481-.18v-.005ZM100.103 82.585c-.045.414-.09.857-.14 1.341-.21-.13-.364-.23-.518-.324-1.188-.743-2.689-.015-2.983 1.387-.055.254-.055.523-.05.788.02.848.618 1.337 1.456 1.202.125-.02.25-.07.395-.115.044-.314.094-.623.15-1.008-.355.03-.664.06-.989.085-.17-.369.14-.678.045-1.037.823-.09 1.577-.17 2.39-.254-.06.603-.115 1.157-.18 1.71-.02.185-.085.37-.075.554.02.334-.124.514-.429.638-.683.275-1.381.504-2.115.524-.823.025-1.686-.33-1.99-1.182-.02-.055-.055-.1-.065-.155-.319-2.124.679-3.87 2.679-4.369.748-.184 1.601-.21 2.409.215h.01ZM128.045 80.669l.249-1.681 1.272-.174c-.085 1.017-.244 1.97-.364 2.927-.12.943-.254 1.886-.384 2.843l-1.192.14c-.04-.125-.065-.214-.095-.31-.05.026-.105.036-.145.07-.344.27-.708.484-1.167.49-.523 0-.908-.24-1.082-.729-.389-1.107.12-2.773 1.192-3.431.509-.31 1.062-.335 1.711-.14l.005-.005Zm-.085.843c-.628-.1-1.067.055-1.317.504-.274.493-.434 1.042-.204 1.61.089.22.319.33.553.265.23-.06.444-.17.679-.26.099-.713.189-1.39.289-2.114v-.005ZM112.931 86.27l-1.266.145.543-4.16c.414-.05.833-.095 1.292-.15l-.055.444c.055 0 .095.015.115 0 .155-.104.324-.2.454-.334.174-.18.464 0 .633-.234.03-.04.29.085.449.134.225-.254.444-.304 1.252-.279.09.693-.16 1.357-.214 2.04-.055.673-.165 1.337-.26 2.065-.404.055-.823.115-1.292.18.13-1.018.25-1.97.37-2.938-.519-.07-.943.045-1.367.184-.19.06-.264.17-.284.364-.065.614-.15 1.227-.235 1.836-.03.22-.08.439-.13.703h-.005Zm2.07-3.446c.015-.185.025-.37.04-.554-.209.37-.214.374-.04.554ZM124.483 85.058c-.479-.065-.943.35-1.392-.095-.423.235-.847.51-1.396.46-.524-.05-.863-.355-.903-.883-.065-.873.514-1.442 1.142-1.696.26-.105.534-.175.803-.245.255-.065.509-.104.753-.154.12-.31-.024-.474-.279-.51a1.654 1.654 0 0 0-.663.04c-.374.096-.743.235-1.142.37.034-.314.069-.604.109-.973.265-.085.554-.21.858-.274.549-.11 1.098-.24 1.666-.095.584.145.838.414.813 1.023-.015.429-.075.863-.125 1.287-.069.573-.159 1.142-.239 1.75l-.005-.005Zm-2.329-.743c.469.23.718.175 1.217-.27.01-.124.01-.254.025-.383.015-.12.04-.24.065-.414-.285.055-.519.084-.744.15-.483.149-.608.359-.563.917ZM133.691 81.727c-.03 1.491-.848 2.459-2.324 2.723-1.058.184-2.01-.284-1.966-1.651.04-1.067.464-1.93 1.417-2.454a2.588 2.588 0 0 1 1.731-.284c.703.124 1.182.748 1.137 1.391-.005.095 0 .19 0 .285l.005-.01Zm-2.958.818v.314c.045.613.504.858 1.023.519a1.22 1.22 0 0 0 .419-.504c.174-.394.224-.823.189-1.257-.02-.26-.06-.519-.329-.599a.778.778 0 0 0-.823.21c-.394.399-.399.908-.474 1.317h-.005ZM118.248 81.597c.03.114.055.204.085.309.15-.08.304-.145.439-.24.334-.229.698-.349 1.112-.329.389.015.649.2.764.554.069.23.119.484.094.718-.09.878-.214 1.751-.329 2.624-.01.07-.045.14-.075.24-.399.044-.798.094-1.267.144.11-1.013.215-1.975.31-2.863-.275-.364-.534-.284-.813-.185-.29.105-.389.29-.424.589-.095.838-.23 1.67-.355 2.569-.389.05-.808.1-1.296.164l.548-4.165c.439-.05.823-.094 1.212-.134l-.005.005ZM92.601 86.036c.025 1.162-.474 2.02-1.511 2.544-.504.254-1.048.284-1.591.214-.639-.08-1.118-.618-1.153-1.331-.065-1.198.434-2.56 1.89-2.963.47-.13 1.008-.11 1.497-.04.474.07.833.623.868 1.127.01.15 0 .3 0 .449Zm-2.983.948s.025.01.04.01c.005.13 0 .264.02.394.055.324.344.563.634.498.289-.064.573-.174.718-.478.21-.444.339-.908.314-1.402-.015-.294-.115-.573-.419-.668-.284-.09-.564 0-.773.21-.115.114-.22.258-.27.413-.11.334-.179.678-.264 1.018v.005ZM100.841 81.851c.449-.045.833-.085 1.292-.135-.209 1.926-.499 3.811-.738 5.766l-.643.075c-.2.025-.399.045-.654.075.25-1.935.494-3.84.743-5.786v.005ZM103.864 83.158l-.544 4.125-1.292.14c.18-1.397.354-2.759.524-4.1.434-.22.853-.15 1.312-.17v.005Z" fill="#fff"/><path d="M87.603 83.068c.205-.035.42-.075.669-.12.094.494-.155.814-.47 1.083-.318.27-.698.344-1.102.17-.134-.06-.269-.15-.413-.165-.135-.01-.37.03-.395.105-.174.483-.553.339-.922.359.17-.649.449-1.118 1.132-1.262.264-.055.469.045.688.14.514.219.564.204.813-.31ZM116.538 81.203c-.464.05-.903.1-1.397.154.055-.369.095-.653.14-.962.429-.205.888-.17 1.361-.17-.034.33-.069.619-.104.978ZM102.712 81.726c.459-.2.902-.15 1.396-.154l-.129.962c-.454.045-.888.09-1.347.14l.085-.948h-.005ZM135.142 65.94c-.035.06-.07.12-.099.18-.335-.215-.769-.275-1.013-.629l-.01.01c.389.11.793.18 1.122.444v-.005Z" fill="#fff"/><path d="M225.053 145.162h.199c.18.299.354.603.534.902l.01-.01c-.065-.02-.16-.02-.19-.064-.189-.27-.369-.554-.553-.828ZM225.786 146.064c.07.075.135.15.235.255-.3.03-.21-.15-.225-.265l-.01.01Z" fill="#4692CE"/><path d="M134.03 65.491c-.07-.005-.134-.015-.204-.02.005-.02.015-.04.02-.055.059.03.114.055.174.085l.01-.01ZM133.611 65.317c-.069 0-.035 0 0 0-.069.005-.035 0 0 0Z" fill="#fff"/><path d="M60.245 89.941c-.204 0-.414-.01-.618.015-.753.1-1.506.22-2.26.325-1.341.19-2.474.693-3.022 2.05-.314.877-.47 1.785-.564 2.713-.08.813-.224 1.621-.344 2.434-.015.165-.025.33-.045.494-.045.419-.095.838-.145 1.257-.124 1.022-.244 2.045-.379 3.062-.134 1.038-.294 2.075-.428 3.113-.055.429-.08.858-.12 1.287-.604 4.583-1.202 9.167-1.806 13.761.948-.105 1.84-.195 2.728-.309.724-.095 1.447-.185 2.16-.34 1.157-.249 1.97-.917 2.245-2.109.15-.654.254-1.322.349-1.99.1-.724.15-1.457.24-2.185.09-.708.209-1.407.299-2.115.14-1.057.259-2.12.394-3.177.18-1.397.369-2.793.543-4.185.085-.668.15-1.342.235-2.015.094-.743.214-1.481.309-2.225.095-.763.165-1.526.264-2.29.14-1.096.295-2.194.44-3.291.129-.988.264-1.97.388-2.958.03-.244.035-.489.06-.733.025-.23.065-.459.11-.763-.4.07-.713.12-1.023.174h-.01Z" fill="url('#paint0_linear_254_17770')"/><path d="M182.811 93.109c-.205.374-.105.788-.125 1.177-.045.778-.175 1.561-.035 2.35.12.678.19 1.36.284 2.04-.204 1.615-.399 3.231-.618 4.842-.165 1.222-.374 2.434-.768 3.607-.295.867-.604 1.72-1.143 2.479-.433.613-.783 1.286-1.227 1.895a7.823 7.823 0 0 1-1.077 1.152c-1.187 1.062-2.554 1.831-4.04 2.394-1.227.464-2.499.768-3.781 1.003-.773.139-1.561.204-2.349.254-1.067.065-2.14.085-3.212.11-.514.01-1.003-.115-1.472-.319-.309-.135-.593-.305-.733-.674.404.04.773.06 1.137.12.768.12 1.532.115 2.3 0 .149-.025.299-.01.454-.015 1.79-.05 3.536-.364 5.257-.823a14.707 14.707 0 0 0 3.616-1.491c1.826-1.058 3.237-2.519 4.25-4.375.882-1.611 1.426-3.331 1.695-5.137.125-.833.22-1.671.335-2.504.144-1.052.299-2.11.434-3.162.099-.778.159-1.566.259-2.344.12-.948.264-1.89.389-2.834.095-.703.175-1.411.269-2.114.145-1.093.3-2.185.439-3.277.055-.41.085-.818.13-1.227.07-.594.15-1.183.214-1.726.39-.21.714-.384 1.093-.594-.03.32-.05.584-.085.853-.14 1.058-.289 2.11-.429 3.162 0 .035.01.075.015.11-.02.09-.03.19-.07.27-.738 1.52-1.137 3.142-1.401 4.798h-.005Z" fill="#fff"/><path d="M159.608 88.051c-.055-.14-.09-.284-.135-.429-.115-.184-.215-.389-.354-.553-.27-.31-.454-.719-.878-.878-.04-.04-.08-.075-.12-.115l.01.01-.115-.085c-.015-.03-.025-.08-.049-.095-.804-.479-1.696-.643-2.609-.713-.673-.055-1.332.145-1.995.195-.858.07-1.686.269-2.519.448-1.965.424-3.836 1.138-5.706 1.866-.639.25-1.287.509-1.955.618-.958.16-1.906.025-2.719-.593-.065-.05-.169-.045-.284-.075-.015.18-.025.324-.04.474-.045.484-.04.977-.14 1.446-.209.983-.244 1.986-.389 2.973.379-.02.758-.04 1.143-.055-.38.02-.759.035-1.143.055-.089.579-.179 1.152-.269 1.73-.12 1.058-.239 2.116-.364 3.173-.06.499-.135.998-.195 1.497-.04.314-.064.628-.094.947l-.285 1.925c-.124.998-.244 1.996-.369 2.988-.164 1.267-.324 2.534-.494 3.801-.03.234-.089.469-.134.703v.664c2.324-.25 4.604-.509 6.878-.818.673-5.327 1.342-10.605 2.015-15.902.249-.18.499-.379.768-.553 1.372-.888 2.813-1.497 4.504-1.177.379.19.828.304.953.798.07.214.139.434.214.648.025.125.08.25.075.37-.025.822-.045 1.645-.105 2.463-.049.668-.154 1.332-.224 2-.045.39-.07.778-.11 1.167-.035.205-.08.404-.105.609-.129 1.062-.239 2.125-.379 3.187-.209 1.596-.444 3.192-.658 4.788-.035.25-.05.504-.075.779 1.068-.115 2.09-.205 3.108-.35a19.065 19.065 0 0 0 1.98-.399c1.112-.279 1.775-1.037 2.02-2.124.199-.873.309-1.771.439-2.659.07-.479.099-.968.164-1.451.095-.744.205-1.482.295-2.225.094-.783.164-1.566.259-2.35.13-1.062.269-2.119.409-3.177.07-.538.155-1.077.204-1.615.12-1.342.08-2.664-.409-3.946l-.019.015Z" fill="url('#paint1_linear_254_17770')"/><path d="M30.752 124.432c.025-.239.055-.439.065-.638.01-.235.13-.324.354-.344.763-.075 1.531-.13 2.29-.25.917-.144 1.86-.209 2.668-.763.683-.469 1.117-1.107 1.257-1.92.14-.848.224-1.701.344-2.554.1-.718.21-1.436.31-2.16.089-.688.169-1.376.259-2.06.094-.743.204-1.481.299-2.224.065-.499.11-.998.17-1.541.294-.04.568-.085.837-.12.833-.105 1.671-.215 2.504-.314.39-.05.783-.085 1.172-.13 1.173-.145 2.34-.309 3.512-.429.504-.05.998-.11 1.491-.239.993-.265 1.661-.853 1.91-1.851.15-.593.23-1.207.33-1.81.065-.385.105-.779.154-1.198.345-.049.684-.094 1.083-.149-.11.748-.215 1.426-.31 2.105-.054.409-.084.818-.144 1.227-.235 1.641-1.277 2.474-2.798 2.668-.798.105-1.591.215-2.39.314-.428.055-.857.09-1.281.135-1.357.155-2.719.304-4.075.464-.335.04-.664.105-1.048.165-.055.413-.11.832-.17 1.256-.11.798-.214 1.597-.324 2.39-.084.628-.134 1.267-.249 1.89a29.275 29.275 0 0 0-.36 3.018c-.049.668-.184 1.331-.313 1.99-.26 1.332-1.143 2.055-2.395 2.394-.798.214-1.62.274-2.439.364-.798.085-1.59.205-2.389.309-.105.015-.214 0-.329 0l.005.005ZM60.564 108.85c-.23.464-.474.928-.688 1.402-.464 1.032-.688 2.125-.783 3.252-.05.559.005 1.107.035 1.656.015.324.17.643.264.963.055.179.12.354.175.528-.08.539-.14 1.078-.245 1.606-.095.474-.21.948-.374 1.402-.334.903-1.042 1.387-1.945 1.616-.36.09-.728.16-1.097.209-.983.13-1.97.24-2.953.365-.294.034-.584.079-.938.129.045-.339.085-.623.13-.957.404-.06.803-.125 1.207-.18.833-.115 1.67-.204 2.504-.349 1.137-.2 1.94-.803 2.294-1.96.21-.689.29-1.387.394-2.09.13-.868.235-1.741.34-2.614.09-.743.159-1.486.254-2.229.084-.704.19-1.407.284-2.115.09-.704.175-1.412.27-2.12.1-.778.219-1.556.314-2.334.094-.744.164-1.487.259-2.23.09-.723.2-1.441.294-2.165.095-.723.17-1.451.26-2.174.1-.778.204-1.556.304-2.34.09-.723.174-1.451.264-2.174.105-.833.22-1.661.33-2.504.344-.055.653-.105 1.027-.16-.055.579-.095 1.112-.16 1.641-.09.723-.204 1.442-.299 2.165a347.278 347.278 0 0 0-.419 3.172c-.09.703-.164 1.412-.254 2.115-.14 1.072-.295 2.15-.43 3.222-.089.688-.154 1.377-.239 2.065-.1.818-.22 1.631-.319 2.449-.03.245-.03.489-.045.733l-.015.005ZM152.51 92.34c.07.215.14.435.214.649-1.775-.175-3.247.574-4.648 1.536-.245.17-.349.384-.374.704-.055.743-.185 1.48-.279 2.224-.06.444-.1.893-.16 1.342-.145 1.092-.294 2.19-.434 3.282-.085.648-.15 1.302-.239 1.95-.035.254-.11.504-.17.753-.015.07-.055.145-.05.215.045.583 0 1.152-.224 1.701-.035.079-.015.184-.01.279.02 1.167-.235 2.304-.345 3.461-.019.21-.124.29-.324.31-.803.074-1.606.154-2.404.249-.743.09-1.481.21-2.224.304-.444.06-.893.09-1.342.14-.185.02-.369.05-.614.085.015-.314.035-.624.05-.953l5.856-.708c.035-.165.075-.289.09-.414.074-.539.149-1.073.214-1.611.05-.409.075-.818.125-1.227.1-.773.219-1.546.319-2.32.09-.668.155-1.336.244-2.005.145-1.092.295-2.184.439-3.282.045-.334.075-.668.115-1.002l.24-1.95c.074-.614.134-1.228.229-1.836a.71.71 0 0 1 .259-.404c1.407-1.087 2.943-1.796 4.779-1.606.219.025.439.095.658.14l.01-.005ZM94.76 99.234l.21.648c-1.795-.18-3.147.768-4.469 1.766-.17 1.401-.334 2.793-.508 4.185a420.08 420.08 0 0 1-.454 3.506c-.02.165-.075.324-.12.484-.025.09-.095.179-.075.259.105.534-.075 1.038-.125 1.556-.114 1.118-.289 2.225-.434 3.337-.05.389-.09.783-.13 1.172-.05.444-.094.893-.144 1.392-2.28.274-4.554.554-6.858.828v-.873c.124-.055.24-.13.359-.145.519-.059 1.047-.094 1.566-.149.723-.075 1.452-.16 2.175-.25.558-.069 1.112-.154 1.74-.244.035-.105.11-.254.13-.409.165-1.357.32-2.713.484-4.07.18-1.447.37-2.893.554-4.339.12-.928.224-1.856.349-2.784.174-1.331.354-2.668.544-4 .02-.135.07-.314.17-.389.787-.574 1.57-1.167 2.513-1.471.833-.27 1.686-.335 2.529-.02l-.005.01ZM107.999 97.647l.194.649c-.833-.02-1.661.015-2.404.444-.598.344-1.177.728-1.76 1.097-.11.07-.205.165-.29.235-.164 1.182-.334 2.349-.484 3.516-.139 1.097-.244 2.195-.374 3.292-.07.613-.144 1.227-.234 1.835-.02.135-.175.255-.175.38.01.404.015.793-.124 1.187-.055.159.01.359-.01.533-.15 1.302-.305 2.604-.464 3.906-.045.389-.11.773-.175 1.227-2.284.309-4.579.568-6.918.843 0-.2-.015-.344 0-.489.015-.13.07-.249.125-.439 1.885-.299 3.825-.439 5.816-.738.034-.145.094-.334.119-.529.19-1.426.379-2.858.559-4.289.06-.479.085-.968.135-1.447.015-.165.074-.324.094-.489.085-.648.16-1.297.24-1.95.099-.798.204-1.596.304-2.394l.269-2.175c.1-.778.225-1.556.31-2.334a.667.667 0 0 1 .304-.509c1.012-.713 2.04-1.386 3.322-1.546.558-.07 1.077.03 1.596.18l.025.004ZM81.174 108.83l-.09.434c-.054.26.025.554-.204.773-.04.04-.04.145-.03.22.095 1.052-.184 2.07-.3 3.107-.099.928-.249 1.846-.368 2.774a2.642 2.642 0 0 0-.02.563c0 .05.12.095.18.14.129 0 .254.01.383.01-.005.055-.015.11-.025.184-.329-.02-.653-.04-.982-.064-1.033-.075-2.01.154-2.953.543a74.448 74.448 0 0 0-3.038 1.327c-1.7.793-3.461 1.411-5.312 1.721-1.476.249-2.977.339-4.454-.065-.658-.18-1.267-.454-1.78-.913-.06-.055-.08-.15-.115-.224.593.159 1.187.319 1.78.464.819.204 1.652.134 2.47.069.813-.064 1.62-.249 2.424-.429 1.276-.289 2.499-.758 3.696-1.281 1.401-.614 2.763-1.327 4.24-1.776.927-.279 1.855-.444 2.817-.215.07.015.145 0 .235-.01.035-.119.075-.219.09-.329.19-1.446.384-2.888.563-4.334.095-.763.16-1.526.255-2.285.174-1.351.369-2.703.538-4.055.14-1.132.225-2.274.384-3.401.13-.913 0-1.786-.254-2.654-.075-.264-.21-.514-.324-.768-.075-.17-.16-.334-.24-.499l-.01.01c.15.09.325.16.454.274.529.474.818 1.108 1.083 1.751-.055.479-.105.963-.165 1.442-.07.553-.145 1.107-.22 1.656-.189 1.441-.384 2.888-.568 4.334-.065.499-.09 1.008-.13 1.506h-.01Z" fill="#fff"/><path d="M52.454 90.87c-.274.03-.548.064-.828.094-.444.045-.893.07-1.337.13-.733.094-1.466.22-2.204.319-.644.085-1.292.145-1.94.224-1.237.15-2.474.305-3.711.454-.958.115-1.92.235-2.878.34-1.093.124-2.185.219-3.272.359-.494.064-.998.15-1.457.329-1.067.419-1.686 1.257-1.97 2.349-.13.484-.21.978-.26 1.481-.1.998-.279 1.986-.418 2.983-.045.329-.065.663-.095.998-.09.708-.175 1.411-.264 2.119l-.33 2.494c-.064.484-.14.963-.194 1.447-.06.538-.105 1.082-.155 1.621-.11.778-.224 1.556-.334 2.334-.105.723-.21 1.447-.304 2.175-.09.688-.165 1.376-.25 2.07-.094.763-.2 1.521-.299 2.284-.09.689-.174 1.377-.264 2.065-.1.763-.205 1.526-.3 2.29-.044.344-.084.693-.134 1.097.444-.035.833-.05 1.222-.095.763-.085 1.526-.184 2.284-.284.519-.07 1.048-.125 1.556-.245 1.512-.359 2.405-1.311 2.62-2.863.124-.887.228-1.78.338-2.673.095-.743.185-1.486.28-2.23.174-1.376.349-2.753.528-4.13.05-.364.115-.723.17-1.097.578-.075 1.097-.144 1.616-.204 1.082-.125 2.165-.245 3.247-.369.928-.11 1.86-.215 2.788-.34a18.459 18.459 0 0 0 1.82-.324c1.248-.299 1.886-1.182 2.09-2.384.185-1.117.295-2.25.445-3.457-.414.07-.759.13-1.108.185-.334.035-.668.065-.997.1-.444.05-.893.095-1.337.149-.798.1-1.591.205-2.384.305-.833.104-1.666.214-2.5.314-.423.05-.852.075-1.281.11l-1.023.119c-.209.035-.419.065-.653.1v-.868c.075-.384.165-.763.215-1.152.094-.763.16-1.531.249-2.294.05-.424.115-.843.18-1.277a1028.2 1028.2 0 0 1 3.945-.48c.803-.094 1.606-.164 2.404-.258.853-.1 1.706-.205 2.559-.325.888-.124 1.78-.224 2.628-.563.679-.27 1.227-.704 1.517-1.357.224-.504.299-1.072.409-1.621.11-.549.18-1.107.274-1.656.055-.324.125-.648.2-1.057-.42.064-.764.12-1.108.174l.005-.01Z" fill="url('#paint2_linear_254_17770')"/><path d="M116.952 97.064c-.08.25-.135.509-.25.743-.274.579-.349 1.212-.564 1.806-.214.593-.229 1.227-.438 1.816-.015.049.005.109.01.164-.01 1.033-.045 2.065-.01 3.098.02.593.154 1.182.234 1.77-.15 1.132-.304 2.26-.454 3.392-.085.648-.145 1.302-.244 1.95-.055.349-.15.693-.265 1.033-.304.892-.972 1.421-1.855 1.641-.668.169-1.362.244-2.045.349-.758.115-1.516.219-2.28.314-.239.03-.483.025-.773.035 0-.17-.015-.314 0-.454.015-.13.07-.254.125-.449.569-.075 1.177-.145 1.781-.234.793-.12 1.591-.185 2.369-.424 1.052-.319 1.636-1.038 1.885-2.045.175-.704.255-1.432.359-2.155.125-.868.235-1.741.34-2.614.089-.743.164-1.486.254-2.229.08-.708.17-1.412.254-2.12.095-.758.2-1.521.3-2.279.104-.798.244-1.591.304-2.395.065-.877.075-1.76-.115-2.638-.149-.683-.354-1.337-.708-1.94-.035-.06-.035-.14-.05-.215.274 0 .384.23.524.39.613.708.977 1.545 1.157 2.458.08.404.1.818.15 1.227l.005.005ZM139.332 94.286c-.12 1.057-.239 2.114-.364 3.172-.06.499-.135.998-.194 1.496-.04.315-.065.629-.095.948l-.285 1.925c-1.246.15-2.493.29-3.735.449-.744.095-1.482.215-2.22.309-.464.06-.933.085-1.397.14-.892.105-1.78.225-2.673.329-.743.09-1.491.165-2.235.25-.668.074-1.336.159-2.074.249-.01.624-.085 1.247.089 1.875.065.235.095.474.14.709-.394-.135-.678-.404-.898-.748-.005-.095.01-.2-.025-.28-.279-.613-.269-1.272-.309-1.925-.01-.145.025-.289.035-.424.314-.05.588-.105.868-.14.763-.089 1.526-.164 2.289-.254.818-.1 1.631-.215 2.449-.314.743-.09 1.492-.15 2.235-.24 1.207-.144 2.409-.299 3.616-.444.703-.084 1.411-.149 2.115-.239.513-.065 1.022-.155 1.511-.234.08-.539.17-1.018.224-1.502.095-.858.21-1.71.245-2.569.03-.688-.06-1.381-.085-2.074-.025-.838-.279-1.621-.593-2.385-.16-.384-.285-.813-.664-1.072h.005v-.234c.155.114.294.19.399.299.743.763 1.212 1.676 1.516 2.688.025.085.075.165.11.245v-.005ZM138.02 104.815c-.164 1.267-.324 2.534-.494 3.801-.03.234-.089.469-.134.703-.399.753-.943 1.402-1.656 1.856-.599.379-1.257.668-1.916.932-1.531.619-3.142.933-4.778 1.162-1.367.19-2.733.275-4.105.18-1.656-.12-3.257-.474-4.669-1.426-.234-.16-.528-.27-.623-.584.374.155.753.309 1.127.474.993.429 2.04.563 3.103.693 1.152.14 2.289.045 3.421-.06 1.921-.174 3.801-.573 5.607-1.252.678-.254 1.321-.613 1.94-.992 1.232-.758 1.786-1.975 2.1-3.322.159-.669.254-1.357.384-2.065.154-.075.314-.175.489-.235.045-.014.129.085.199.13l.005.005ZM54.344 92.33c-.314.878-.468 1.786-.563 2.714-.08.813-.225 1.62-.344 2.434-.823.524-1.736.748-2.699.848-1.262.13-2.524.3-3.786.454l-3.676.449c-.688.084-1.371.18-2.14.279-.169.588-.209 1.252-.264 1.915-.055.654-.144 1.302-.214 1.95l-1.023.12c.095-.952.185-1.9.285-2.853.064-.633.15-1.262.234-1.935.304-.05.628-.11.958-.15.927-.115 1.855-.23 2.783-.334.708-.08 1.416-.15 2.12-.234.818-.1 1.63-.215 2.449-.32.668-.084 1.337-.15 2.005-.254.863-.135 1.67-.389 2.31-1.037.598-.609.777-1.392.912-2.19.09-.514.16-1.038.23-1.556.034-.275.189-.344.433-.294l-.01-.005ZM160.156 96.615c0 1.013-.01 2.03 0 3.043 0 .653.12 1.297.279 1.93.035.145.045.294.065.439-.07.364-.164.728-.209 1.092-.095.744-.155 1.487-.255 2.23-.104.778-.204 1.551-.543 2.279-.285.614-.719 1.068-1.327 1.307a7.598 7.598 0 0 1-1.616.439c-1.018.155-2.04.244-3.063.369-.254.03-.503.075-.788.12v-.888c.2-.045.389-.105.584-.13.868-.119 1.741-.219 2.608-.349.31-.045.619-.134.923-.219 1.053-.295 1.676-1.018 1.97-2.04.22-.753.295-1.537.369-2.32.065-.688.17-1.371.26-2.06.1-.743.204-1.481.299-2.224.125-.983.244-1.965.369-2.948 0-.03.045-.05.07-.08l.005.01Z" fill="#fff"/><path d="M80.536 97.832c-.01-.045-.015-.09-.025-.135-.13-.194-.245-.409-.4-.583-.214-.235-.343-.569-.712-.634l-.02.01c-.04-.04-.08-.074-.12-.114h.005c-.03-.01-.065-.03-.095-.045.03-.02.055-.045.085-.065-.38-.334-.838-.524-1.307-.688a9.369 9.369 0 0 0-3.008-.544c-.808-.005-1.62 0-2.429.01-.11 0-.224.01-.334.025l-1.267.18c-.863.13-1.73.229-2.588.398-.709.14-1.417.315-2.1.54-.833.273-1.656.598-2.34 1.171-.449.374-.798.823-.987 1.397-.3.893-.33 1.825-.464 2.738-.065.394-.234.783-.105 1.232.26-.065.514-.08.718-.189 1.068-.589 2.185-1.058 3.312-1.502a12.105 12.105 0 0 1 5.562-.788c.294.025.588.075.883.11.04.035.08.065.12.1.149.08.304.149.443.239.225.14.444.289.47.589l.199.204c0 .115.005.23.01.339.144.399.09.793-.025 1.187-.03.015-.065.04-.095.045-1.511.335-3.023.689-4.539.998-1.97.404-3.856 1.042-5.606 2.04-.998.569-1.92 1.232-2.624 2.165-.194.194-.384.389-.578.583-.23.464-.474.928-.689 1.402-.464 1.032-.688 2.125-.783 3.252-.05.558.005 1.107.035 1.656.015.324.17.643.264.962.055.18.12.355.175.529.035.04.075.075.1.125.374.638.798 1.217 1.436 1.621.883.564 1.86.793 2.883.828a17.89 17.89 0 0 0 2.195-.08c1.332-.12 2.618-.454 3.86-.923 1.188-.449 2.35-.987 3.517-1.491.942-.409 1.87-.868 2.883-1.097.708-.16 1.421-.35 2.165-.145.189.05.398.025.603.035.244-1.915.479-3.771.718-5.631.19-1.487.384-2.968.569-4.454.165-1.342.31-2.684.484-4.026.16-1.237.07-2.434-.444-3.58l-.01.004Zm-7.178 10.315c-.04.344-.085.683-.124 1.027-.03.24-.055.479-.085.719-.075.613-.145 1.222-.235 1.83a.67.67 0 0 1-.19.379c-1.037.913-2.149 1.676-3.575 1.841-.52.06-1.028.159-1.537-.01-.279-.025-.578.03-.818-.175-.613-.259-.613-.833-.638-1.346-.075-1.826.728-3.028 2.354-3.761 1.097-.494 2.255-.768 3.417-1.038.18-.04.359-.09.543-.139.32-.07.634-.135.978-.21v.648c-.03.08-.055.155-.085.235h-.005Z" fill="url('#paint3_linear_254_17770')"/><path d="M74.026 101.488c0 .115.005.23.01.339-.598-.045-1.197-.114-1.795-.124-1.736-.035-3.377.394-4.963 1.057-.928.389-1.83.848-2.748 1.272-.24.11-.48.209-.803.1.045-.315.074-.624.15-.928.024-.105.149-.205.258-.259 1.602-.813 3.253-1.522 5.018-1.881 1.132-.229 2.285-.214 3.432-.129.419.029.828.224 1.237.344.065.069.13.139.2.204l.004.005ZM173.653 104.591c-.174.548-.344 1.097-.518 1.646-.559.249-1.113.513-1.676.748a8.115 8.115 0 0 1-2.998.618c-1.032.02-2.065.025-3.042-.359-.604-.239-1.212-.489-1.651-1.002l.03-.03c.109.015.234 0 .334.045 1.192.568 2.464.608 3.736.518 1.506-.105 2.922-.568 4.224-1.341.449-.265.873-.574 1.312-.848.06-.035.16 0 .239 0l.01.005ZM160.69 93.652c-.07.355-.135.709-.22 1.063-.015.055-.109.09-.164.134.06-.364.154-.723.174-1.087.06-.953.155-1.905.11-2.858-.05-1.057-.274-2.1-.863-3.022-.005-.01 0-.035.01-.11.1.05.195.08.259.14.818.777 1.242 1.75 1.402 2.852.015.105.055.21.085.31-.24.713-.484 1.426-.718 2.144-.045.14-.055.29-.085.434h.01Z" fill="#fff"/><path d="M115.45 95.243c-.064-1.102-.369-2.144-1.022-3.052-.2-.274-.364-.619-.763-.683-.04-.04-.08-.075-.12-.115-.04-.04-.075-.085-.115-.125-1.282-.838-2.688-.878-4.125-.623-.872.154-1.72.414-2.553.738-1.452.564-2.818 1.267-4.065 2.205-.385.289-.759.583-1.123.862-.244-.319-.464-.613-.688-.902-.19-.195-.384-.39-.574-.584a4.474 4.474 0 0 0-1.516-.663 6.035 6.035 0 0 0-2.1-.145c-.987.11-1.96.28-2.903.544-1.536.434-3.047.962-4.559 1.476-1.127.38-2.264.708-3.451.878-.778.11-1.482-.04-2.19-.27-.22-.074-.419-.214-.643-.329-.025.08-.05.13-.055.185-.08.628-.165 1.252-.235 1.88-.05.444-.074.893-.11 1.337-.099.674-.194 1.352-.294 2.025-.054.479-.104.963-.164 1.442-.07.553-.145 1.107-.22 1.656-.19 1.441-.384 2.888-.568 4.334-.065.499-.09 1.008-.13 1.506l-.09.434c-.055.26.025.554-.204.773-.04.04-.04.145-.03.22.095 1.052-.185 2.07-.3 3.107-.1.928-.249 1.846-.369 2.773a2.66 2.66 0 0 0-.02.564c0 .05.12.095.18.14.13 0 .254.01.384.015.31-.065.614-.155.923-.19 1.377-.164 2.758-.314 4.135-.469.404-.045.808-.104 1.237-.159.134-1.048.26-2.07.389-3.088.1-.798.204-1.596.304-2.394.125-1.002.245-2.01.37-3.013.119-.987.234-1.975.363-2.962.18-1.372.374-2.744.544-4.12.03-.225.09-.389.284-.514.38-.24.749-.494 1.128-.738.987-.634 2.035-1.018 3.232-.778.07.015.15-.005.224-.01a.99.99 0 0 0-.31-.494c.14.125.25.29.31.494.1.045.195.085.294.13.3.144.554.339.619.693l.21.648c.04.863.054 1.721-.08 2.584-.15.962-.24 1.93-.355 2.898-.08.668-.144 1.337-.219 2.005-.095.763-.184 1.526-.284 2.289-.1.743-.205 1.487-.31 2.23-.1.723-.224 1.446-.294 2.175-.04.399-.24.793-.085 1.217 2.31-.28 4.594-.554 6.904-.828.069-.614.119-1.188.194-1.761.17-1.322.359-2.639.524-3.96.209-1.676.394-3.357.603-5.033.18-1.472.394-2.933.564-4.404.065-.54.224-.973.753-1.203.1-.044.185-.13.274-.194.783-.534 1.606-.968 2.569-1.077.16-.02.319-.045.479-.065h.284c.125.02.245.045.369.065.075 0 .15.01.225.015.424.14.793.344.913.823l.194.648c0 .728.03 1.461-.01 2.19-.035.708-.145 1.411-.219 2.114-.105.719-.215 1.442-.31 2.16-.089.708-.159 1.417-.249 2.12-.14 1.097-.289 2.19-.439 3.282-.13.928-.264 1.855-.389 2.783-.03.235-.035.474-.06.758.22-.02.384-.035.544-.054.429-.055.853-.1 1.282-.165 1.057-.15 2.12-.274 3.167-.479.758-.145 1.407-.539 1.776-1.257.159-.314.309-.648.369-.992.209-1.237.384-2.479.558-3.726.1-.724.165-1.452.255-2.18.139-1.152.284-2.299.429-3.452.09-.723.159-1.456.279-2.174.22-1.322.354-2.649.269-3.985l.005-.005Z" fill="url('#paint4_linear_254_17770')"/><path d="M80.536 97.832c-.01-.045-.015-.09-.025-.134.164-.06.204.03.21.17l.01-.01c-.066-.01-.13-.016-.195-.026ZM163.772 106.242c-.035-.005-.089 0-.104-.025-.035-.05-.05-.11-.075-.165.06.02.124.03.179.06.02.01.02.065.03.1l-.03.03ZM186.966 104.077l-.18-.03v-.035l.185-.015v.08h-.005ZM119.65 111.439l-.194-.03.03-.075.164.105ZM62.056 119.36c-.065-.01-.13-.015-.195-.025l.03-.075.16.105.005-.005ZM159.473 87.622c.064-.005.129-.01.189-.01v.035c-.06-.005-.124-.015-.184-.02l-.005-.005ZM79.264 96.386c-.03-.02-.065-.035-.095-.055l.085-.065c0 .04.005.08.01.115v.005ZM115.126 92.994c-.03-.015-.06-.025-.09-.04.015-.015.035-.03.05-.045.01.03.025.06.035.09l.005-.005ZM124.359 106.217a1.4 1.4 0 0 0-.08-.1 1.4 1.4 0 0 0 .08.1ZM158.246 86.2c-.04-.04-.08-.08-.125-.114.04.04.08.08.125.115Z" fill="#fff"/><path d="M205.565 86.36c-.115-.788-.394-1.521-.678-2.26l-.27-.608c-.074-.1-.149-.2-.229-.299-.14-.165-.264-.344-.414-.499-.17-.174-.264-.444-.559-.469h-.025c-.039.005-.069 0-.089-.015.02.015.05.02.089.02a2.757 2.757 0 0 0-.124-.22l-.115-.114.005.005-.12-.12.01.01c-.035-.03-.07-.064-.104-.094-1.417-1.078-3.048-1.527-4.799-1.591-1.426-.055-2.828.124-4.224.428-1.582.345-3.073.908-4.45 1.756-2.075 1.287-3.686 3.023-4.848 5.173-.114.194-.234.384-.349.578-.02.09-.03.19-.07.27-.738 1.52-1.137 3.142-1.401 4.798-.205.374-.105.788-.125 1.177-.045.778-.175 1.561-.035 2.35.12.678.19 1.36.284 2.04.02.03.05.059.055.089.314 1.451 1.063 2.658 2.165 3.636 1.352 1.192 2.988 1.686 4.748 1.781 1.352.075 2.694-.05 4.031-.305 3.167-.608 5.855-2.035 7.99-4.469 1.91-2.174 3.003-4.733 3.496-7.556.12-.684.15-1.382.25-2.065.164-1.147.055-2.285-.11-3.422l.015-.005Zm-7.033 4.888c-.03.16 0 .334 0 .504-.189.898-.329 1.81-.578 2.694-.349 1.261-.913 2.424-1.891 3.336-.718.674-1.596 1.033-2.548 1.227a3.675 3.675 0 0 1-1.996-.144 1.623 1.623 0 0 1-.907-.629c-.399-.354-.539-.848-.684-1.327-.239-.783-.249-1.59-.239-2.404.025-1.451.239-2.883.603-4.284.275-1.053.704-2.055 1.337-2.958.778-1.097 1.811-1.756 3.147-1.98.704-.12 1.382-.11 2.055.11.375.084.594.394.888.593.04.075.075.15.115.225h-.005c.04.035.075.08.115.124l.254.519c.319.504.379 1.087.419 1.651.06.913.095 1.83-.085 2.743Zm4.734-9.162v.03-.03Zm.025.1s-.02-.02-.02-.03c0 .014.015.02.02.03Z" fill="url('#paint5_linear_254_17770')"/><path d="M198.198 86.859c-1.132-.23-2.229-.13-3.282.354-.977.449-1.641 1.222-2.165 2.125-.648 1.127-1.017 2.364-1.251 3.636-.25 1.367-.424 2.743-.32 4.135.045.588.22 1.167.334 1.756a1.624 1.624 0 0 1-.907-.629c-.01-.095 0-.195-.03-.28-.265-.733-.349-1.486-.339-2.264.01-.957.069-1.905.214-2.858.165-1.097.409-2.165.823-3.192.294-.733.658-1.431 1.167-2.04.738-.883 1.676-1.407 2.808-1.626.798-.155 1.562-.125 2.315.17.084.034.174.044.264.07h-.005c.04.034.075.08.115.124l.254.519h.005ZM73.234 109.174c-.739.19-1.492.344-2.215.579-.763.249-1.491.574-2.135 1.082-.623.494-.972 1.132-1.147 1.876-.095.394-.085.813-.125 1.222-.279-.025-.578.03-.818-.175 0-.055 0-.115-.01-.169-.23-1.018-.04-1.961.514-2.839.504-.803 1.297-1.227 2.135-1.576 1.262-.528 2.598-.778 3.93-1.032-.04.344-.085.683-.124 1.027l-.005.005Z" fill="#fff"/><path d="M182.202 83.013c-1.277.574-2.609.878-4.015.813-.294-.015-.589-.065-.888-.104-.683-.085-1.367-.18-2.045-.265-.793-.1-1.581-.24-2.379-.284-.574-.035-1.152.07-1.731.085-.888.025-1.721.299-2.534.598a10.943 10.943 0 0 0-3.177 1.85 12.321 12.321 0 0 0-2.693 3.063c-.459.743-.838 1.536-1.252 2.31-.24.713-.484 1.426-.719 2.144-.044.14-.054.29-.084.434-.07.354-.135.709-.22 1.063-.015.055-.11.09-.164.134.025.05.074.105.064.15-.099.499-.234.992-.179 1.506 0 .035-.025.07-.035.105 0 1.013-.01 2.03 0 3.043 0 .653.12 1.296.279 1.93.035.144.045.294.065.439.035.015.065.03.1.04.224.957.733 1.76 1.401 2.459.968 1.012 2.215 1.436 3.572 1.566 2.164.204 4.18-.289 6.045-1.372.424-.244.868-.484 1.207-.883.244-.289.623-.469 1.003-.743.029.579-.08 1.038-.18 1.496-.175.549-.344 1.098-.519 1.646-.199.534-.518.993-.898 1.412-.568.629-1.301 1.018-2.079 1.307-.794.294-1.612.469-2.455.588-1.341.19-2.658.105-3.975-.144-.588-.115-1.172-.265-1.756-.394-.334-.075-.658-.1-.972.055-.09.653-.205 1.281-.254 1.915-.05.658-.085 1.322-.035 1.975.079 1.008.478 1.591 1.531 1.801.384.075.778.164 1.162.159.938 0 1.88-.02 2.818-.089 1.028-.08 2.06-.165 3.073-.36 1.541-.299 3.052-.728 4.479-1.426 1.247-.609 2.374-1.377 3.347-2.359.892-.898 1.586-1.946 2.154-3.078.938-1.87 1.372-3.875 1.606-5.935.145-1.267.3-2.534.454-3.801.18-1.506.364-3.013.549-4.519.065-.519.13-1.043.204-1.561.08-.574.19-1.147.26-1.726.159-1.267.299-2.534.459-3.8.159-1.258.339-2.515.523-3.881-.439.224-.793.404-1.127.633l.01.005Zm-6.409 5.377c-.05.205-.095.374-.135.544-.035.244-.065.493-.1.738-.05.648-.094 1.292-.144 1.94v.01c-.02.08-.05.165-.075.245-.15 1.092-.304 2.184-.444 3.282-.13 1.022-.254 2.045-.359 3.067-.025.225-.095.384-.275.524-1.431 1.072-3.007 1.676-4.828 1.491-.184-.02-.364-.085-.543-.13-.335-.124-.674-.244-.913-.538-.1-.12-.205-.235-.304-.354-.125-.39-.305-.773-.36-1.172a9.577 9.577 0 0 1-.089-1.686c.035-1.162.189-2.32.543-3.432.439-1.362 1.103-2.584 2.245-3.496.783-.629 1.676-.983 2.643-1.168.26-.05.519-.12.778-.114.444 0 .888.054 1.327.084.324.05.649.1 1.038.155l-.005.01Z" fill="url('#paint6_linear_254_17770')"/><path d="M175.554 89.672c-.634.065-1.282.065-1.896.204-1.471.335-2.603 1.188-3.436 2.444-.629.948-1.023 1.996-1.237 3.103-.115.603-.19 1.217-.24 1.83-.05.614-.144 1.228-.02 1.846.065.33.1.663.15.998-.334-.125-.673-.245-.913-.54-.02-.164-.035-.328-.065-.493-.05-.294-.144-.583-.154-.878-.07-1.965.174-3.88.997-5.69.384-.844.893-1.612 1.601-2.2 1.542-1.282 3.327-1.711 5.302-1.362-.034.244-.064.494-.099.738h.01Z" fill="#fff"/><path d="M137.312 91.403c-.015-.03-.01-.075-.01-.11h.005c-.08-.115-.16-.234-.239-.354-.345-.529-.704-1.042-1.227-1.412-.19-.14-.375-.289-.574-.414a6.43 6.43 0 0 0-3.003-.952c-1.157-.07-2.329-.115-3.486.09-.549.1-1.107.154-1.646.289-.863.22-1.716.479-2.539.833-1.332.568-2.569 1.287-3.636 2.264-.509.464-.993.953-1.462 1.457a11.203 11.203 0 0 0-1.765 2.514l-.778 1.466c-.08.25-.135.509-.25.743-.274.579-.349 1.212-.563 1.806-.215.593-.23 1.227-.439 1.815-.015.05.005.11.01.165-.01 1.032-.045 2.065-.01 3.097.02.594.154 1.182.234 1.771.025.025.06.05.07.08.474 1.85 1.516 3.272 3.187 4.225 1.472.837 3.083 1.117 4.744 1.202 1.242.059 2.479-.035 3.711-.215a31.372 31.372 0 0 0 1.935-.329c1.302-.279 2.569-.678 3.776-1.252 1.511-.713 2.504-1.841 2.952-3.482.295-1.077.38-2.174.549-3.267.015-.099-.015-.209-.025-.314-.628.04-.628.045-1.052.364-1.631 1.222-3.377 2.225-5.352 2.794-.813.234-1.646.349-2.489.438-1.242.135-2.434.01-3.576-.498a1.4 1.4 0 0 0-.08-.1v.01c-.384-.135-.669-.404-.893-.748-.219-.389-.499-.753-.638-1.172-.225-.679-.285-1.392-.22-2.175 5.023-.604 10.041-1.202 15.083-1.811.13-1.032.265-2.03.374-3.032.06-.559.105-1.123.11-1.686.015-1.422-.179-2.803-.788-4.11v.01Zm-5.896 4.918c-.03.519-.139.613-.633.643-.688.04-1.377.125-2.06.195-.449.045-.893.094-1.342.144-.444.05-.893.095-1.337.14-.314.035-.633.065-.947.095-.255.045-.514.095-.768.14l-.085.014c-.115 0-.225.005-.339.01-.265.04-.529.075-.848.125.045-.3.09-.573.134-.853.07-.15.15-.294.205-.449.574-1.546 1.541-2.753 3.097-3.372 1.033-.409 2.11-.638 3.227-.279.07.025.15.025.225.035.379.25.798.454.993.898.079.18.159.364.234.544.025.015.055.02.08.02.115.643.199 1.291.159 1.95h.005Z" fill="url('#paint7_linear_254_17770')"/><path d="M131.177 94.35c-1.566-.323-3.008.016-4.299.924-.808.568-1.387 1.351-1.781 2.264-.254.045-.514.095-.768.14-.035-.025-.06-.015-.085.015l-.339.01c0-.105-.03-.22 0-.315.379-1.117.943-2.12 1.915-2.823 1.566-1.142 3.262-1.531 5.118-.758.08.18.154.364.234.544h.005Z" fill="#fff"/><path d="M124.244 97.692c.02-.034.05-.04.084-.014l-.084.014ZM80.336 116.835s-.01-.014-.02-.024a.1.1 0 0 0 .015.024h.005Z" fill="#fff"/></g><defs><linearGradient id="paint0_linear_254_17770" x1="55.896" y1="89.767" x2="55.896" y2="120.452" gradientUnits="userSpaceOnUse"><stop stop-color="#1FA0DC"/><stop offset="1" stop-color="#1E3084"/></linearGradient><linearGradient id="paint1_linear_254_17770" x1="148.75" y1="85.184" x2="148.75" y2="109.973" gradientUnits="userSpaceOnUse"><stop stop-color="#1FA0DC"/><stop offset="1" stop-color="#1E3084"/></linearGradient><linearGradient id="paint2_linear_254_17770" x1="41.406" y1="90.705" x2="41.406" y2="122.926" gradientUnits="userSpaceOnUse"><stop stop-color="#1FA0DC"/><stop offset="1" stop-color="#1E3084"/></linearGradient><linearGradient id="paint3_linear_254_17770" x1="70.072" y1="95.032" x2="70.072" y2="119.227" gradientUnits="userSpaceOnUse"><stop stop-color="#1FA0DC"/><stop offset="1" stop-color="#1E3084"/></linearGradient><linearGradient id="paint4_linear_254_17770" x1="97.808" y1="90.507" x2="97.808" y2="116.846" gradientUnits="userSpaceOnUse"><stop stop-color="#1FA0DC"/><stop offset="1" stop-color="#1E3084"/></linearGradient><linearGradient id="paint5_linear_254_17770" x1="194.16" y1="80.096" x2="194.16" y2="104.203" gradientUnits="userSpaceOnUse"><stop stop-color="#1FA0DC"/><stop offset="1" stop-color="#1E3084"/></linearGradient><linearGradient id="paint6_linear_254_17770" x1="171.733" y1="82.375" x2="171.733" y2="114.91" gradientUnits="userSpaceOnUse"><stop stop-color="#1FA0DC"/><stop offset="1" stop-color="#1E3084"/></linearGradient><linearGradient id="paint7_linear_254_17770" x1="126.893" y1="88.102" x2="126.893" y2="111.995" gradientUnits="userSpaceOnUse"><stop stop-color="#1FA0DC"/><stop offset="1" stop-color="#1E3084"/></linearGradient><filter id="filter0_d_254_17770" x=".356" y=".1" width="287.544" height="197.913" filterUnits="userSpaceOnUse" color-interpolation-filters="sRGB"><feFlood flood-opacity="0" result="BackgroundImageFix"/><feColorMatrix in="SourceAlpha" values="0 0 0 0 0 0 0 0 0 0 0 0 0 0 0 0 0 0 127 0" result="hardAlpha"/><feOffset dy="4"/><feGaussianBlur stdDeviation="14.45"/><feComposite in2="hardAlpha" operator="out"/><feColorMatrix values="0 0 0 0 1 0 0 0 0 1 0 0 0 0 1 0 0 0 0.86 0"/><feBlend in2="BackgroundImageFix" result="effect1_dropShadow_254_17770"/><feBlend in="SourceGraphic" in2="effect1_dropShadow_254_17770" result="shape"/></filter></defs></svg>