<svg width="131" height="52" fill="none" xmlns="http://www.w3.org/2000/svg"><path d="M65.552.785c1.613.025 3.38.038 5.159.077a158.693 158.693 0 0 1 8.424.448c1.318.102 2.637.243 3.943.371 1.203.128 2.406.256 3.597.41 1.37.18 2.727.384 4.084.602 3.008.461 5.991 1.05 8.948 1.755 4.635 1.089 9.179 2.46 13.583 4.278 3.047 1.255 6.004 2.728 8.744 4.572 1.831 1.23 3.533 2.588 5.031 4.227 1.344 1.473 2.445 3.1 3.124 4.996.448 1.268.678 2.574.64 3.906-.064 1.845-.589 3.574-1.485 5.188-.947 1.716-2.202 3.189-3.636 4.521-2.304 2.139-4.929 3.817-7.694 5.29-3.098 1.64-6.337 2.959-9.653 4.099a95.765 95.765 0 0 1-10.292 2.882c-2.01.435-4.033.845-6.056 1.23-1.331.255-2.675.435-4.02.64-1.19.179-2.393.333-3.584.486-.922.116-1.844.205-2.765.295-.91.09-1.805.18-2.714.256-.564.051-1.14.09-1.716.128l-2.1.154c-.819.051-1.65.102-2.47.128-1.6.064-3.2.128-4.814.14-2.086.026-4.16 0-6.247 0-1.011 0-2.023-.038-3.034-.076-1.011-.038-2.023-.09-3.034-.14-.743-.04-1.485-.078-2.215-.129-.627-.038-1.255-.09-1.882-.14-.512-.04-1.024-.09-1.536-.129-.666-.064-1.319-.115-1.984-.192-.59-.064-1.178-.128-1.754-.205a110.22 110.22 0 0 1-2.036-.243c-.73-.103-1.46-.205-2.202-.32-.896-.129-1.792-.257-2.688-.41-1.19-.205-2.381-.423-3.56-.654a98.831 98.831 0 0 1-7.655-1.767c-3.776-1.012-7.476-2.229-11.073-3.766-2.932-1.255-5.761-2.703-8.398-4.509-1.69-1.152-3.278-2.446-4.66-3.97-1.268-1.383-2.318-2.895-3.009-4.65a10.467 10.467 0 0 1-.742-4.841c.128-1.64.64-3.164 1.433-4.598.884-1.614 2.036-3.01 3.355-4.279 1.779-1.716 3.776-3.125 5.901-4.393 3.021-1.806 6.222-3.24 9.512-4.47 3.636-1.358 7.349-2.446 11.112-3.356 2.074-.5 4.16-.948 6.26-1.332 1.511-.282 3.022-.512 4.545-.756 1.293-.205 2.599-.371 3.892-.55.896-.116 1.805-.205 2.714-.295l2.624-.269a76.03 76.03 0 0 1 2.407-.18c1.05-.076 2.1-.14 3.137-.204.435-.026.883-.051 1.318-.064 1.562-.051 3.111-.09 4.673-.128.794-.026 1.6-.039 2.548-.052V.785Zm-.666 50.017v.05c2.074-.05 4.148-.089 6.209-.153 1.203-.038 2.42-.102 3.623-.166 1.331-.077 2.65-.18 3.981-.282a131.75 131.75 0 0 0 7.758-.845c1.472-.205 2.945-.436 4.417-.666 2.445-.385 4.865-.884 7.272-1.435 4.173-.96 8.282-2.139 12.302-3.663 3.342-1.268 6.58-2.741 9.627-4.611 2.074-1.281 4.033-2.716 5.736-4.47 1.165-1.204 2.176-2.524 2.918-4.048.858-1.768 1.217-3.612.973-5.572-.153-1.28-.576-2.484-1.177-3.612-.948-1.78-2.266-3.279-3.764-4.623-1.754-1.576-3.687-2.882-5.736-4.048-3.2-1.819-6.567-3.24-10.036-4.457-4.929-1.717-9.986-2.972-15.107-3.932a131.468 131.468 0 0 0-7.745-1.204c-1.613-.193-3.226-.385-4.839-.538-1.383-.141-2.765-.244-4.148-.333-1.408-.09-2.803-.167-4.212-.231-1.165-.051-2.33-.09-3.482-.102a190.577 190.577 0 0 0-8.974.05c-.538.014-1.063.026-1.6.065-1.204.064-2.42.128-3.623.205-.896.051-1.792.115-2.689.192-1.293.115-2.598.243-3.891.371-1.191.128-2.382.257-3.572.423-1.69.23-3.38.5-5.057.769-2.74.435-5.454.999-8.155 1.639-3.802.91-7.553 1.998-11.214 3.369-3.2 1.204-6.312 2.587-9.256 4.342-2.061 1.216-3.994 2.587-5.736 4.24-1.254 1.19-2.342 2.497-3.187 4.021-.794 1.422-1.28 2.933-1.357 4.56-.077 1.383.179 2.728.691 4.022.653 1.665 1.664 3.1 2.868 4.406 1.293 1.409 2.765 2.613 4.34 3.702 2.816 1.947 5.85 3.458 9 4.764 4.89 2.024 9.96 3.484 15.119 4.611 1.625.359 3.264.666 4.903.961 1.37.256 2.752.461 4.135.666.998.154 2.01.282 3.008.41 1.076.128 2.164.256 3.24.371.908.09 1.83.167 2.739.244 1.126.09 2.24.18 3.367.256 1.037.064 2.074.128 3.11.166 1.255.052 2.51.09 3.764.116 1.152.013 2.305 0 3.457 0Z" fill="#F9A51A"/><path d="M95.777 36.687a6.93 6.93 0 0 1-2.202-.243c-2.215-.64-3.572-2.076-4.02-4.343-.025-.115-.025-.217-.025-.333V29.72h-2.804c0 .09-.013.18-.013.269v1.435c0 1.14-.384 2.151-1.062 3.048-.91 1.204-2.15 1.87-3.623 2.113a8.848 8.848 0 0 1-1.421.103c-1.28 0-2.548.026-3.828 0-1.613-.051-3.021-.59-4.16-1.768a2.653 2.653 0 0 1-.397-.538c-1.153-2.062-2.305-4.124-3.444-6.186-.039-.077-.09-.141-.167-.27 0 .129-.025.206-.025.283 0 1.063-.026 2.139 0 3.202.013.756-.167 1.447-.487 2.113-.73 1.524-1.958 2.447-3.571 2.895-.705.192-1.409.282-2.138.218-.064-.23-.052-20.686.025-20.993.295.025.602.025.91.064 1.075.115 2.073.435 2.956 1.063 1.165.832 1.857 1.96 2.151 3.355.141.64.18 1.294.167 1.96 0 .282 0 .564.038.871l.18-.218c1.203-1.588 2.419-3.176 3.622-4.777.768-1.025 1.78-1.678 2.996-2.024a5.792 5.792 0 0 1 1.754-.23h3.392c-2.445 3.202-4.852 6.34-7.271 9.503 2.368 3.779 4.736 7.532 7.092 11.285h.064v-.346c0-4.253 0-8.492.013-12.745 0-1.114.115-2.215.46-3.266.82-2.472 2.523-4.009 5.032-4.636 1.152-.282 2.33-.346 3.52-.244.807.064 1.6.205 2.356.487 1.664.615 2.752 1.793 3.341 3.458a9.03 9.03 0 0 1 .525 2.665c.039 1.383.051 2.753.051 4.137v10.72l.013-.038Zm-6.273-12.552s.039-.065.039-.103c0-.397 0-.794-.026-1.178a4.17 4.17 0 0 0-.166-.794c-.09-.282-.295-.5-.576-.564a2.46 2.46 0 0 0-.743-.09c-.55.039-.934.346-1.1.859-.103.307-.155.64-.193.96-.026.295 0 .59 0 .897h2.778l-.013.013ZM107.721 15.232c3.214-.012 5.851 1.23 8.002 3.587 1.293 1.422 2.189 3.061 2.598 4.944.256 1.165.308 2.331.218 3.522-.141 1.755-.653 3.382-1.626 4.855-1.728 2.6-4.084 4.342-7.195 4.93-1.049.206-2.099.231-3.162.142-1.933-.154-3.699-.769-5.274-1.909-2.176-1.588-3.725-3.624-4.391-6.263-.333-1.32-.397-2.664-.269-4.022.128-1.434.512-2.805 1.242-4.047 1.754-2.997 4.301-4.919 7.758-5.56.691-.127 1.395-.178 2.099-.178Zm4.468 11.016c0-1.435-.512-2.626-1.549-3.612-1.357-1.307-3.444-1.524-4.941-.794-1.601.794-2.535 2.088-2.727 3.893-.141 1.397.217 2.626 1.139 3.702 1.46 1.716 3.725 2.037 5.428 1.166 1.754-.897 2.599-2.383 2.637-4.342l.013-.013ZM61.686 25.992c.012 2.164-.436 4.085-1.524 5.815-1.639 2.6-3.892 4.38-6.926 5.072-1.229.282-2.47.333-3.712.218-1.6-.141-3.098-.602-4.443-1.448-2.65-1.665-4.455-3.97-5.146-7.07-.256-1.127-.307-2.28-.205-3.433.14-1.678.589-3.253 1.498-4.662 1.677-2.626 3.994-4.406 7.067-5.06 2.38-.512 4.71-.37 6.964.641 1.331.602 2.484 1.473 3.47 2.536 1.087 1.166 1.92 2.485 2.432 4.01.384 1.152.563 2.33.55 3.406l-.025-.025Zm-11.01 4.956c.998 0 1.907-.268 2.701-.883 1.101-.859 1.767-1.973 1.895-3.382.128-1.319-.154-2.523-.973-3.56-1.14-1.435-2.625-2.011-4.43-1.73-1.203.192-2.15.858-2.867 1.82-.922 1.242-1.127 2.638-.807 4.11.371 1.743 2.087 3.638 4.48 3.613v.012ZM20.027 29.604v1.409c0 2.51-1.561 4.662-4.122 5.328-.627.166-1.267.256-1.92.205a.632.632 0 0 1-.192-.039v-.281c0-4.38 0-8.761.013-13.142 0-1.178.14-2.344.589-3.445.87-2.152 2.47-3.433 4.724-3.907a8.664 8.664 0 0 1 1.817-.18h8.616c0 .078.039.142.026.206-.039.845-.154 1.678-.487 2.472-.704 1.69-1.997 2.702-3.738 3.176a6.835 6.835 0 0 1-1.83.23c-.64 0-1.293.026-1.934.052-.05 0-.115 0-.166.013-.87.166-1.229.55-1.344 1.46-.026.23-.039.461-.064.743 2.202 0 4.365.026 6.58.038-.026.23-.038.449-.064.654-.18 1.306-.679 2.471-1.651 3.394-.884.832-1.946 1.293-3.137 1.473-.474.064-.947.077-1.421.102-.09 0-.18 0-.32.013l.026.026Z" fill="#F9A51A"/><path d="M42.175 36.572c-.102 0-.179.012-.256.012-1.792 0-3.584 0-5.377-.025-1.229-.026-2.394-.308-3.469-.935-1.485-.871-2.407-2.178-2.867-3.804a8.422 8.422 0 0 1-.346-2.332V15.63c.051-.026.077-.039.102-.039 1.204 0 2.369.192 3.431.82 1.319.781 2.1 1.947 2.471 3.407.154.615.23 1.23.23 1.857v6.276c0 .36.013.73.064 1.09.128.909.525 1.293 1.447 1.383a4.814 4.814 0 0 1 2.548 1.037c.973.781 1.549 1.806 1.869 2.997.179.679.166 1.37.14 2.1l.013.014ZM83.756 14.003c.038-.333.064-.653.102-.96.064-.526.18-1.038.385-1.525a4.76 4.76 0 0 1 .307-.628c.499-.806 1.229-1.152 2.189-1.088 1.062.077 2.112.102 3.175.128.397 0 .793 0 1.177-.026.423-.038.858-.102 1.28-.14.052 0 .103 0 .167-.014 0 .065.026.129.026.18-.039.755-.115 1.498-.384 2.203-.192.5-.448.948-.845 1.306-.346.308-.73.487-1.204.461-.742-.05-1.485-.076-2.214-.14-.87-.077-1.742-.077-2.612.064-.423.064-.832.128-1.255.179h-.307.013ZM117.387 17.218c0-1.14.883-2.037 2.023-2.05 1.126 0 2.035.897 2.035 2.037a2.052 2.052 0 0 1-2.048 2.037c-1.101 0-2.01-.923-2.023-2.024h.013Zm2.061-1.806c-1.011-.013-1.818.755-1.831 1.767a1.801 1.801 0 0 0 1.767 1.832c.986.013 1.831-.794 1.831-1.78 0-1.012-.769-1.806-1.78-1.82h.013Z" fill="#F9A51A"/><path d="M119.896 17.282c.166.358.333.692.499 1.05h-.397c-.153-.32-.32-.653-.486-.999h-.538v.986h-.358v-2.33c.473 0 .947-.065 1.395.063.269.077.41.27.423.538 0 .27-.103.474-.346.59-.051.025-.102.038-.192.076v.026Zm-.909-.244c.282 0 .525.013.781 0 .192-.012.282-.14.294-.32.026-.218-.051-.358-.243-.422-.269-.077-.538-.064-.832-.039v.781Z" fill="#F9A51A"/></svg>