<svg width="142" height="55" fill="none" xmlns="http://www.w3.org/2000/svg"><ellipse cx="70.829" cy="27.195" rx="70.317" ry="26.418" fill="#F9EC00"/><path d="M71.851 0c1.72.027 3.603.041 5.5.082a169.19 169.19 0 0 1 8.98.478c1.404.109 2.81.26 4.202.396 1.282.136 2.565.273 3.834.437 1.46.19 2.907.41 4.353.641 3.207.492 6.387 1.12 9.539 1.87 4.94 1.161 9.784 2.622 14.478 4.56 3.248 1.339 6.4 2.909 9.321 4.875 1.951 1.31 3.766 2.758 5.363 4.505 1.432 1.57 2.606 3.304 3.329 5.325.478 1.352.724 2.744.683 4.164-.069 1.966-.628 3.81-1.583 5.53-1.01 1.83-2.348 3.4-3.876 4.82-2.456 2.28-5.254 4.068-8.201 5.638-3.302 1.748-6.755 3.154-10.289 4.369a102.207 102.207 0 0 1-10.972 3.072c-2.142.464-4.298.9-6.454 1.31-1.42.273-2.852.465-4.285.683-1.27.191-2.552.355-3.821.519-.983.123-1.965.218-2.948.314-.969.096-1.924.191-2.893.273-.6.055-1.214.096-1.828.137l-2.238.163c-.874.055-1.76.11-2.634.137-1.706.068-3.411.136-5.13.15-2.225.027-4.436 0-6.66 0-1.078 0-2.156-.04-3.234-.082-1.078-.04-2.156-.095-3.234-.15-.792-.041-1.583-.082-2.361-.136a99.407 99.407 0 0 1-2.006-.15c-.546-.042-1.092-.096-1.638-.137-.71-.069-1.405-.123-2.115-.205-.627-.068-1.255-.137-1.87-.218-.723-.082-1.446-.164-2.169-.26-.778-.11-1.556-.218-2.347-.341-.955-.137-1.91-.273-2.866-.437-1.269-.219-2.538-.45-3.794-.696a105.356 105.356 0 0 1-8.16-1.885c-4.025-1.078-7.97-2.375-11.804-4.014-3.125-1.337-6.14-2.88-8.951-4.805-1.802-1.23-3.494-2.608-4.968-4.233-1.35-1.474-2.47-3.085-3.207-4.956-.668-1.665-.941-3.386-.791-5.16.136-1.748.682-3.373 1.528-4.902.942-1.72 2.17-3.209 3.576-4.56 1.896-1.83 4.025-3.331 6.29-4.683 3.221-1.925 6.633-3.454 10.14-4.765 3.875-1.447 7.832-2.608 11.844-3.577 2.211-.533 4.435-1.01 6.673-1.42 1.61-.3 3.22-.546 4.845-.806 1.378-.218 2.77-.395 4.148-.587.955-.122 1.924-.218 2.893-.314.928-.095 1.87-.19 2.797-.286C57.7.6 58.547.546 59.407.492c1.119-.082 2.238-.15 3.343-.219a48.41 48.41 0 0 1 1.406-.068C65.82.15 67.47.109 69.135.068c.847-.027 1.706-.04 2.716-.054V0Zm-.71 53.315v.055c2.211-.055 4.422-.096 6.619-.164 1.283-.041 2.579-.11 3.862-.178 1.419-.082 2.825-.19 4.244-.3a139.9 139.9 0 0 0 8.27-.901c1.569-.219 3.138-.465 4.707-.71 2.607-.41 5.186-.942 7.751-1.53 4.449-1.023 8.829-2.28 13.114-3.904 3.562-1.352 7.014-2.922 10.262-4.915 2.211-1.365 4.298-2.895 6.113-4.765 1.242-1.284 2.32-2.69 3.112-4.314.914-1.884 1.296-3.85 1.037-5.94-.164-1.365-.614-2.648-1.256-3.85-1.01-1.897-2.415-3.495-4.012-4.928-1.869-1.68-3.93-3.072-6.113-4.315-3.412-1.938-7.001-3.454-10.699-4.75-5.253-1.83-10.644-3.168-16.102-4.192a140.144 140.144 0 0 0-8.256-1.284c-1.72-.205-3.439-.41-5.158-.573-1.474-.15-2.948-.26-4.421-.355a247.174 247.174 0 0 0-4.49-.246 113.367 113.367 0 0 0-3.712-.11 203.142 203.142 0 0 0-9.566.055c-.573.014-1.132.028-1.705.069-1.283.068-2.58.136-3.862.218-.956.055-1.91.123-2.866.205-1.378.123-2.77.26-4.148.396-1.27.136-2.539.273-3.808.45-1.8.246-3.602.533-5.39.82-2.92.464-5.813 1.065-8.692 1.747-4.053.97-8.052 2.13-11.954 3.59-3.412 1.284-6.728 2.759-9.866 4.63-2.197 1.296-4.258 2.757-6.114 4.518-1.337 1.27-2.497 2.663-3.398 4.287-.846 1.516-1.364 3.127-1.446 4.861-.082 1.474.19 2.908.737 4.287.696 1.775 1.774 3.304 3.056 4.697 1.379 1.501 2.948 2.785 4.626 3.945 3.002 2.076 6.237 3.687 9.593 5.08 5.213 2.156 10.617 3.713 16.117 4.914 1.733.383 3.48.71 5.226 1.024 1.46.273 2.934.492 4.408.71 1.064.164 2.142.3 3.206.437 1.147.137 2.307.273 3.453.396.969.096 1.951.178 2.92.26 1.201.095 2.388.19 3.59.273 1.104.068 2.21.136 3.315.177 1.337.055 2.675.096 4.012.123 1.228.014 2.456 0 3.685 0Z" fill="#EB1A1D"/><path d="M104.069 38.27a7.391 7.391 0 0 1-2.347-.26c-2.36-.682-3.807-2.211-4.285-4.628-.027-.123-.027-.232-.027-.355v-2.184H94.42c0 .095-.013.19-.013.286v1.53c0 1.215-.41 2.293-1.133 3.249-.969 1.283-2.292 1.993-3.862 2.252-.505.083-1.01.11-1.514.11-1.365 0-2.716.027-4.08 0-1.72-.055-3.221-.628-4.436-1.884a2.83 2.83 0 0 1-.423-.574c-1.228-2.198-2.456-4.396-3.67-6.594-.041-.082-.096-.15-.178-.287 0 .137-.027.219-.027.3 0 1.134-.027 2.28 0 3.414.014.805-.177 1.542-.519 2.252-.778 1.625-2.088 2.608-3.807 3.086-.75.205-1.501.3-2.279.232-.068-.246-.054-22.05.027-22.377.314.027.642.027.97.068 1.146.123 2.21.464 3.152 1.133 1.241.888 1.978 2.09 2.292 3.577.15.683.191 1.38.178 2.09 0 .3 0 .6.04.928l.192-.232c1.282-1.693 2.579-3.386 3.861-5.093.82-1.092 1.897-1.788 3.194-2.157a6.173 6.173 0 0 1 1.87-.246h3.616c-2.607 3.413-5.173 6.758-7.752 10.13 2.525 4.028 5.05 8.029 7.56 12.029h.069v-.369c0-4.532 0-9.052.013-13.584 0-1.188.123-2.362.491-3.482.874-2.635 2.689-4.273 5.363-4.942 1.228-.3 2.484-.369 3.753-.26.86.069 1.706.219 2.51.52 1.775.654 2.935 1.91 3.562 3.685.328.915.519 1.87.56 2.84.041 1.475.055 2.936.055 4.41v11.428l.013-.041Zm-6.686-13.38s.04-.068.04-.11c0-.423 0-.846-.027-1.256a4.442 4.442 0 0 0-.177-.846c-.096-.3-.314-.532-.614-.6a2.62 2.62 0 0 0-.792-.096c-.587.04-.996.368-1.173.915-.11.327-.164.682-.205 1.024-.027.314 0 .628 0 .955h2.961l-.013.014ZM116.801 15.401c3.425-.014 6.236 1.31 8.529 3.823 1.378 1.515 2.333 3.263 2.77 5.27.273 1.242.327 2.485.232 3.754-.15 1.87-.696 3.605-1.733 5.175-1.842 2.771-4.353 4.628-7.669 5.256-1.119.219-2.238.246-3.371.15-2.06-.163-3.944-.819-5.622-2.034-2.32-1.693-3.971-3.864-4.681-6.676-.354-1.406-.423-2.84-.286-4.287.136-1.53.546-2.99 1.323-4.315 1.87-3.194 4.586-5.242 8.27-5.925a12.283 12.283 0 0 1 2.238-.191Zm4.762 11.742c0-1.53-.545-2.8-1.651-3.85-1.446-1.393-3.671-1.625-5.267-.847-1.706.846-2.702 2.225-2.907 4.15-.15 1.489.232 2.8 1.215 3.946 1.555 1.83 3.971 2.171 5.786 1.243 1.869-.956 2.77-2.54 2.811-4.629l.013-.013ZM67.73 26.87c.013 2.306-.464 4.354-1.624 6.198-1.747 2.771-4.149 4.669-7.383 5.406-1.31.3-2.633.355-3.957.232-1.706-.15-3.302-.642-4.735-1.543-2.825-1.774-4.75-4.232-5.486-7.536-.273-1.201-.328-2.43-.218-3.659.15-1.789.627-3.468 1.596-4.97 1.788-2.799 4.258-4.696 7.533-5.393 2.538-.546 5.022-.396 7.423.683 1.42.642 2.648 1.57 3.699 2.703 1.16 1.243 2.046 2.649 2.592 4.274.41 1.228.6 2.485.587 3.631l-.027-.027Zm-11.736 5.283c1.065 0 2.033-.287 2.88-.942 1.173-.915 1.883-2.103 2.019-3.605.136-1.406-.164-2.69-1.037-3.795-1.215-1.53-2.797-2.144-4.722-1.843-1.282.204-2.292.914-3.056 1.938-.983 1.325-1.201 2.813-.86 4.383.396 1.857 2.224 3.877 4.776 3.85v.014ZM23.326 30.72v1.502c0 2.676-1.665 4.97-4.394 5.68-.669.177-1.351.273-2.047.218a.673.673 0 0 1-.205-.041v-.3c0-4.67 0-9.339.014-14.008 0-1.256.15-2.499.628-3.673.928-2.294 2.633-3.659 5.035-4.164a9.238 9.238 0 0 1 1.938-.191h9.183c0 .082.041.15.028.218-.041.901-.164 1.789-.519 2.635-.75 1.802-2.129 2.88-3.984 3.386a7.285 7.285 0 0 1-1.952.246c-.682 0-1.378.027-2.06.054-.055 0-.123 0-.178.014-.928.178-1.31.587-1.433 1.557-.027.245-.04.491-.068.791 2.347 0 4.653.028 7.014.041-.027.246-.04.478-.068.697-.191 1.392-.723 2.635-1.76 3.618-.942.887-2.075 1.379-3.344 1.57-.505.068-1.01.082-1.514.109-.096 0-.191 0-.341.014l.027.027Z" fill="#EB1A1D"/><path d="M46.933 38.147c-.109 0-.19.014-.273.014-1.91 0-3.82 0-5.731-.027-1.31-.028-2.552-.328-3.698-.997-1.583-.928-2.566-2.321-3.057-4.055a8.979 8.979 0 0 1-.368-2.485V15.825c.054-.028.082-.041.109-.041 1.283 0 2.524.204 3.657.873 1.405.833 2.238 2.076 2.634 3.632.163.655.245 1.31.245 1.98v6.69c0 .382.014.778.069 1.16.136.97.56 1.38 1.542 1.475 1.01.11 1.91.464 2.715 1.106 1.037.833 1.651 1.925 1.992 3.194.192.724.178 1.461.15 2.24l.014.013ZM91.256 14.09c.04-.355.068-.696.109-1.024.068-.56.191-1.106.41-1.625a5.07 5.07 0 0 1 .327-.669c.532-.86 1.31-1.229 2.333-1.16 1.133.082 2.252.109 3.385.136.423 0 .846 0 1.255-.027.45-.041.914-.11 1.365-.15.054 0 .109 0 .177-.014 0 .068.027.137.027.191-.041.806-.122 1.598-.409 2.349-.205.532-.478 1.01-.9 1.392-.37.328-.778.519-1.283.492-.792-.055-1.583-.082-2.361-.15-.928-.082-1.856-.082-2.784.068-.45.068-.887.136-1.337.19h-.328.014ZM127.104 17.517c0-1.215.942-2.17 2.156-2.184 1.201 0 2.17.955 2.17 2.17 0 1.188-.983 2.171-2.184 2.171-1.173 0-2.142-.983-2.156-2.157h.014Zm2.197-1.925c-1.078-.014-1.938.806-1.951 1.884a1.92 1.92 0 0 0 1.883 1.952c1.05.014 1.951-.846 1.951-1.897 0-1.079-.819-1.925-1.897-1.94h.014Z" fill="#EB1A1D"/><path d="M129.779 17.585c.177.382.354.737.532 1.12h-.423c-.164-.342-.341-.697-.519-1.065h-.573v1.05h-.382v-2.484c.505 0 1.01-.068 1.487.068.287.082.437.287.451.574 0 .286-.109.505-.369.628-.054.027-.109.04-.204.082v.027Zm-.969-.26c.3 0 .559.014.832 0 .205-.013.3-.15.314-.34.027-.233-.055-.383-.259-.451-.287-.082-.573-.069-.887-.041v.833Z" fill="#EB1A1D"/></svg>