<svg width="99" height="99" fill="none" xmlns="http://www.w3.org/2000/svg"><path d="M54.953 73.296a30.802 30.802 0 0 1-13.255 2.963c-17.059 0-30.938-13.824-30.938-30.815 0-7.288 2.515-14.172 7.14-19.693v5.471h4.759V17H8.379v4.74h6.764A35.145 35.145 0 0 0 6 45.445C6 65.05 22.014 81 41.698 81A35.576 35.576 0 0 0 57 77.577l-2.047-4.28Z" fill="#025B00"/><path d="M53.444 29c-7.548 0-13.738 5.87-14.28 13.282a14.262 14.262 0 0 0-9.608-3.726H20v9.555c0 7.905 6.43 14.333 14.333 14.333h4.778V72h4.778V52.889h4.778C56.569 52.889 63 46.46 63 38.556V29h-9.556Zm-19.11 28.667c-5.27 0-9.556-4.286-9.556-9.556v-4.778h4.778c5.27 0 9.555 4.286 9.555 9.556v1.4l-5.478-5.478-3.378 3.378 5.478 5.478h-1.4Zm23.888-19.111c0 5.27-4.285 9.555-9.555 9.555h-1.4l5.477-5.478-3.377-3.378-5.478 5.478v-1.4c0-5.27 4.286-9.555 9.555-9.555h4.778v4.778Z" fill="#025B00"/><path d="M77 45.556C77 25.95 60.986 10 41.302 10A35.577 35.577 0 0 0 26 13.423l2.047 4.28a30.802 30.802 0 0 1 13.255-2.962c17.059 0 30.938 13.824 30.938 30.815 0 7.288-2.515 14.172-7.14 19.693v-5.471h-4.759V74h14.28v-4.74h-6.764A35.145 35.145 0 0 0 77 45.555Z" fill="#025B00"/></svg>