<svg width="99" height="99" fill="none" xmlns="http://www.w3.org/2000/svg"><path d="M49.5 12.375c-11.926 0-21.656 9.73-21.656 21.656 0 7.36 3.743 13.873 9.377 17.79-12.7 4.956-21.752 17.33-21.752 31.71h6.187c0-13.606 9.872-24.979 22.817-27.36l1.933 5.704h6.188l1.933-5.705c12.945 2.382 22.817 13.755 22.817 27.361h6.187c0-14.38-9.052-26.755-21.752-31.71 5.63-3.917 9.377-10.43 9.377-17.79 0-11.926-9.73-21.656-21.656-21.656Zm0 6.188c8.579 0 15.469 6.89 15.469 15.468 0 8.58-6.89 15.469-15.469 15.469a15.423 15.423 0 0 1-15.469-15.469c0-8.579 6.89-15.468 15.469-15.468Zm-3.094 46.406L43.313 83.53h12.374L52.594 64.97h-6.188Z" fill="#fff"/></svg>