<svg width="38" height="49" fill="none" xmlns="http://www.w3.org/2000/svg"><path d="M19 2A16.95 16.95 0 0 0 6.98 7.008 17.151 17.151 0 0 0 2 19.1v1.246C2.688 29.716 10.42 37.25 19 47c8.959-10.177 17-17.885 17-27.9 0-4.535-1.791-8.885-4.98-12.092A16.95 16.95 0 0 0 19 2Zm0 8.885c1.618 0 3.2.482 4.545 1.387a8.217 8.217 0 0 1 3.012 3.694 8.272 8.272 0 0 1 .464 4.755 8.241 8.241 0 0 1-2.242 4.212 8.163 8.163 0 0 1-4.19 2.249 8.135 8.135 0 0 1-4.727-.473 8.19 8.19 0 0 1-3.668-3.035 8.262 8.262 0 0 1 1.027-10.384A8.155 8.155 0 0 1 19 10.885Z" stroke="#FFC700" stroke-width="4" stroke-linecap="round" stroke-linejoin="round"/></svg>