<svg width="234" height="82" fill="none" xmlns="http://www.w3.org/2000/svg"><g clip-path="url('#clip0_254_16043')"><path d="M81.263 77.058 51.57 3.628a1.708 1.708 0 0 0-1.582-1.067H31.4c-.695 0-1.317.42-1.582 1.067L.132 77.058c-.463 1.134.365 2.38 1.582 2.38h17.29c.814 0 1.548-.5 1.846-1.26l19.851-49.99 19.844 49.99a1.992 1.992 0 0 0 1.847 1.26h17.29c1.217 0 2.045-1.246 1.581-2.38ZM233.868 77.058l-29.687-73.43a1.708 1.708 0 0 0-1.582-1.067h-18.587c-.695 0-1.317.42-1.582 1.067l-29.687 73.43c-.463 1.134.364 2.38 1.582 2.38h17.289c.815 0 1.549-.5 1.847-1.26l19.851-49.99 19.844 49.99a1.993 1.993 0 0 0 1.847 1.26h17.289c1.218 0 2.045-1.246 1.582-2.38h-.006Z" fill="#fff"/><path d="M183.225 42.114c-4.151.18-8.321-.22-12.438-.7-4.455-.52-8.896-1.2-13.318-1.947-8.3-1.401-16.561-3.088-24.795-4.849-4.739-1.014-9.445-2.134-14.231-2.907-4.746-.774-9.545-1.28-14.35-1.447a80.738 80.738 0 0 0-23.63 2.667c-9.93 2.634-19.342 6.989-28.211 12.15a164.764 164.764 0 0 0-3.919 2.355c20.235-3.915 40.88-2.514 61.062.993 16.912 2.941 33.572 7.303 50.557 9.844 11.762 1.76 23.848 1.907 35.425-1.128 10.591-2.774 20.44-8.162 28.363-15.785 3.873-3.72 7.52-8.016 10.068-12.79.066-.127.139-.254.199-.38-1.94 1.96-4.429 3.467-6.818 4.788-7.03 3.894-14.9 6.182-22.777 7.535-6.989 1.208-14.098 1.661-21.187 1.601Z" fill="url('#paint0_linear_254_16043')"/><path d="M109.527 28.596a5.55 5.55 0 0 1-1.952-1.834c-.034-.047-.053-.093-.086-.14a4.852 4.852 0 0 1-.186-.32l-.059-.12a5.64 5.64 0 0 1-.589-2.494c0-.687.125-1.347.35-1.954.331-.794 1.774-3.355 6.937-4.042.662-.073 1.41-.133 2.244-.166.146 0 .278-.007.41-.014 3.27-.086 7.745.267 13.113 1.881.702.207 1.41.44 2.118.687 2.608.92 5.276 2.134 8.122 3.674.84.454 1.866.1 2.283-.8l5.726-12.277c.397-.847.106-1.88-.662-2.354C138.857 3.054 131.47 0 117.139 0 96.402 0 87.267 9.95 87.267 25.368c0 31.164 43.117 19.026 43.117 32.144 0 4.261-2.462 6.342-11.603 6.342-8.056 0-18.441-2.194-26.047-6.935-.853-.534-1.952-.154-2.37.806l-5.487 12.651c-.344.8-.105 1.748.576 2.241 8.235 6.009 20.546 9.39 34.254 9.39 20.632 0 31.925-9.077 31.925-25.149 0-26.095-32.368-21.98-42.111-28.262h.006Z" fill="#fff"/><path d="m.39 76.418-.258.64c-.463 1.134.365 2.381 1.582 2.381h17.29c.807 0 1.529-.493 1.84-1.24C30.164 54.61 48.34 47.435 48.34 47.435 12.775 54.311 2.985 69.85.39 76.418Z" fill="url('#paint1_linear_254_16043')"/></g><defs><linearGradient id="paint0_linear_254_16043" x1="48.333" y1="43.855" x2="234" y2="43.855" gradientUnits="userSpaceOnUse"><stop stop-color="#85BB40"/><stop offset=".15" stop-color="#FBDE00"/><stop offset=".6" stop-color="#FBD900"/><stop offset=".64" stop-color="#F7D803"/><stop offset=".67" stop-color="#ECD60F"/><stop offset=".71" stop-color="#DAD422"/><stop offset=".74" stop-color="#C0D03E"/><stop offset=".78" stop-color="#9FCB61"/><stop offset=".81" stop-color="#77C58C"/><stop offset=".84" stop-color="#48BEBE"/><stop offset=".87" stop-color="#1EB8EB"/><stop offset=".89" stop-color="#1EADE2"/><stop offset=".92" stop-color="#1E93CC"/><stop offset=".96" stop-color="#1E67A9"/><stop offset="1" stop-color="#1E458D"/></linearGradient><linearGradient id="paint1_linear_254_16043" x1="24.167" y1="79.433" x2="24.167" y2="47.429" gradientUnits="userSpaceOnUse"><stop stop-color="#015E32"/><stop offset=".09" stop-color="#046B37"/><stop offset=".2" stop-color="#0B8041"/><stop offset="1" stop-color="#85BB40"/></linearGradient><clipPath id="clip0_254_16043"><path fill="#fff" d="M0 0h234v82H0z"/></clipPath></defs></svg>