<svg width="99" height="99" fill="none" xmlns="http://www.w3.org/2000/svg"><path d="M83.419 38.006c4.366-4.366 2.375-9.466 0-11.946l-10.48-10.479c-4.401-4.366-9.466-2.375-11.946 0l-5.939 5.973h-9.047c-6.637 0-10.48 3.493-12.436 7.51l-15.51 15.509v13.972l-2.48 2.445c-4.366 4.401-2.375 9.466 0 11.946l10.48 10.48C27.947 85.3 29.973 86 31.894 86c2.48 0 4.751-1.223 6.113-2.585l9.432-9.466h12.54c5.939 0 8.943-3.703 10.026-7.335 3.947-1.048 6.113-4.052 6.986-6.986 5.415-1.397 7.44-6.532 7.44-10.13V39.02h-2.06l1.048-1.013Zm-5.974 11.492c0 1.572-.663 3.493-3.493 3.493H70.46v3.493c0 1.572-.664 3.493-3.493 3.493h-3.493v3.493c0 1.572-.664 3.493-3.493 3.493H44.575L33.117 78.42c-1.083 1.013-1.712.42-2.096.035l-10.445-10.41c-1.013-1.082-.419-1.71-.035-2.095l4.507-4.54V47.436l6.986-6.986v5.554c0 4.227 2.795 10.48 10.48 10.48 7.685 0 10.48-6.253 10.48-10.48h24.451v3.493Zm1.014-16.452-5.939 5.973H46.007v6.986c0 1.572-.664 3.493-3.493 3.493-2.83 0-3.494-1.921-3.494-3.493V35.526c0-1.607.594-6.986 6.987-6.986h11.912l7.964-7.964c1.083-1.013 1.712-.42 2.096-.035l10.445 10.41c1.013 1.082.419 1.71.034 2.095Z" fill="#fff"/></svg>