<svg width="46" height="46" fill="none" xmlns="http://www.w3.org/2000/svg"><circle cx="23" cy="23" r="22.5" stroke="url('#paint0_linear_502_20638')"/><path d="M11.934 24.164a1.654 1.654 0 0 1 2.17-.751l5.523 2.58c.025-.166.065-.33.138-.488a1.862 1.862 0 0 1 1.106-.988l7.123-2.346a2.406 2.406 0 0 1 2.177.352l5.363 3.978c.122.089.195.232.195.385v6.162c0 .265-.214.479-.48.479H30.68a.481.481 0 0 1-.286-.094l-3.27-2.35a1.91 1.91 0 0 0-1.347-.3l-4.361.672a2.881 2.881 0 0 1-2.092-.486s-6.867-4.717-6.872-4.722c-.662-.455-.866-1.371-.518-2.08v-.003Zm18.903 8.402h3.932v-5.44l-3.164-2.346-2.649 6.389 1.884 1.395-.003.002ZM13.002 25.46l6.867 4.72c.406.285.915.404 1.397.327l4.365-.672a2.866 2.866 0 0 1 2.022.449l.493.329 2.663-6.42-1.212-.9a1.444 1.444 0 0 0-1.305-.211s-7.106 2.339-7.123 2.346a.905.905 0 0 0-.55 1.195.898.898 0 0 0 1.133.502l3.644-1.308a.48.48 0 0 1 .325.902l-3.645 1.308a1.866 1.866 0 0 1-2.266-.887l-6.115-2.858a.69.69 0 0 0-.904.307.694.694 0 0 0 .209.872h.002Z" fill="url('#paint1_linear_502_20638')"/><path d="M34.254 20.889a1.653 1.653 0 0 1-2.17.751l-5.523-2.58a1.811 1.811 0 0 1-.139.488 1.862 1.862 0 0 1-1.105.988l-7.123 2.346a2.406 2.406 0 0 1-2.177-.352l-5.363-3.978a.477.477 0 0 1-.195-.385v-6.162c0-.265.213-.479.479-.479h4.57c.103 0 .204.033.286.094l3.269 2.35c.39.264.871.37 1.348.3l4.36-.672a2.882 2.882 0 0 1 2.093.486s6.866 4.717 6.871 4.722c.662.455.867 1.371.52 2.08v.003ZM15.35 12.487h-3.93v5.44l3.162 2.346 2.65-6.39-1.884-1.394.002-.002Zm17.836 7.105-6.867-4.72a1.928 1.928 0 0 0-1.397-.326l-4.366.672a2.866 2.866 0 0 1-2.021-.449l-.494-.329-2.663 6.42 1.212.9c.376.277.864.357 1.306.211 0 0 7.106-2.339 7.122-2.346a.905.905 0 0 0 .55-1.195.898.898 0 0 0-1.132-.503l-3.645 1.308a.48.48 0 0 1-.324-.901l3.645-1.308a1.866 1.866 0 0 1 2.266.887l6.115 2.858a.69.69 0 0 0 .904-.307.694.694 0 0 0-.209-.872h-.002Z" fill="url('#paint2_linear_502_20638')"/><defs><linearGradient id="paint0_linear_502_20638" x1="0" y1="23" x2="46" y2="23" gradientUnits="userSpaceOnUse"><stop stop-color="#8F4BC0"/><stop offset=".995" stop-color="#562579"/></linearGradient><linearGradient id="paint1_linear_502_20638" x1="35.729" y1="27.788" x2="11.767" y2="27.788" gradientUnits="userSpaceOnUse"><stop stop-color="#1659A2"/><stop offset=".99" stop-color="#0000A0"/></linearGradient><linearGradient id="paint2_linear_502_20638" x1="10.461" y1="17.265" x2="34.421" y2="17.265" gradientUnits="userSpaceOnUse"><stop stop-color="#1659A2"/><stop offset=".99" stop-color="#0000A0"/></linearGradient></defs></svg>