<svg width="46" height="46" fill="none" xmlns="http://www.w3.org/2000/svg"><circle cx="23" cy="23" r="22.5" stroke="url('#paint0_linear_322_10004')"/><path d="M35.962 24.052a.503.503 0 0 0-.109-.545c-.681-.68-1.953-1.153-3.785-1.407a21.585 21.585 0 0 0-1.808-.165c.55-1.278.889-2.423 1.016-3.413.176-1.373-.073-2.408-.738-3.072-.677-.675-1.736-.92-3.145-.727-.873.12-1.868.403-2.961.843.07-.675-.01-1.45-.236-2.278-.342-1.244-.969-2.387-1.723-3.139h-.002a.491.491 0 0 0-.529-.116.496.496 0 0 0-.324.431c-.09 1.288-1.544 2.933-3.225 4.833-2.438 2.76-5.468 6.188-6.803 10.904-.341.758-.536 1.495-.58 2.214-.1 1.62.55 3.108 1.992 4.545.029.029.057.05.088.07.021.031.042.062.07.088 1.086 1.083 2.309 1.707 3.632 1.849 1.174.127 2.415-.109 3.798-.716 2.471-1.089 4.943-3.18 7.331-5.205 2.844-2.41 5.528-4.686 7.583-4.686a.503.503 0 0 0 .463-.308h-.005Zm-16.906-.837c.324-.318.656-.623.992-.918.138.186.29.375.456.569-.487.108-.971.224-1.448.349Zm2.59-.585a10.063 10.063 0 0 1-.828-.98 31.908 31.908 0 0 1 3.81-2.63c.288.389.633.794 1.047 1.208.415.414.889.822 1.44 1.23-.1.172-.202.34-.308.513a41.08 41.08 0 0 0-5.163.662l.003-.003Zm3.871-4.119a35.872 35.872 0 0 1 3.995-1.903c-.34.85-.964 2.294-1.892 3.97a10.85 10.85 0 0 1-2.103-2.067Zm4.767-.114c-.117.91-.459 2.028-.993 3.253a13.282 13.282 0 0 1-.839-.499 36.173 36.173 0 0 0 1.86-3.837c.034.316.026.675-.026 1.08l-.002.003Zm-1.303-2.663a36.067 36.067 0 0 0-4.039 1.932 7.356 7.356 0 0 1-.51-1.014c1.932-.825 3.525-1.143 4.549-.918Zm-5.469 1.337c.122.3.298.675.55 1.101a32.162 32.162 0 0 0-3.799 2.625c-.468-.825-.603-1.391-.603-1.402l-.158.034a31.085 31.085 0 0 1 4.007-2.36l.003.002Zm-9.378 5.57c1.448-2.653 3.365-4.823 5.008-6.682 1.471-1.665 2.7-3.054 3.217-4.362.368.561.676 1.246.87 1.955.265.967.293 1.882.08 2.505l-.116.055c-2.987 1.422-6.297 3.757-8.639 6.094-.145.145-.285.29-.422.432l.002.003Zm1.13.274c1.018-1.017 2.228-2.033 3.512-2.969.107.323.32.859.705 1.505-.806.7-1.588 1.471-2.32 2.304-1.356.427-2.651.915-3.856 1.464.508-.74 1.16-1.508 1.959-2.304Zm12.007 5.368c-2.334 1.978-4.751 4.023-7.088 5.052-2.552 1.122-4.562.83-6.318-.923a.552.552 0 0 0-.088-.07c-.02-.03-.042-.062-.07-.088-.959-.956-1.508-1.923-1.663-2.93 2.917-1.028 6.266-1.752 9.484-2.05 2.595-.24 5-.189 6.779.135-.342.287-.689.579-1.036.874Zm2.018-1.686c-1.95-.494-4.725-.608-7.852-.318-3.23.297-6.466.985-9.409 1.993.055-.488.194-.995.42-1.523 3.764-1.96 8.722-3.315 13.639-3.726 3.396-.282 6.362-.051 8.01.574-1.498.479-3.114 1.627-4.808 3Z" fill="#FAB017"/><defs><linearGradient id="paint0_linear_322_10004" x1="0" y1="23" x2="46" y2="23" gradientUnits="userSpaceOnUse"><stop stop-color="#FDD50A"/><stop offset=".32" stop-color="#F9A51A"/><stop offset=".645" stop-color="#FAB016"/><stop offset=".995" stop-color="#83BE41"/></linearGradient></defs></svg>