<svg width="127" height="60" fill="none" xmlns="http://www.w3.org/2000/svg"><path fill-rule="evenodd" clip-rule="evenodd" d="M126.987 35.625c-.089-1.46-.448-2.856-.537-4.33-.154-2.036-.308-4.072-.474-6.109-.218-2.562-.435-5.162-.794-7.698-.435-3.138-1.254-6.045-3.738-8.21a8.467 8.467 0 0 0-1.306-1.178c-2.727-2.677-6.055-2.524-9.422-1.448 0-1.486-.384-2.959-1.664-3.906a3.506 3.506 0 0 0-1.012-.884c-1.165-1.41-3.239-1.665-4.916-1.255-1.229.307-2.47.73-3.712 1.063-.32.077-1.114.486-1.23.5-.627 0-1.087.102-1.689.255l-3.11.666c-2.958.628-3.74 3.817-3.905 6.43a47.073 47.073 0 0 0-.077 3.561c-3.278-.756-6.619.051-9.282 2.062-2.163-1.793-5.044-2.152-7.527-.743-.87-.384-1.818-.358-2.791-.345-.755-.039-2.049-.052-2.74-.193-.474-.025-.96 0-1.434.077a4.471 4.471 0 0 0-1.293-.333l-3.955-.422a6.423 6.423 0 0 0-2.151.294c-.512-.371-1.076-.576-1.652-.691-.934-.193-2.291-.205-3.469-.218-.064-1.563-.627-3.049-1.92-4.048a4.26 4.26 0 0 0-1.063-.948c-1.677-1.895-3.917-1.46-6.106-.614-2.791 1.063-5.505 3.022-5.659 6.276a4.687 4.687 0 0 0-1.715 1.14c-2.612-1.281-5.71-1.345-8.424-.346-.435-1.511-1.127-3.125-2.304-4.048a4.416 4.416 0 0 0-1.089-.973c-1.485-1.665-3.11-1.396-5.095-.769-.806.231-1.613.474-2.42.718-1.024.282-2.035.55-2.829 1.255-1.241 1.102-1.446 2.895-1.152 4.445-.051-.039-.102-.077-.14-.116-1.78-1.678-3.982-2.78-6.44-1.755-.896.372-1.792.782-2.688 1.166-.564.23-1.319.564-2.049 1.499-.665.87-1.28 2.267-1.574 4.624C-.047 23.969.12 28.4.26 32.333c.18 4.803.449 9.735.935 14.538.282 2.856.627 8.44 3.072 10.31.32.398.666.692 1.05.923 1.204 1.383 2.817 1.524 4.52 1.063 1.1-.308 2.739-1.166 3.866-1.64.755-.243 1.613-.55 2.317-1.242.742-.73 1.241-1.832 1.139-3.586 0-.077 0-.141-.013-.218.282.346.59.602.947.794.551.666 1.217 1.05 2.062 1.166.832.115 1.83-.026 3.085-.423 1.14-.346 2.279-.679 3.43-1 1.563-.358 2.561-.934 3.265-2.433.807.256 1.703.423 2.702.5 1.306.09 2.778 0 4.442-.308 1.498-.281 3.034-.486 4.506-.845a13.165 13.165 0 0 0 1.933-.602c.346.307.743.564 1.178.743 1.498.615 2.727.32 4.135-.333a16.565 16.565 0 0 0 3.329-2.062l.205.025c.153.128.32.27.486.385a8.188 8.188 0 0 0 3.341 1.998c1.652.5 3.457.525 5.083-.09.358.23.78.436 1.267.602 1.152.397 2.458.538 3.674.653 1.37.116 2.125.026 3.009-.345 2.074-.09 5.325.922 7.63-.308 1.446-.768 2.24-1.934 2.368-3.56.448.448.909.858 1.408 1.242 1.575 1.447 3.418 2.549 5.582 2.933 3.252.576 6.683-.397 9.192-2.536.934.627 2.125.768 3.213.563 1.511-.41 3.124-.602 4.66-.986a6.241 6.241 0 0 0 1.127-.397c.525-.051.973-.192 1.472-.333.896-.243 1.83-.461 2.701-.769 1.536-.333 2.97-.806 3.738-2.305 2.061.09 4.174-.423 6.094-1.153 2.509-.935 6.145-2.485 7.72-4.752.614-.896.934-1.87.87-2.946l-.013.026Zm-4.941 3.83c-1.332.807-3.137 1.64-4.878 2.292-2.547.961-4.634 1.243-6.337 1.05-.563 1.768-2.202 2.114-3.392 2.37-.013 0-.013 0 0 0 .038-.013.14-.051.025-.013h-.025l-.461.141c-1.076.32-2.151.628-3.073.871a3.03 3.03 0 0 1-.563.09h-.141c-.691.384-1.498.525-2.15.628l-1.78.41c-.32.064-.909.192-1.767.37-.153.026-.23.04-.384.052-1.126.103-2.023-.218-2.701-.896a10.323 10.323 0 0 1-6.068 2.894c-2.125.244-4.007-.14-5.646-.999a10.397 10.397 0 0 1-2.74-2.113 12.684 12.684 0 0 1-2.176-2.6 16.056 16.056 0 0 1-1.037-1.909c.154.73.308 1.32.41 1.768.18.717.294 1.191.32 1.729.064 2.229-1.14 3.304-2.65 3.804a4.798 4.798 0 0 1-1.856.218l-1.383-.051c-.384-.013-.845-.052-1.421-.09h-.013c-.742 0-1.42.026-2.035-.192-1.012.615-2.266.448-3.764.256-.115-.013.307.038-.269-.026-1.792-.205-2.931-.64-3.661-1.23a2.37 2.37 0 0 1-.32.129c-.807.307-1.729.5-2.804.422-1.216-.076-2.445-.397-3.636-1.165a7.713 7.713 0 0 1-1.549-1.32 7.953 7.953 0 0 1-.742-.73c-.461.436-.96.859-1.485 1.217-1.434.987-3.252 1.896-4.212 1.96-1.242.064-2.215-.384-2.957-1.23-1.306.692-3.124 1-5.083 1.333-.397.064-.806.14-1.677.307-3.188.602-5.62.346-7.463-.423-.692 2.14-1.92 2.447-3.098 2.703-.628.18-1.178.333-1.69.487-.768.23-1.319.397-1.69.512-2.279.704-3.52.55-4.404-.666-.781-.512-1.306-1.55-1.805-3.177a31.311 31.311 0 0 1-.384-1.447l-.064-.256a45.685 45.685 0 0 0-1.28-4.265 35.03 35.03 0 0 0-.576-1.525l.025.167c.243 1.934.512 3.56.768 4.931.205 1.102.397 1.985.55 2.728.27 1.23.462 2.127.513 2.998.179 2.958-1.588 3.573-2.932 4.009-.576.23-1.05.435-1.46.614-.422.18-.921.41-1.484.666-.064.026-.026 0 0 0-.23.116-.474.231-.845.334-1.409.384-2.778.384-3.828-.974-.743-.525-1.383-1.524-1.856-3.24-.27-.974-.538-2.472-.794-4.804-.256-2.292-.512-5.29-.755-9.235-.32-5.251-.461-9.298-.474-12.411-.013-3.138.102-5.277.294-6.724.55-4.355 2.177-5.085 3.124-5.47l.051-.025c.359-.167.768-.346 1.255-.551.538-.23.998-.435 1.357-.576 1.28-.526 2.688-.474 4.276.55.537.346 1.14.859 1.792 1.537.525.487 1.1 1.09 1.728 1.858-.115-.5-.217-.91-.307-1.256-.269-1.101-.448-1.857-.486-2.33-.192-3.19 1.613-3.677 3.494-4.19l.192-.063c.564-.167.205-.064.922-.282.23-.064.474-.14 1.575-.461 1.19-.384 2.79-.884 4.148.832.82.603 1.587 1.807 2.202 4.06.128.462.256 1.026.384 1.679.96-.538 2.01-.935 3.085-1.14.78-.154 2.83-.487 5.146.307.538.18 1.089.423 1.64.743.831-1.101 1.83-1.524 3.008-1.704-.385 0-.679 0-.679-.038.013-.346 0-.205.013-.461.09-1.857 1.254-3.266 2.727-4.278 1.625-1.114 4.148-1.857 4.89-1.87 1.075-.026 2.01.18 2.855 1.255.346.244.666.602.986 1.089.384.59.614 1.306.678 2.331.026.5-.013 1.05-.102 1.614h.23l.832.025c.948.039 1.895.065 2.305.09h.05c1.076 0 2.472.013 3.419.96.55-.255 1.19-.37 1.856-.422.41-.025.82.026 1.127.064h.051l3.136.359c.474.051.897.18 1.28.384.436-.115.935-.154 1.486-.115l1.254.09c.474.038.948.064 1.498.09h.039c1.037-.026 2.035-.052 2.816.473l.09-.064c.857-.538 1.817-.91 2.957-.922 1.677-.026 3.213.679 4.404 1.87.217-.18.435-.359.653-.525a10.307 10.307 0 0 1 4.864-1.986c.308-.038.525-.064.679-.064 1.37-.09 2.714.09 3.943.525-.026-1.767 0-3.368.077-4.61.192-3.1 1.152-5.24 3.251-5.675l1.55-.333 1.561-.333c.32-.09.73-.205 1.204-.23.217-.013.435-.013.653 0 .32-.23.678-.41 1.088-.526a79.478 79.478 0 0 0 2.394-.678l.666-.192c.358-.116.844-.282 1.446-.32 1.357-.09 2.637.191 3.406 1.267.793.538 1.331 1.499 1.433 3.1.013.307 0 .564-.064 1.012-.038.358-.102.935-.179 1.703.474-.256.96-.46 1.447-.653l.141-.064c1.6-.59 6.247-2.331 9.601 1.409 1.037.897 1.984 2.229 2.74 4.176.281.73.537 2.01.755 3.548.218 1.524.435 3.624.627 5.75.128 1.333.231 2.729.333 3.971.205 2.587.295 3.791.307 4.022.064.935.154 1.55.256 2.139.128.743.244 1.447.282 2.19.115 1.82-1.165 3.369-3.175 4.586h.09Z" fill="#F9A51A"/><path d="M50.06 19.243c-.09-1.447-.179-2.613-1.472-2.613-.435 0-.82.205-1.255.205-.499 0-.69-.5-.742-1.268-.026-.512.806-3.138.742-4.29-.05-.82-.217-.897-.46-.897-.525 0-2.932.858-3.956 2.024 0 .012-.026.025-.039.038-.013.026-.038.038-.05.064-.027.026-.04.051-.065.09-.013.025-.038.051-.051.064-.026.038-.039.064-.064.102a.097.097 0 0 1-.026.051l-.038.077a.097.097 0 0 1-.026.052c0 .025-.025.05-.025.076 0 .013 0 .039-.013.052a.237.237 0 0 1-.026.09v.05c0 .052-.013.09-.013.141-.012.36-.025.743-.05 1.14v.385c0 .05 0 .102-.014.153 0 .052 0 .103-.012.154 0 .051 0 .09-.013.14 0 .052 0 .103-.013.155 0 .05-.013.09-.026.14a.46.46 0 0 1-.025.141c-.128.718-.384 1.256-.896 1.294-.27.013-.512-.14-.653-.128-.525.038-.948.14-1.255.487l-.025.025c-.013.013-.026.039-.052.052 0 0-.012.025-.025.038-.013.026-.026.038-.039.064 0 .013-.012.026-.025.038a.28.28 0 0 1-.039.064c0 .013-.013.026-.025.039-.013.026-.026.051-.039.09 0 .012 0 .025-.013.038-.012.038-.038.09-.05.14v.04c0 .038-.026.076-.04.115 0 .025 0 .038-.012.064 0 .038-.013.064-.026.102 0 .026 0 .051-.012.077 0 .038-.013.064-.026.102 0 .026 0 .052-.013.077 0 .039 0 .077-.013.116v.076c0 .052 0 .103-.012.154v.064c0 .077 0 .141-.013.218v1.191c0 .103 0 .218.013.32.05.769.05 1.332.473 1.281.372-.038.679-.589 1.268-.628 1.51-.102 1.344 2.19 1.434 3.472.05.82-.026 2.881.307 8.146.077 1.178.333 4.15.742 6.814.397 2.664.96 5.02 1.588 4.982.78-.05 4.519-2.549 4.48-3.189a.89.89 0 0 0-.09-.307c-.178-.436-.588-1.166-1.036-2.664-.589-1.973-1.255-5.277-1.613-10.964-.18-2.946-.32-5.265.474-6.174.012-.013.025-.039.05-.051l.052-.052c.013-.013.038-.025.051-.038.013-.013.039-.026.051-.039.013 0 .039-.025.052-.038.025-.013.038-.026.064-.038.012 0 .038-.026.05-.026.026 0 .052-.026.078-.026a.097.097 0 0 0 .05-.025c.026 0 .052-.013.09-.026.013 0 .039 0 .052-.013.038 0 .064 0 .102-.012h.218c.614 0 1.293.384 1.562.384.05 0 .09 0 .127-.026.013 0 .026 0 .039-.013.026 0 .051-.025.077-.038.013 0 .025-.026.038-.039a.28.28 0 0 0 .051-.064c0-.012.026-.038.039-.05l.038-.078c0-.025.013-.038.026-.064 0-.025.025-.064.038-.09 0-.025.013-.038.026-.063 0-.039.013-.077.025-.116 0-.025 0-.038.013-.064 0-.064.026-.128.026-.192s.013-.128.013-.192c.025-.423 0-.87-.013-1.127l-.09-.026ZM22.702 14.017c-.627-2.33-1.19-1.998-1.536-1.895-.832.243-1.677.5-2.496.743-.27.076-.55.14-.794.243-.039.013-.064.026-.103.038-.038.013-.063.039-.102.052 0 0-.013 0-.026.012-.025.013-.038.026-.064.039 0 0-.025.013-.025.025-.013.013-.026.026-.051.039 0 0-.013.025-.026.025-.013.013-.026.026-.038.052 0 0-.013.025-.026.038a.097.097 0 0 1-.025.051s0 .026-.013.039c0 .025 0 .051-.013.064v.154c.025.5.576 2.382 1.178 5.149.589 2.779 1.254 6.43 1.497 10.438V30.657c.013.589-.012 1.14-.192 1.19-.294.09-.499-.41-.614-.601-3.546-6.379-5.979-10.183-7.694-12.31-1.703-2.113-2.688-2.574-3.303-2.317-.87.358-1.728.742-2.586 1.114-.115.051-.294.102-.486.333-.013.013-.026.038-.039.051a.224.224 0 0 1-.051.064c-.026.051-.064.103-.09.167v.025c0 .026-.025.052-.038.077 0 0 0 .026-.013.038 0 .026-.025.052-.025.077 0 .013 0 .026-.013.039 0 .025-.026.051-.026.077 0 .012 0 .025-.013.05 0 .026-.025.065-.025.09 0 .013 0 .026-.013.039 0 .038-.026.077-.038.128v.026c-.013.05-.026.102-.039.166v.039c0 .038-.025.09-.038.14 0 .026 0 .039-.013.064 0 .039-.013.077-.026.129 0 .025 0 .05-.013.077 0 .038-.012.09-.025.128a.25.25 0 0 1-.013.09c0 .05-.013.089-.026.14a.25.25 0 0 1-.012.09.75.75 0 0 1-.026.166v.077c0 .09-.026.167-.038.27-.333 2.663-.436 7.953.217 18.533.5 8.03.986 11.733 1.434 13.385.448 1.652.896 1.242 1.306 1.05a77.71 77.71 0 0 1 3.034-1.32c.294-.127.922-.204.883-.768 0-.064 0-.14-.012-.205 0-.038 0-.077-.013-.115v-.102c-.141-1.05-.538-2.498-.973-4.88-.512-2.741-1.101-6.712-1.485-12.745-.051-.858-.564-5.43.256-5.764.025 0 .051 0 .077-.012h.114c.026 0 .04 0 .065.012.013 0 .038.013.051.026.026 0 .051.026.077.038.025 0 .038.026.064.039.025.013.051.038.077.051a.225.225 0 0 1 .064.051c.025.026.064.052.09.077.025.013.038.039.063.051.026.026.064.052.103.09l.064.064.102.103c.026.025.039.05.064.064.039.038.077.076.115.128.026.025.039.05.064.076.039.052.077.09.116.141.025.026.038.052.064.077.038.051.076.103.128.154.025.026.038.051.064.077.038.051.09.115.128.166.012.026.038.052.05.077.052.064.09.128.142.192a.28.28 0 0 0 .05.064c.052.064.09.128.142.205.013.026.025.039.051.064.051.077.102.141.154.218.012.013.025.038.038.051l.154.23c0 .014.025.027.025.052.051.077.103.167.167.244 0 0 .012.025.025.038.051.09.115.18.167.269 0 0 0 .013.012.025.064.09.116.193.18.282a51.298 51.298 0 0 1 1.805 3.177c2.97 5.866 3.994 9.645 4.557 11.86.564 2.216.666 2.844 1.805 2.498a98.972 98.972 0 0 1 3.47-1.025c.025 0 .05-.012.077-.025h.025c.026 0 .051 0 .077-.013h.154c.012 0 .025 0 .038-.013 0 0 .026 0 .038-.013.013 0 .026-.013.039-.025 0 0 .025 0 .025-.013.013 0 .039-.026.052-.038 0 0 .012 0 .025-.013.026-.026.051-.039.064-.064 0 0 .013-.026.026-.039.013-.013.025-.038.038-.051 0-.013.026-.026.026-.051 0-.026.025-.039.038-.064 0-.013.026-.039.026-.064 0-.026.025-.052.038-.077 0-.026.026-.051.026-.077 0-.026.025-.064.038-.09 0-.025.013-.05.026-.09 0-.038.025-.076.025-.102 0-.025.013-.064.026-.102 0-.039.026-.09.026-.141 0-.039.012-.064.025-.103.039-.179.064-.371.103-.614.23-1.883.243-5.777-.244-13.795-.653-10.58-1.37-15.575-1.997-17.894l-.064-.064ZM66.14 30.95c-.129-2.037-.346-5.303-.705-8.07-.345-2.779-.857-5.071-1.574-5.148-1.05-.116-2.1-.244-3.137-.359-.14-.013-.345-.051-.55-.038h-.218c-.026 0-.051 0-.077.025h-.012c-.026 0-.052.026-.077.039h-.013c-.013 0-.038.025-.051.038l-.026.026c0 .013-.026.025-.026.038 0 0 0 .013-.012.026 0 .013-.013.038-.026.064v.128c.026.346.422 2.19.87 4.598.436 2.408.922 5.38 1.076 7.941 0 .193.026.385.026.564v.128c.012.372.025.73.038 1.063v1.153c0 .307-.013.602-.026.884v.064c-.012.282-.038.538-.05.794v.064c-.026.243-.052.487-.078.704v.052a7.681 7.681 0 0 1-.102.614v.052a5.514 5.514 0 0 1-.128.538v.05c-.026.09-.051.167-.064.244a5.49 5.49 0 0 1-.474 1.115c-.704 1.165-1.626 1.19-2.176 1.152-2.893-.217-3.265-6.724-3.418-9.12-.256-4.047-.051-7.12.192-9.247.256-2.126.563-3.33.55-3.65-.05-.859-.947-.73-1.395-.756-1.024-.051-2.061-.09-3.085-.128-.052 0-.09 0-.141.038h-.013c-.013 0-.026.013-.038.026l-.013.013-.039.038s0 .013-.013.026c0 .012-.025.038-.038.05 0 0 0 .014-.013.026 0 .026-.025.039-.038.065 0 0 0 .025-.013.025 0 .026-.026.051-.038.077 0 0 0 .026-.013.039 0 .025-.026.05-.038.09 0 .012 0 .025-.013.038 0 .025-.026.064-.026.102 0 .013 0 .038-.013.051 0 .039-.013.064-.025.103 0 .012 0 .038-.013.051 0 .038-.013.064-.026.102 0 .026 0 .039-.013.064 0 .039-.012.077-.025.116 0 .025 0 .051-.013.077 0 .038-.013.076-.026.115V18c0 .038-.012.09-.025.128v.077c0 .05-.013.09-.026.14v.065a.643.643 0 0 1-.025.153v.052c-.051.384-.077.806-.115 1.268v.038c0 .128-.013.256-.026.384v.026c0 .128-.013.256-.013.397v.077c0 .128 0 .243-.013.371v1.858c-.025 3.304.128 6.698.141 7.057.384 6.122 1.255 9.747 2.368 11.848 1.127 2.126 2.51 2.728 3.918 2.83 1.1.077 1.856-.358 2.432-.794.59-.448 1.306-1.28 1.6-1.242 1.934.218-.627 2.318 2.92 2.715 1.216.141 2.06.41 2.47-1.306v-.051c.397-1.742.397-5.47-.09-13.244l-.127.102ZM121.201 34.114V34.1c-.115-1.294-.41-2.28-.512-4.035-.051-.755-.295-4.278-.615-7.902-.332-3.625-.755-7.327-1.177-8.416-2.023-5.251-6.517-3.33-7.566-2.946-1.946.718-3.726 2.203-4.686 4.01 0 0 0 .012-.013.025-.064.115-.115.23-.166.346v.026c-.051.115-.09.217-.141.332 0 .026-.026.052-.026.077l-.115.346v.013c-.038.128-.077.243-.102.371 0 .026 0 .052-.013.077a2.328 2.328 0 0 0-.064.32v.064a3.642 3.642 0 0 0-.051.372v.051c0 .103-.013.218-.013.32V18.014c.115 1.844 1.357 3.138 2.42 2.792.025 0 .051-.026.076-.039 0 0 .013 0 .026-.012l.051-.052s0-.012.013-.025l.038-.077v-.013c.013-.038.039-.077.052-.115v-.039c0-.038.025-.064.038-.102 0-.013 0-.026.013-.051 0-.039.025-.077.025-.116v-.038c.141-.628.282-1.601.794-2.485.039-.077.09-.154.141-.23 0-.013.026-.026.026-.052.051-.077.115-.153.179-.243.064-.077.141-.154.205-.243 0-.013.025-.026.038-.039.064-.064.128-.128.192-.18.013-.012.038-.038.064-.05.077-.064.166-.141.256-.205s.192-.128.295-.192l.076-.039c.077-.051.167-.09.256-.128.026-.013.064-.026.09-.051.115-.051.23-.103.358-.154 1.46-.538 3.252-.102 3.393 2.075v.359c0 .064 0 .128-.013.179-.115 1.012-.768 1.486-1.575 1.985-1.805 1.127-3.686 2.96-5.056 5.162-.307.5-.589 1.012-.845 1.55v-.013c-.013.039-.039.077-.051.115-.026.052-.039.09-.064.141-.039.103-.09.192-.128.295-.013.038-.039.077-.052.128a14.25 14.25 0 0 0-.153.41l-.039.115c-.038.103-.077.205-.102.295-.013.051-.039.102-.051.166-.026.09-.064.18-.09.27-.013.05-.038.102-.051.166-.039.115-.064.23-.09.346 0 .038-.025.076-.025.115-.026.128-.064.256-.09.384 0 .051-.026.103-.026.154-.012.09-.038.192-.051.282 0 .05-.025.115-.025.166l-.039.307c0 .052 0 .09-.013.141l-.038.436v.128c0 .115-.013.218-.013.333v.614c0 .154 0 .308.013.462 0 .102.013.192.026.295v.115c0 .09.012.18.025.282v.038c.039.333.09.692.179 1.063v.026s.013.038.026.064c0 .038.013.077.026.115a.86.86 0 0 0 .051.18c0 .038.013.063.025.102.026.09.052.18.09.269 0 .013 0 .038.013.051.025.077.051.154.077.218 0 .025.025.064.038.09.026.064.051.115.077.179.013.025.026.064.038.09.026.063.064.127.09.191 0 .026.026.052.038.077.052.09.09.167.141.257 0 .012.026.025.026.038.038.064.089.14.128.205.013.026.038.051.051.077.038.051.09.115.128.166.026.026.038.052.064.077.051.064.102.115.154.18.012.012.025.038.051.05.077.078.141.142.218.206.012.012.038.025.051.038l.192.154c.025.025.051.038.077.064.064.038.128.077.192.128.025.013.064.038.089.051.077.038.154.09.231.128.025 0 .038.026.051.026.102.051.205.09.32.128.026 0 .051.013.077.025.089.026.166.052.269.077.038 0 .076.026.115.026.089.026.166.038.256.051.038 0 .077.013.115.026.115.013.218.038.333.051h.064c.141.013.282.026.422.026h.602c.115 0 .23-.013.346-.026.051 0 .102 0 .153-.013.154-.013.308-.038.474-.064h.051c.179-.025.359-.064.551-.115.051 0 .115-.026.166-.039.141-.038.282-.064.423-.102a1.25 1.25 0 0 0 .204-.064c.141-.038.295-.09.436-.128.064-.026.128-.038.192-.064l.653-.23c2.931-1.102 5.978-2.69 5.927-3.587 0-.102-.013-.192-.026-.282l.026.026ZM111.51 27.3s.013-.039.025-.052c.064-.128.141-.256.218-.384 0 0 0-.025.013-.025.077-.128.154-.244.243-.372.013-.025.026-.038.051-.064a3.4 3.4 0 0 1 .256-.333c.013-.026.039-.038.052-.064.089-.102.179-.218.268-.32.013-.013.026-.026.039-.051.089-.103.192-.205.294-.295l.013-.013.307-.269c.013-.013.039-.025.052-.038.102-.077.204-.154.307-.218.025-.013.038-.026.064-.038l.307-.192c.013 0 .026-.013.051-.026.115-.051.218-.115.333-.154 1.575-.627 1.485 1.23 1.588 2.728l.115 1.883c0 .116.013.23.025.346v1.102c0 .102 0 .192-.012.294v.051c0 .077-.013.154-.026.23 0 .026 0 .065-.013.09-.141.936-.602 1.627-1.779 2.101-1.729.692-3.431-.154-3.585-2.549-.064-1.14.256-2.33.794-3.368ZM93.997 36.125c-.026-.32-.23-2.216-.653-2.447h-.103c-.012 0-.025 0-.038.026v.013s-.013.026-.026.038v.026c0 .013-.012.026-.025.051v.026c0 .025-.013.038-.026.064v.038c-.025.077-.038.167-.064.27v.025c-.025.115-.05.243-.09.397v.038c0 .052-.025.103-.038.154v.038a8.26 8.26 0 0 0-.077.282c0 .026 0 .051-.012.077 0 .038-.026.077-.039.128 0 .039-.013.064-.025.103 0 .038-.026.076-.039.128 0 .038-.025.077-.038.102-.013.039-.026.09-.039.128-.537 1.627-1.754 3.676-4.954 4.112-1.664.23-4.289-1.05-4.417-3.061-.038-.628.141-1.14.487-1.589l.153-.192c.013-.013.026-.038.052-.051a.737.737 0 0 1 .14-.141l.039-.038c.064-.052.128-.116.192-.167a.28.28 0 0 1 .064-.051c.051-.038.102-.09.153-.128.026-.013.039-.039.065-.051.064-.052.14-.103.217-.154.026-.013.039-.026.064-.039.064-.038.115-.076.18-.115.025-.013.05-.038.076-.051.077-.051.154-.102.23-.141.013 0 .04-.026.065-.038.064-.039.14-.09.217-.129.039-.012.064-.038.103-.05.064-.04.128-.078.205-.116l.076-.038c.09-.052.18-.103.27-.141.038-.026.076-.039.127-.064.064-.039.116-.064.18-.103.127-.064.243-.14.37-.205a.097.097 0 0 0 .052-.025c.09-.052.18-.09.269-.141l.077-.039c.102-.05.204-.115.307-.166a.097.097 0 0 0 .051-.026c.09-.051.18-.102.256-.154.026-.012.064-.038.09-.05a2.59 2.59 0 0 1 .32-.18l.307-.192c.026-.013.051-.039.077-.051.09-.052.179-.116.269-.167.013 0 .038-.026.05-.038.103-.064.206-.141.308-.218.013 0 .038-.026.051-.038.09-.065.18-.129.256-.193.026-.013.039-.025.064-.05.103-.078.205-.155.308-.244.102-.077.192-.167.294-.244.026-.012.038-.038.064-.05.09-.078.18-.167.269-.244l.013-.013c.09-.09.192-.18.281-.282.013-.013.026-.038.052-.051.076-.077.153-.167.23-.243a.177.177 0 0 0 .038-.052c.09-.102.18-.205.256-.307 0 0 0-.013.013-.026a2.5 2.5 0 0 0 .218-.294c.013-.026.026-.039.051-.064.154-.218.294-.449.435-.68 0-.025.026-.05.039-.063.064-.103.115-.218.166-.32 0-.013.013-.039.026-.052.064-.128.115-.256.166-.384 0-.013.013-.038.026-.051.051-.115.09-.23.128-.359 0-.013 0-.025.013-.051.332-.999.499-2.152.41-3.51-.308-5.059-3.56-7.147-7.221-6.698-2.24.281-4.391 1.716-5.915 4.393-.153.269-.307.563-.448.87v-.025c-.012.039-.038.077-.05.116-.04.076-.065.14-.103.217-.051.103-.09.205-.141.32-.038.077-.064.154-.103.244-.038.102-.076.218-.127.333-.026.09-.064.166-.09.256l-.115.346c-.026.09-.052.166-.09.256a5.478 5.478 0 0 0-.102.372c-.026.09-.052.166-.077.256-.039.166-.09.333-.128.5-.026.089-.039.179-.064.255-.039.18-.077.372-.115.564-.013.09-.039.192-.052.282l-.076.422c-.013.103-.026.218-.052.32-.025.142-.038.27-.05.41l-.04.346-.038.423c0 .115-.025.243-.025.359 0 .14-.026.294-.026.435 0 .116-.013.244-.025.372 0 .153-.013.307-.013.46v2.114c0 .295.025.602.038.91.218 3.432 1.037 6.711 2.548 9.093 1.51 2.37 3.725 3.869 6.72 3.523.154-.013.308-.039.462-.077.038 0 .09-.013.128-.026.115-.025.243-.05.358-.077.038 0 .064-.012.103-.025.153-.038.294-.09.435-.128.025 0 .051-.026.09-.026.115-.038.23-.09.345-.14a.455.455 0 0 0 .115-.052c.141-.064.27-.128.41-.192.14-.077.269-.154.397-.23.038-.026.064-.039.102-.065.103-.064.218-.14.32-.205.026-.012.052-.038.077-.05.128-.09.243-.193.371-.283.013-.012.039-.025.052-.05l.307-.27.077-.077c.115-.102.217-.217.32-.333.115-.115.217-.243.32-.371.025-.026.038-.051.064-.077.09-.102.166-.218.243-.333.013-.026.038-.051.051-.077.09-.14.18-.282.269-.435 0-.013.013-.026.026-.039a4.15 4.15 0 0 0 .217-.41c.013-.038.039-.064.051-.102.077-.154.141-.295.205-.461v-.013c.064-.166.141-.333.192-.512 0 0 0-.026.013-.039.461-1.293.666-2.78.563-4.431l-.025-.09Zm-10.78-11.733s.052-.09.077-.128c.026-.038.039-.064.064-.102.026-.039.052-.077.077-.128.026-.039.039-.064.064-.103l.077-.115c.026-.038.051-.064.077-.102a.706.706 0 0 1 .077-.103c.025-.038.05-.064.076-.102.026-.039.052-.064.077-.103.026-.038.052-.064.09-.102.026-.026.051-.064.077-.09l.09-.09c.025-.025.05-.064.089-.09l.09-.09c.025-.025.064-.05.09-.076.038-.025.063-.051.101-.077.026-.025.064-.051.09-.077.038-.025.064-.05.103-.076.025-.026.064-.039.09-.065.038-.025.076-.05.114-.064.026-.012.064-.038.09-.05.038-.026.077-.04.115-.065.039-.013.064-.038.09-.051.038-.013.09-.038.128-.051.038-.013.064-.026.102-.039a.624.624 0 0 0 .141-.05c.026 0 .064-.027.09-.027.05-.012.102-.025.166-.038.026 0 .051-.013.077-.013l.243-.038c1.28-.141 2.88.794 3.009 2.895.14 2.177-5.825 4.56-6.235 4.598-.435.038-.627-.423-.653-.897-.077-1.293.243-2.946.948-4.278v-.013ZM77.84 25.852s.09-.115.141-.166c.026-.026.039-.051.064-.077.064-.077.128-.167.18-.256.012-.026.025-.039.038-.064.051-.077.09-.154.14-.23a.383.383 0 0 0 .052-.103c.038-.077.077-.167.115-.244a.622.622 0 0 0 .038-.09c.052-.114.09-.23.141-.345 0-.039.026-.064.039-.103.013-.05.038-.102.05-.166v.013a6.47 6.47 0 0 0 .257-2.242c-.14-2.305-1.664-4.137-3.38-4.111-.896.013-1.677.666-2.33 1.319-.666.666-1.19 1.345-1.69 1.332-.665-.025-.806-.832-.896-1.486-.102-.807-.665-.627-1.19-.653-.935-.038-1.857-.128-2.791-.192H66.677s-.026 0-.026.013c0 0-.025.013-.038.025 0 0-.026.013-.026.026l-.025.026s-.013.025-.026.038c0 .013-.013.026-.025.038 0 .013-.013.026-.026.039a.097.097 0 0 1-.026.051.098.098 0 0 1-.025.051c0 .026-.013.039-.026.064 0 .026 0 .039-.013.064 0 .026 0 .052-.012.077 0 .026 0 .052-.013.077 0 .026 0 .051-.013.09V20.37c0 .116 0 .244.013.372.09 2.152.384 5.776.755 11.707.435 7.083.781 10.31 1.178 11.77.397 1.46.845 1.166 1.472 1.218.896.064 1.78.102 2.688.14.372.013 1.127.039 1.102-.64v-.218c0-.025 0-.064-.013-.09v-.025a.374.374 0 0 0-.026-.115c-.128-.577-.41-1.576-.717-3.1-.41-2.075-.883-5.11-1.152-9.376-.115-1.908-.23-5.559.87-7.3l.077-.116c.026-.038.052-.064.077-.102a.727.727 0 0 1 .09-.103c.025-.025.05-.064.077-.09.025-.038.064-.064.102-.09a.552.552 0 0 1 .09-.076c.038-.026.064-.051.102-.077.026-.026.064-.038.09-.064.038-.026.076-.038.115-.064.026-.013.064-.038.102-.051.039-.013.09-.039.128-.051.039 0 .064-.026.103-.039.05-.013.102-.025.153-.025.026 0 .064-.013.09-.013.09 0 .166-.013.269-.013 2.317.038 2.023 2.882 2.42 2.87.05 0 .115 0 .179-.027h.05c.052 0 .103-.025.154-.05.013 0 .026 0 .052-.014.064-.025.128-.064.192-.09.012 0 .025-.012.038-.025.051-.025.102-.064.166-.102.026-.013.039-.026.064-.052a1.61 1.61 0 0 0 .167-.14s.025-.026.038-.026c.064-.064.128-.128.205-.192.026-.026.039-.051.064-.064l-.14.025Z" fill="#F9A51A"/><path d="M107.016 40.339V40.236c0-.025 0-.064-.012-.09v-.012c0-.026 0-.051-.013-.077-.141-.64-.474-2.037-.858-4.291-.499-2.895-1.075-7.198-1.447-13.09-.332-5.328-.243-9.645-.076-12.642.166-3.01.422-4.726.409-4.855-.064-.947-1.049-.512-1.408-.41-1.05.308-2.087.615-3.136.897-.743.192-.794 5.072-.628 10.157.167 5.085.525 10.375.589 11.387.026.5.243 4.33.576 8.018.333 3.676.82 7.198 1.396 7.057 1.152-.294 2.304-.64 3.469-.973.359-.102 1.229-.154 1.178-.87V40.338h-.039ZM100.794 42.042v-.038c0-.026 0-.039-.012-.064v-.103c0-.025 0-.038-.013-.064-.141-.653-.474-2.062-.858-4.29-.5-2.908-1.075-7.224-1.447-13.116-.332-5.329-.243-9.62-.076-12.617.166-2.997.422-4.688.41-4.816-.065-.948-1.038-.55-1.409-.474-1.05.244-2.1.461-3.15.68h-.012c-.013 0-.038 0-.051.025l-.013.013c-.013 0-.026.025-.051.038 0 0 0 .013-.013.026-.013.012-.026.038-.038.064 0 0 0 .025-.013.025l-.039.077s0 .026-.012.039c-.013.025-.026.064-.039.09 0 .012 0 .025-.013.038 0 .038-.025.077-.038.115v.038c0 .039-.026.09-.038.128v.052c0 .05-.026.102-.039.153V8.1c0 .051-.025.115-.025.18v.038c0 .064-.026.128-.026.205v.038c0 .077-.013.14-.026.218v.025c0 .077-.013.167-.025.244v.012c0 .09-.013.18-.026.282a51.503 51.503 0 0 0-.115 3.727v2.229c0 .397.013.794.025 1.204 0 .218.013.449.026.679.166 5.072.525 10.375.589 11.387.026.5.243 4.329.576 8.018.333 3.689.82 7.237 1.395 7.121 1.153-.243 2.318-.5 3.483-.755.371-.077 1.229-.103 1.19-.82V42.017l-.077.025ZM40.65 42.99c-.127-1.217-.396-2.255-.499-3.92-.05-.755-.294-4.29-.627-7.94-.333-3.651-.742-7.43-1.178-8.634-2.074-5.802-6.618-5.085-7.68-4.88-2.01.397-3.829 1.691-4.789 3.446l-.153.307c0 .026-.026.051-.039.077l-.115.269c0 .026-.013.038-.026.064-.038.115-.076.218-.115.333 0 .013 0 .038-.013.051-.025.09-.05.192-.076.282a.237.237 0 0 1-.026.09c-.026.102-.038.205-.064.294v.052c-.013.115-.038.23-.038.345v.09c0 .09 0 .18-.013.282V24.059c.115 1.844 1.382 3.24 2.445 2.997.026 0 .051-.013.077-.038 0 0 .012 0 .025-.013.013-.013.039-.026.052-.051 0 0 0-.013.012-.026.013-.026.039-.051.052-.09.012-.038.025-.064.038-.102 0-.013 0-.026.013-.039 0-.025.025-.064.025-.102 0-.013 0-.026.013-.051l.039-.154v-.038c0-.052.025-.103.038-.154 0-.026 0-.051.013-.077.128-.563.281-1.306.678-1.972l.154-.231c.051-.077.115-.14.166-.205.013-.013.026-.026.039-.051l.192-.192.23-.192a.28.28 0 0 1 .064-.039c.064-.051.141-.09.218-.14.025 0 .038-.026.064-.04.09-.05.192-.102.307-.14.013 0 .039-.013.064-.026.09-.038.18-.076.282-.102.025 0 .064-.026.09-.026a3.37 3.37 0 0 1 .383-.09c1.46-.281 3.29.628 3.419 2.806v.307c-.039 1.153-.743 1.447-1.613 1.793-1.844.73-3.726 2.267-5.108 4.304a13.676 13.676 0 0 0-.948 1.64c-.064.127-.115.256-.18.384 0 .025-.025.05-.025.077-.05.115-.09.217-.14.333 0 .025-.026.063-.039.09-.051.127-.102.268-.154.409-.05.14-.09.282-.14.423 0 .038-.026.064-.026.102-.038.103-.064.218-.09.32 0 .039-.025.077-.025.116-.039.14-.064.269-.103.41v.025l-.076.436c0 .038-.013.077-.026.128-.013.102-.038.217-.051.32 0 .038 0 .09-.013.128l-.038.423v.012c0 .154-.026.295-.026.449v.589c0 .154 0 .307.013.448.153 2.575 1.037 7.621 9.038 6.123 2.957-.551 6.094-.871 6.03-1.768 0-.166-.026-.333-.039-.5l.039-.012Zm-9.895-8.902.115-.192c.013-.026.026-.039.038-.064.026-.051.064-.103.103-.154.013-.026.038-.051.051-.077.038-.051.064-.09.102-.14.013-.026.039-.052.052-.065.038-.051.076-.102.115-.14.013-.013.025-.04.038-.052a4.608 4.608 0 0 1 .384-.422l.128-.129c.026-.012.039-.038.064-.05a.829.829 0 0 1 .116-.103c.025-.013.038-.039.064-.052.038-.038.076-.064.128-.102a.223.223 0 0 0 .064-.051c.05-.039.102-.064.14-.103.013 0 .026-.025.039-.025l.192-.116c.013 0 .025-.012.038-.025l.154-.077c.026 0 .051-.026.064-.039.038-.025.09-.038.128-.064.025 0 .051-.025.077-.025.038-.013.09-.039.128-.051a.182.182 0 0 0 .077-.026c.05-.013.09-.026.14-.038.026 0 .039 0 .064-.013.064-.013.129-.026.205-.039 1.6-.256 1.51 1.601 1.6 3.087l.116 1.883c0 .166.025.333.025.487v.115c.013.32.026.628 0 .897v.09c0 .127-.012.268-.038.383-.128.923-.589 1.512-1.818 1.717-1.754.294-3.47-.794-3.623-3.19-.064-1.075.218-2.139.717-3.048l.013.013Z" fill="#F9A51A"/></svg>