<svg width="99" height="99" fill="none" xmlns="http://www.w3.org/2000/svg"><path d="M70.623 59.6h9.375V88h-37.5V59.6h9.376v-9.467h18.749V59.6Zm-14.062 0h9.375v-4.733H56.56V59.6Zm18.75 14.2h-4.688v4.733h-4.687V73.8H56.56v4.733h-4.687V73.8h-4.688v9.467H75.31V73.8Zm-28.125-9.467v4.734H75.31v-4.734H47.186ZM37.812 45.4c0 2.293-.501 4.438-1.502 6.434-1 1.997-2.429 3.674-4.285 5.03a21.42 21.42 0 0 1 3.113 1.96c.977.739 1.868 1.565 2.674 2.477V73.8c0-1.948-.367-3.784-1.1-5.51a14.257 14.257 0 0 0-3.002-4.511c-1.27-1.282-2.77-2.305-4.504-3.07a12.953 12.953 0 0 0-5.457-1.109c-1.953 0-3.771.37-5.456 1.11a14.67 14.67 0 0 0-4.468 3.032c-1.293 1.282-2.307 2.798-3.039 4.548a14.133 14.133 0 0 0-1.099 5.51H5c0-1.8.244-3.538.732-5.214a20.194 20.194 0 0 1 2.088-4.77 16.808 16.808 0 0 1 3.332-3.994 22.97 22.97 0 0 1 4.321-2.995 13.667 13.667 0 0 1-4.248-4.993c-1-1.997-1.513-4.141-1.538-6.434 0-1.948.367-3.784 1.099-5.51a14.257 14.257 0 0 1 3.003-4.511 14.623 14.623 0 0 1 4.467-3.07c1.71-.764 3.54-1.134 5.493-1.109 1.758 0 3.43.308 5.017.924 1.587.617 3.04 1.529 4.358 2.737a14.375 14.375 0 0 1 2.6-1.886 8.927 8.927 0 0 1-1.904-2.995 10.225 10.225 0 0 1-.696-3.513 9.16 9.16 0 0 1 .732-3.661 10.091 10.091 0 0 1 2.015-3.033 8.76 8.76 0 0 1 2.966-2.033c1.123-.469 2.343-.715 3.662-.74 1.294 0 2.502.247 3.625.74a9.979 9.979 0 0 1 3.003 2.033 8.855 8.855 0 0 1 2.014 2.996c.464 1.134.708 2.366.733 3.698a9.64 9.64 0 0 1-.66 3.513 8.658 8.658 0 0 1-1.94 2.995 14.069 14.069 0 0 1 4.943 4.585 14.07 14.07 0 0 1 4.944-4.585 8.927 8.927 0 0 1-1.904-2.995 10.222 10.222 0 0 1-.696-3.513 9.16 9.16 0 0 1 .732-3.661 10.091 10.091 0 0 1 2.014-3.033 8.76 8.76 0 0 1 2.967-2.033c1.123-.469 2.343-.715 3.662-.74 1.293 0 2.502.247 3.625.74a9.979 9.979 0 0 1 3.003 2.033 8.856 8.856 0 0 1 2.014 2.996c.464 1.134.708 2.366.732 3.698 0 1.208-.22 2.379-.659 3.513a8.657 8.657 0 0 1-1.94 2.995 13.758 13.758 0 0 1 3.039 2.256c.903.887 1.66 1.861 2.27 2.921a15.776 15.776 0 0 1 1.465 3.476 12.55 12.55 0 0 1 .513 3.772H75.31a9.159 9.159 0 0 0-.732-3.66 10.09 10.09 0 0 0-2.014-3.033 8.76 8.76 0 0 0-2.966-2.034c-1.123-.468-2.344-.715-3.662-.74a8.918 8.918 0 0 0-3.626.74 9.978 9.978 0 0 0-3.003 2.034 8.854 8.854 0 0 0-2.014 2.995c-.463 1.134-.708 2.367-.732 3.698h-4.687a9.159 9.159 0 0 0-.733-3.66 10.09 10.09 0 0 0-2.014-3.033 8.76 8.76 0 0 0-2.966-2.034c-1.123-.468-2.344-.715-3.662-.74a9.384 9.384 0 0 0-3.479.666 8.557 8.557 0 0 0-2.966 1.96 13.242 13.242 0 0 1 1.318 3.291 14.43 14.43 0 0 1 .44 3.55Zm28.124-23.667c-.66 0-1.27.124-1.831.37-.562.247-1.05.58-1.465.999-.415.419-.757.924-1.026 1.516a4.043 4.043 0 0 0-.366 1.849c0 .665.122 1.282.367 1.849.244.567.573 1.06.988 1.479.415.419.916.764 1.502 1.035a3.937 3.937 0 0 0 1.83.37c.66 0 1.27-.123 1.832-.37a4.694 4.694 0 0 0 1.464-.998c.416-.42.757-.925 1.026-1.516.268-.592.39-1.208.366-1.85 0-.665-.122-1.281-.366-1.848a4.746 4.746 0 0 0-.989-1.48 5.107 5.107 0 0 0-1.501-1.035 3.938 3.938 0 0 0-1.831-.37Zm-23.437 0c-.66 0-1.27.124-1.831.37-.562.247-1.05.58-1.465.999-.415.419-.757.924-1.025 1.516a4.045 4.045 0 0 0-.366 1.849c0 .665.122 1.282.366 1.849s.573 1.06.988 1.479c.416.419.916.764 1.502 1.035a3.937 3.937 0 0 0 1.83.37c.66 0 1.27-.123 1.832-.37a4.696 4.696 0 0 0 1.465-.998 5.16 5.16 0 0 0 1.025-1.516c.269-.592.39-1.208.366-1.85 0-.665-.122-1.281-.366-1.848a4.746 4.746 0 0 0-.989-1.48 5.108 5.108 0 0 0-1.501-1.035 3.938 3.938 0 0 0-1.831-.37Zm-18.75 33.134a8.919 8.919 0 0 0 3.626-.74 9.978 9.978 0 0 0 3.003-2.034 8.852 8.852 0 0 0 2.014-2.995c.464-1.134.708-2.367.732-3.698a9.157 9.157 0 0 0-.732-3.66 10.086 10.086 0 0 0-2.014-3.033 8.76 8.76 0 0 0-2.967-2.034c-1.123-.468-2.343-.715-3.662-.74a8.918 8.918 0 0 0-3.625.74 9.978 9.978 0 0 0-3.003 2.034 8.854 8.854 0 0 0-2.014 2.995c-.464 1.134-.708 2.367-.732 3.698 0 1.307.244 2.527.732 3.66a10.088 10.088 0 0 0 2.014 3.033 8.76 8.76 0 0 0 2.966 2.034c1.123.468 2.344.715 3.662.74Z" fill="#135330"/></svg>