<svg width="11" height="10" fill="none" xmlns="http://www.w3.org/2000/svg"><path fill-rule="evenodd" clip-rule="evenodd" d="M1.4.429c.687-.654 1.817-.538 2.392.198l.712.91c.468.6.426 1.436-.13 1.965l-.133.129a.339.339 0 0 0-.005.165c.036.22.228.688 1.033 1.455.806.768 1.297.952 1.53.986.059.012.12.01.178-.005l.23-.219c.494-.47 1.252-.558 1.864-.24l1.077.562c.923.48 1.156 1.682.4 2.403l-.801.763c-.253.24-.592.441-1.006.478-1.021.092-3.4-.025-5.9-2.407C.507 5.348.059 3.409.002 2.453c-.028-.483.21-.892.514-1.18L1.4.429Zm1.715.684c-.286-.366-.818-.395-1.118-.11l-.886.844c-.186.177-.275.373-.264.56.045.76.406 2.51 2.59 4.59C5.73 9.18 7.844 9.245 8.662 9.172a.82.82 0 0 0 .488-.246l.801-.763c.326-.31.254-.876-.207-1.116l-1.077-.562a.752.752 0 0 0-.863.103l-.257.245-.299-.288c.3.288.298.289.298.289l-.002.002-.004.003-.009.008a.884.884 0 0 1-.257.144 1.242 1.242 0 0 1-.603.047c-.489-.071-1.137-.39-1.998-1.211C3.812 5.006 3.476 4.389 3.4 3.92a1.087 1.087 0 0 1 .05-.579.817.817 0 0 1 .134-.227l.018-.019.008-.008.003-.003.002-.002h.001l.163-.155a.668.668 0 0 0 .048-.905l-.712-.91Z" fill="#F9A51A"/></svg>