<svg width="156" height="71" fill="none" xmlns="http://www.w3.org/2000/svg"><rect x=".008" width="155.398" height="70.706" rx="14" fill="#1B3086"/><path d="M92.082 26.563a2.368 2.368 0 1 0-.001-4.736 2.368 2.368 0 0 0 0 4.736Z" fill="#fff"/><path d="M92.082 26.563a2.368 2.368 0 1 0-.001-4.736 2.368 2.368 0 0 0 0 4.736ZM30.798 49.82h-1.89c-.497 0-.865-.099-1.114-.288-.239-.2-.477-.607-.726-1.234l-5.252-25.766c-.07-.199-.07-.388 0-.537.07-.16.219-.24.448-.24h3.53c.07 0 .14.01.21.04.07.03.119.05.149.07.04.02.07.07.11.14l.069.139s.03.07.07.17l.06.168 3.49 21.716h.02l3.492-21.716.06-.169c.04-.09.06-.15.07-.169l.069-.14c.04-.069.07-.119.11-.139.039-.02.089-.04.148-.07.07-.03.14-.04.21-.04h3.53c.22 0 .368.08.448.24.07.159.07.338 0 .537l-5.252 25.766c-.239.627-.477 1.045-.726 1.234-.239.199-.607.289-1.114.289h-1.89M66.24 46.566c-.448-.169-.667-.547-.667-1.134V33.519c0-3.353-1.253-5.025-5.093-5.025-1.8 0-2.526.348-3.491 1.045-.975.696-1.462 1.622-1.462 2.796 0 .498.06.876.179 1.135.119.258.358.388.706.388h2.228c.06 0 .11 0 .15-.01.039-.01.079-.02.109-.04s.05-.03.07-.04c.02-.01.03-.03.039-.06l.03-.08s.01-.069.01-.109v-.487c0-.966.209-1.443 1.283-1.443 1.134 0 1.363.587 1.363 1.751v3.503h-2.06c-1.83 0-2.834.319-3.67.946-.835.627-1.253 1.562-1.253 2.806v5.802c0 1.035.398 1.901 1.184 2.588.785.687 1.86 1.025 3.203 1.025 1.999 0 2.387-.677 3.123-2.03.09.627.398 1.124.935 1.473.537.348.865.527 1.681.527 1.223 0 1.83-.328 1.83-.975v-1.831c0-.299-.149-.488-.447-.588l.02-.02Zm-4.536-5.563s-.03 2.896-.03 4.26c0 .279-1.273 1.224-2.03 1.224a1.065 1.065 0 0 1-1.034-1.085v-4.488c0-.737.19-.976 1.194-1.115.616-.08 1.89-.328 1.89-.328v1.522l.01.01ZM86.919 45.431c0 .369.07.657.219.847.149.189.328.288.527.288.219 0 .338.2.338.607v1.831c0 .627-.278.946-1.502.946-2.318 0-3.472-1.264-3.472-3.782V34.395c0-.647-.169-1.155-.497-1.533-.338-.368-.447-.557-1.004-.557-1.005 0-1.622.527-1.86 1.582v11.525c0 .368.07.657.218.846.15.199.329.288.528.288.218 0 .338.2.338.607v1.831c0 .627-.607.946-1.83.946-2.298 0-3.114-1.264-3.114-3.782V34.375c0-.647-.17-1.155-.497-1.533-.339-.368-.448-.557-1.005-.557-.666 0-.835.219-1.154.657a2.668 2.668 0 0 0-.537 1.483v14.719c0 .428-.199.637-.607.637h-2.616c-.427 0-.636-.22-.636-.667V33.06c0-.687-.259-1.055-.776-1.114-.2 0-.309-.2-.309-.607v-1.861c0-.608.279-.916 1.502-.916 1.592 0 2.557.617 2.885 1.86v.2c.537-1.393 1.482-2.08 3.501-2.08 1.91 0 2.597.727 3.372 2.17.607-1.444 1.582-2.17 3.561-2.17 1.612 0 2.477.498 3.263 1.483.786.995 1.184 2.279 1.184 3.851v11.525l-.02.03ZM101.879 49.014c0 .627-.616.946-1.86.946-1.134.02-1.661-.289-2.238-.916-.587-.627-.875-1.582-.875-2.866V22.552c0-.448.209-.667.636-.667h2.587c.427 0 .636.22.636.667v22.87c0 .577.159.915.468 1.025.039.02.109.05.209.08.099.03.179.07.218.109a.612.612 0 0 1 .209.498v1.86l.01.02ZM103.729 22.492c0-.428.199-.637.607-.637h2.616c.428 0 .637.219.637.667v7.305c.646-.906 1.412-1.364 2.944-1.364s2.149.498 2.925 1.483c.776.995 1.163 2.279 1.163 3.851v11.624c0 .598.219.976.667 1.135.298.13.448.328.448.587v1.861c0 .627-.617.946-1.861.946-2.297 0-3.113-1.264-3.113-3.782V34.235c0-.607-.169-1.104-.497-1.473-.339-.368-.448-.557-1.005-.557-.666 0-.836.219-1.174.667a2.374 2.374 0 0 0-.497 1.473v14.788c0 .448-.209.667-.637.667h-2.616c-.408 0-.607-.209-.607-.637V22.482v.01ZM126.737 30.444c-1.124-1.254-2.019-1.87-4.019-1.87-1.999 0-2.924.626-4.048 1.87-1.124 1.244-1.681 2.906-1.681 4.956v7.683c0 2.07.557 3.742 1.681 5.006 1.124 1.264 2.029 1.891 4.048 1.891s2.905-.637 4.019-1.9c1.124-1.265 1.681-2.937 1.681-4.987V35.41c0-2.06-.557-3.712-1.681-4.956v-.01Zm-2.626 15.038c-.338.537-.577.806-1.393.806-.815 0-1.064-.269-1.402-.806-.338-.538-.518-1.324-.518-2.359V35.41c0-2.09.428-3.145 1.92-3.145s1.89 1.045 1.89 3.145v7.713c0 1.035-.169 1.821-.497 2.359ZM52.94 26.075h-1.183v-3.533c0-.448-.21-.667-.637-.667h-2.616c-.408 0-.607.22-.607.667v3.533h-1.034c-.408 0-.607.21-.607.637v2.03c0 .428.199.637.607.637h1.034v16.8c0 1.273.289 2.229.875 2.865.587.628 1.114.936 2.239.916 1.223 0 1.83-.318 1.83-.945v-1.861c0-.369-.1-.568-.309-.588-.517-.06-.775-.438-.775-1.134V29.389h1.193c.428 0 .637-.209.637-.637v-2.03c0-.428-.21-.637-.637-.637l-.01-.01ZM95.105 49.015c0 .627-.606.945-1.83.945-1.134.02-1.661-.288-2.238-.915-.587-.627-.875-1.583-.875-2.867V29.131c0-.448.199-.667.606-.667h2.617c.427 0 .636.219.636.667v16.301c0 .707.259 1.085.776 1.135.199.02.308.209.308.587v1.86ZM45.161 49.015c0 .627-.606.945-1.83.945-1.134.02-1.661-.288-2.238-.915-.587-.627-.875-1.583-.875-2.867V29.131c0-.448.199-.667.606-.667h2.617c.427 0 .636.219.636.667v16.301c0 .707.259 1.085.776 1.135.199.02.308.209.308.587v1.86ZM42.128 26.563a2.368 2.368 0 1 0-.001-4.736 2.368 2.368 0 0 0 0 4.736ZM129.821 50.288c-.418-.418-.627-.955-.627-1.622 0-.667.209-1.194.636-1.622.418-.418.955-.627 1.612-.627.656 0 1.194.209 1.611.627.418.418.637.955.637 1.622 0 .667-.209 1.194-.637 1.622-.417.418-.965.627-1.611.627-.647 0-1.194-.209-1.612-.627h-.009Zm2.994-.238c.358-.359.537-.826.537-1.384 0-.557-.179-1.025-.537-1.393-.359-.368-.816-.548-1.373-.548s-1.015.18-1.373.548c-.358.368-.537.836-.537 1.393 0 .558.179 1.025.537 1.384.358.358.816.537 1.373.537s1.014-.18 1.382-.548l-.009.01Zm-.219-.06c0 .05-.05.08-.159.08a.515.515 0 0 1-.329-.12.852.852 0 0 1-.228-.299c-.06-.119-.12-.229-.18-.348a.918.918 0 0 0-.218-.288.44.44 0 0 0-.299-.12h-.408V50s-.019.07-.069.07h-.199s-.07-.03-.07-.08v-2.667s.02-.07.07-.07h.766c.597 0 .895.269.895.816 0 .06 0 .12-.02.18-.01.059-.03.109-.05.148-.02.04-.039.08-.069.12-.02.04-.05.07-.08.09-.03.03-.06.05-.079.07-.03.019-.06.039-.08.049-.03.01-.05.02-.07.03-.02.01-.039.01-.059.02h-.02c.089.05.169.129.239.238.079.11.139.22.179.329a.92.92 0 0 0 .179.288c.069.08.149.13.238.13h.06s.04.02.04.05v.169l.02.01Zm-1.393-1.394c.418 0 .617-.169.617-.507 0-.338-.199-.538-.607-.538h-.438v1.045h.428Z" fill="#fff"/></svg>