<svg width="145" height="39" fill="none" xmlns="http://www.w3.org/2000/svg"><path d="M91.214 6.805A3.048 3.048 0 1 0 91.213.71a3.048 3.048 0 0 0 .001 6.095Z" fill="#F9A51A"/><path d="M91.214 6.805A3.048 3.048 0 1 0 91.213.71a3.048 3.048 0 0 0 .001 6.095ZM12.341 36.738H9.91c-.64 0-1.114-.128-1.434-.371-.307-.257-.614-.782-.934-1.589L.78 1.618c-.09-.257-.09-.5 0-.692.09-.205.282-.308.576-.308h4.545c.09 0 .18.013.269.051.09.039.153.064.192.09.05.026.09.09.14.18l.09.179s.039.09.09.217l.077.218 4.493 27.948h.026l4.493-27.948.077-.218c.051-.115.077-.192.09-.217l.09-.18c.05-.09.089-.153.14-.179.051-.026.115-.051.192-.09a.668.668 0 0 1 .269-.05h4.545c.281 0 .473.102.576.307.09.205.09.435 0 .691l-6.76 33.161c-.307.807-.614 1.345-.934 1.589-.308.256-.781.371-1.434.371H10.19M57.955 32.55c-.576-.218-.858-.705-.858-1.46V15.758c0-4.317-1.613-6.468-6.555-6.468-2.317 0-3.251.448-4.493 1.344-1.255.897-1.882 2.088-1.882 3.6 0 .64.077 1.127.23 1.46.154.333.461.5.91.5h2.867c.077 0 .14 0 .192-.014a.459.459 0 0 0 .14-.05.737.737 0 0 1 .09-.052c.026-.013.039-.038.052-.077l.038-.102s.013-.09.013-.141v-.628c0-1.242.269-1.857 1.651-1.857 1.46 0 1.754.756 1.754 2.254v4.509h-2.65c-2.355 0-3.648.41-4.724 1.217-1.075.807-1.613 2.01-1.613 3.612v7.467c0 1.332.512 2.446 1.524 3.33 1.011.884 2.394 1.32 4.122 1.32 2.573 0 3.072-.871 4.02-2.614.115.807.512 1.448 1.203 1.896.691.448 1.114.679 2.164.679 1.574 0 2.355-.423 2.355-1.255V33.33c0-.384-.192-.628-.576-.756l.026-.025Zm-5.838-7.16s-.038 3.727-.038 5.482c0 .358-1.64 1.575-2.612 1.575a1.371 1.371 0 0 1-1.331-1.396v-5.776c0-.948.243-1.256 1.536-1.435.794-.102 2.432-.423 2.432-.423v1.96l.013.013ZM84.57 31.09c0 .473.09.845.282 1.088.192.244.422.372.678.372.282 0 .436.256.436.781v2.357c0 .807-.359 1.216-1.933 1.216-2.983 0-4.468-1.626-4.468-4.867V16.885c0-.833-.218-1.486-.64-1.973-.436-.474-.577-.717-1.293-.717-1.294 0-2.087.679-2.395 2.037v14.832c0 .474.09.845.282 1.089.192.256.423.371.679.371.281 0 .435.256.435.781v2.357c0 .807-.781 1.217-2.356 1.217-2.957 0-4.007-1.627-4.007-4.867V16.859c0-.832-.217-1.486-.64-1.972-.435-.474-.576-.718-1.293-.718-.858 0-1.075.282-1.485.846a3.434 3.434 0 0 0-.691 1.908v18.944c0 .55-.256.82-.781.82h-3.367c-.55 0-.82-.282-.82-.858v-20.66c0-.884-.332-1.358-.998-1.435-.256 0-.397-.256-.397-.781v-2.396c0-.78.359-1.178 1.933-1.178 2.049 0 3.29.794 3.713 2.395v.257c.691-1.794 1.907-2.677 4.506-2.677 2.458 0 3.342.935 4.34 2.792.781-1.857 2.036-2.792 4.583-2.792 2.074 0 3.188.64 4.2 1.908 1.01 1.28 1.523 2.933 1.523 4.957V31.05l-.026.039ZM103.824 35.7c0 .807-.793 1.217-2.394 1.217-1.46.026-2.138-.371-2.88-1.178-.755-.807-1.127-2.037-1.127-3.689V1.643c0-.577.27-.858.82-.858h3.328c.551 0 .82.281.82.858v29.434c0 .743.204 1.178.601 1.319.051.026.141.064.269.102.128.039.23.09.282.141a.9.9 0 0 1 .179.23c.064.103.09.244.09.41v2.396l.012.026ZM106.206 1.566c0-.55.256-.82.78-.82h3.367c.551 0 .82.282.82.858v9.402c.832-1.166 1.818-1.755 3.789-1.755 1.972 0 2.765.64 3.764 1.908.998 1.281 1.498 2.933 1.498 4.957v14.96c0 .769.281 1.256.857 1.46.385.167.577.423.577.756v2.396c0 .806-.794 1.216-2.394 1.216-2.958 0-4.007-1.626-4.007-4.867V16.68c0-.781-.218-1.422-.641-1.896-.435-.474-.576-.717-1.293-.717-.857 0-1.075.282-1.51.858a3.055 3.055 0 0 0-.64 1.896v19.033c0 .577-.269.858-.82.858h-3.367c-.524 0-.78-.269-.78-.82V1.553v.013ZM135.816 11.8c-1.446-1.614-2.598-2.408-5.172-2.408-2.573 0-3.763.807-5.21 2.408s-2.163 3.74-2.163 6.379v9.888c0 2.664.716 4.816 2.163 6.443 1.447 1.626 2.612 2.433 5.21 2.433 2.599 0 3.739-.82 5.172-2.446 1.447-1.627 2.164-3.779 2.164-6.417v-9.888c0-2.652-.717-4.778-2.164-6.38V11.8Zm-3.379 19.354c-.436.691-.743 1.037-1.793 1.037-1.049 0-1.369-.346-1.805-1.037-.435-.692-.665-1.704-.665-3.036v-9.926c0-2.69.55-4.048 2.47-4.048 1.921 0 2.433 1.345 2.433 4.048v9.926c0 1.332-.218 2.344-.64 3.036ZM40.838 6.177h-1.523V1.63c0-.576-.269-.858-.82-.858H35.13c-.525 0-.781.282-.781.858v4.547h-1.332c-.525 0-.78.27-.78.82V9.61c0 .55.255.82.78.82h1.332v21.62c0 1.64.37 2.87 1.126 3.69.756.806 1.434 1.203 2.88 1.177 1.575 0 2.356-.41 2.356-1.216v-2.395c0-.474-.128-.73-.397-.756-.665-.077-.998-.564-.998-1.46V10.442h1.536c.55 0 .82-.269.82-.82V7.01c0-.551-.27-.82-.82-.82l-.013-.013ZM95.106 35.7c0 .807-.78 1.217-2.355 1.217-1.46.026-2.138-.371-2.88-1.178-.756-.807-1.127-2.037-1.127-3.689V10.11c0-.577.256-.859.78-.859h3.367c.551 0 .82.282.82.858v20.98c0 .91.333 1.397.998 1.46.256.026.397.27.397.756V35.7ZM30.827 35.7c0 .807-.78 1.217-2.355 1.217-1.46.026-2.138-.371-2.88-1.178-.756-.807-1.127-2.037-1.127-3.689V10.11c0-.577.256-.859.78-.859h3.368c.55 0 .819.282.819.858v20.98c0 .91.333 1.397.999 1.46.256.026.396.27.396.756V35.7ZM26.923 6.805A3.048 3.048 0 1 0 26.92.71a3.048 3.048 0 0 0 .002 6.095ZM139.785 37.34c-.538-.538-.806-1.23-.806-2.088 0-.858.268-1.537.819-2.088.538-.538 1.229-.807 2.074-.807.845 0 1.536.27 2.074.807.537.538.819 1.23.819 2.088 0 .858-.269 1.537-.819 2.088-.538.538-1.242.807-2.074.807-.832 0-1.536-.27-2.074-.807h-.013Zm3.853-.308c.461-.46.692-1.063.692-1.78 0-.717-.231-1.32-.692-1.793-.46-.474-1.049-.705-1.766-.705-.717 0-1.306.231-1.767.705-.461.474-.691 1.076-.691 1.793 0 .717.23 1.32.691 1.78.461.462 1.05.692 1.767.692.717 0 1.306-.23 1.779-.704l-.013.012Zm-.281-.076c0 .064-.064.102-.205.102a.663.663 0 0 1-.423-.154 1.102 1.102 0 0 1-.294-.384c-.077-.154-.154-.294-.23-.448a1.195 1.195 0 0 0-.282-.372.564.564 0 0 0-.384-.153h-.525v1.422s-.026.09-.09.09h-.256s-.089-.04-.089-.103v-3.433s.025-.09.089-.09h.986c.768 0 1.152.346 1.152 1.05 0 .078 0 .154-.025.231a.701.701 0 0 1-.064.192c-.026.052-.052.103-.09.154a.308.308 0 0 1-.102.115c-.039.039-.077.064-.103.09a1.194 1.194 0 0 1-.102.064c-.039.013-.064.026-.09.038-.025.013-.051.013-.077.026h-.025a.884.884 0 0 1 .307.307c.102.141.179.282.23.423.052.141.141.27.231.372.09.102.192.166.307.166h.077s.051.026.051.064v.218l.026.013Zm-1.792-1.794c.537 0 .793-.217.793-.653 0-.435-.256-.691-.781-.691h-.563v1.345h.551Z" fill="#F9A51A"/></svg>